<svg width="249" height="241" viewBox="0 0 249 241" fill="none" xmlns="http://www.w3.org/2000/svg">
<g clip-path="url(#clip0_1_11)">
<path d="M108.594 207.494C105.839 207.494 103.061 207.3 100.282 206.906C90.8048 205.565 81.4811 201.969 73.3208 196.511L73.0289 196.316L73.3706 196.394C92.6529 200.84 112.996 202.569 133.31 201.555C152.562 191.682 160.33 171.912 164.543 157.469C176.244 117.363 177.442 77.2433 167.915 44.4977C163.587 29.6223 153.181 4.60194 131.525 0.63433C130.311 0.467113 129.094 0.31648 127.875 0.185193L127.888 0.0566711L129.447 0.193485C130.144 0.275021 130.834 0.377286 131.519 0.501662C142.875 2.06189 154.063 5.19203 164.827 9.82436C176.382 14.7967 187.294 21.4287 197.259 29.5366C207.129 37.5658 215.889 46.8927 223.294 57.2546C230.794 67.7506 236.763 79.12 241.038 91.0435C245.427 103.288 248.022 116.071 248.751 129.039C249.147 136.061 248.036 142.773 245.449 148.989C242.976 154.936 239.091 160.574 233.905 165.747C217.544 182.066 192.673 193.172 159.984 198.755C151.179 200.258 142.28 201.233 133.374 201.679C131.93 202.413 130.437 203.085 128.896 203.695C122.551 206.212 115.652 207.492 108.597 207.492L108.594 207.494ZM73.686 196.599C90.7674 207.899 111.361 210.511 128.845 203.578C130.298 203.002 131.691 202.374 133.03 201.697C112.92 202.675 92.7871 200.967 73.6846 196.598L73.686 196.599ZM133.46 0.919014C141.566 2.92009 148.746 8.0748 154.848 16.2864C161.631 25.417 165.766 36.6482 168.039 44.4618C173.055 61.7045 175.142 80.7673 174.241 101.121C173.423 119.564 170.203 138.535 164.668 157.505C161.344 168.9 157.281 177.912 152.25 185.054C147.14 192.308 141.023 197.736 133.651 201.538C142.458 201.085 151.254 200.116 159.96 198.63C192.624 193.053 217.471 181.959 233.812 165.658C244.41 155.086 249.393 142.77 248.621 129.049C247.892 116.093 245.3 103.322 240.914 91.0891C224.013 43.9339 181.28 8.31941 133.46 0.919014Z" fill="white"/>
<path d="M48.9077 166.974L48.7542 166.644C41.4364 150.967 40.273 132.766 45.4785 115.396C47.2851 109.368 49.7903 103.654 52.9568 98.332C53.571 95.4243 54.2405 92.543 54.9626 89.6934C58.3116 76.4984 62.7936 64.1105 68.2855 52.8752C74.1453 40.8853 81.1643 30.1958 89.1489 21.1025C100.697 7.95317 112.646 1.03232 124.662 0.534813C137.485 0.00414011 152.157 5.2625 162.075 9.26327C173.998 14.0725 185.271 20.6216 195.581 28.7282C205.682 36.6703 214.666 46.0206 222.278 56.518C229.918 67.0513 236.001 78.4953 240.358 90.5336C245.02 103.413 247.709 116.977 248.364 130.892C248.433 131.825 248.467 132.765 248.467 133.709L248.339 133.713C248.314 132.793 248.279 131.874 248.238 130.956C246.157 102.499 212.653 86.5052 197.991 80.8433C174.877 71.9186 148.545 67.8432 119.729 68.7276C104.836 69.1851 90.2293 71.0756 76.313 74.3467C66.6158 80.4605 58.7792 88.7204 53.0896 98.1827C48.0445 122.201 47.1233 146.283 48.8759 166.613L48.9077 166.974ZM52.9332 98.4425C40.8982 118.641 38.595 144.266 48.7168 166.258C47.678 153.967 47.6489 141.297 48.6325 128.596C49.4265 118.346 50.8693 108.239 52.9332 98.4425ZM127.232 68.483C138.333 68.483 149.158 69.25 159.509 70.7715C173.175 72.7809 186.139 76.1294 198.039 80.723C207.461 84.3604 220.936 90.7022 231.623 100.253C241.14 108.759 246.664 118.194 248.095 128.359C247.249 115.347 244.613 102.659 240.239 90.5764C231.569 66.6229 215.681 44.694 195.504 28.8291C185.203 20.7294 173.94 14.1872 162.028 9.38212C152.12 5.38687 137.465 0.135426 124.667 0.663335C112.688 1.15946 100.77 8.06373 89.2457 21.1882C70.2443 42.8256 58.9397 70.4026 53.1131 98.0708C54.336 96.0352 55.6543 94.0576 57.0694 92.1408C62.398 84.9228 68.8527 78.8975 76.2549 74.232L76.2742 74.2237C90.2016 70.9484 104.821 69.0565 119.726 68.5991C122.24 68.5217 124.743 68.483 127.232 68.483Z" fill="white"/>
<path d="M120.398 201.997C117.327 201.997 114.277 201.939 111.256 201.821C100.878 201.419 90.7896 200.322 81.2694 198.56C59.8997 194.603 41.3548 187.347 26.1478 176.989C19.8688 172.712 11.1912 165.528 5.51258 155.591C0.146634 146.203 -1.3114 136.551 1.17998 126.903C3.43067 118.184 8.60295 109.996 16.553 102.565C22.9232 96.6101 31.0807 91.1278 40.7959 86.2702C57.638 77.85 76.7667 72.2309 97.6523 69.5692C116.954 67.1094 136.951 67.2489 157.087 69.9811C167.375 71.3769 193.722 75.9415 216.124 88.1359C226.5 93.7853 234.551 100.316 240.05 107.55C246.408 115.911 249.403 125.291 248.954 135.431C248.694 140.507 247.379 145.565 245.045 150.465C238.152 164.941 223.522 177.131 201.563 186.696C183.756 194.451 163.314 199.317 140.801 201.157C133.959 201.716 127.128 201.997 120.396 201.997H120.398ZM125.275 67.9372C94.353 67.9372 65.1564 74.2347 40.854 86.3863C25.6221 94.0023 6.39515 107.219 1.30587 126.936C-3.2287 144.498 6.08529 163.169 26.2197 176.883C64.4412 202.916 114.41 203.185 140.793 201.03C163.291 199.192 183.72 194.328 201.513 186.58C223.443 177.028 238.051 164.86 244.93 150.411C247.256 145.527 248.567 140.486 248.827 135.427C249.668 116.416 238.644 100.543 216.063 88.2506C193.679 76.0658 167.352 71.5054 157.071 70.1096C146.358 68.6558 135.717 67.9372 125.275 67.9372Z" fill="white"/>
<path d="M95.5178 240.801C89.6428 240.801 83.9642 239.08 78.6259 235.682C69.2275 229.7 61.8253 219.773 56.6226 206.177C54.7758 201.35 53.1906 196.01 51.8764 190.194C30.5302 182.39 15.3301 171.494 6.55423 157.671C0.730398 148.499 -1.09145 138.818 1.1371 128.901C2.72655 121.827 6.32183 114.866 11.8206 108.213C16.7688 102.226 23.1777 96.6653 30.3559 92.1297C42.3466 84.5538 56.3916 78.7676 73.2918 74.4393L73.6473 74.3481L73.3443 74.554C43.3302 94.9904 32.2635 137.57 48.6726 169.471L48.6795 169.493C49.4583 176.913 50.5636 183.785 51.9898 190.097C58.5399 192.488 65.6724 194.59 73.372 196.394L73.3928 196.404C88.81 206.748 107.428 209.707 124.472 204.522C140.634 199.606 153.142 188.09 159.691 172.101L160.342 170.423L160.463 170.469C154.677 186.483 147.896 199.826 139.735 211.26C135.165 217.66 125.618 229.393 113.006 236.061C107.307 239.075 101.657 240.667 96.2164 240.793C95.984 240.798 95.7488 240.801 95.5178 240.801ZM52.0216 190.248C57.0224 212.262 65.9573 227.466 78.6937 235.574C100.758 249.619 124.637 232.184 139.628 211.186C147.166 200.627 153.524 188.439 159.009 174.016C155.704 181.385 151.096 187.754 145.289 192.969C139.304 198.343 132.313 202.271 124.51 204.645C116.304 207.141 107.385 207.768 98.7202 206.457C89.6663 205.087 81.1242 201.743 73.3305 196.516C65.6585 194.718 58.5537 192.626 52.023 190.245L52.0216 190.248ZM72.9681 74.6548C56.2394 78.9693 42.3189 84.7224 30.4236 92.2389C14.9317 102.027 4.30217 115.401 1.2616 128.93C-0.960035 138.814 0.857665 148.46 6.66213 157.603C15.4117 171.385 30.5648 182.253 51.8418 190.046C50.4253 183.745 49.3241 176.887 48.5508 169.521C40.4999 153.862 38.6614 135.378 43.373 117.471C45.6569 108.789 49.3601 100.68 54.3788 93.3666C59.482 85.9289 65.7346 79.6354 72.9681 74.6548Z" fill="white"/>
<path d="M48.7127 169.833L48.5564 169.531C40.4999 153.87 38.66 135.381 43.373 117.469C45.6306 108.887 49.2757 100.864 54.2073 93.6167C55.1922 89.4985 56.2781 85.4521 57.4637 81.49C61.622 67.5917 67.0446 54.5916 73.5781 42.8532C81.0191 29.4855 89.1572 19.0932 97.7685 11.9664C109.034 2.64231 121.147 -1.10557 133.771 0.82503C147.191 2.92837 160.279 7.1779 172.668 13.4548C195.08 24.8089 214.096 42.2686 227.659 63.9461C240.159 83.9209 247.393 106.463 248.739 129.488C248.974 131.462 249.047 133.445 248.954 135.432L248.826 135.429C248.797 133.437 248.723 131.451 248.607 129.469C246.731 113.88 235.026 102.387 227.661 96.5907C200.604 75.3002 164.272 67.6787 130.051 67.6787C109.577 67.6787 89.8669 70.4039 73.3319 74.5623C65.6973 79.7626 59.2897 86.3946 54.2488 93.9194C52.0687 103.1 50.3948 112.659 49.2342 122.566C47.3404 138.735 47.1523 154.525 48.6767 169.495L48.7127 169.833ZM54.0731 94.1847C39.5163 116.116 36.5131 145.533 48.5163 169.167C47.0292 154.289 47.227 138.608 49.1083 122.551C50.2482 112.823 51.911 103.326 54.0731 94.1847ZM130.051 67.4866C137.975 67.4866 145.799 67.8985 153.394 68.7318C167.642 70.2948 181.009 73.3019 193.123 77.6703C206.231 82.398 217.878 88.7287 227.74 96.4884C234.309 101.657 239.485 107.388 243.126 113.521C245.896 118.185 247.691 122.968 248.499 127.815C245.064 79.7667 215.9 35.5012 172.608 13.5695C160.23 7.29951 147.156 3.05413 133.75 0.95217C105.797 -3.32223 85.6588 21.4121 73.6902 42.9154C65.2601 58.0617 58.8013 74.9478 54.3816 93.3597C59.5553 85.8211 65.9089 79.4586 73.2682 74.449L73.289 74.4393C91.5421 69.8484 111.079 67.4866 130.051 67.4866Z" fill="white"/>
<path d="M95.9079 240.789C88.7809 240.789 82.0275 238.315 75.7638 233.399C67.4403 226.867 62.0964 217.682 59.0794 211.128C51.7754 195.257 47.7859 176.596 47.2242 155.664C46.7484 137.925 48.7099 118.815 53.055 98.8654C57.7348 77.3759 64.8949 58.0782 74.3362 41.5085C86.0668 20.9201 98.6566 8.20192 112.826 2.62848C117.257 0.885827 121.706 0.00137329 126.052 0.00137329C126.138 0.00137329 126.222 0.00137329 126.307 0.00137329C135.329 0.135423 143.526 4.0132 150.675 11.5297C157.809 19.0296 162.388 28.6149 164.972 35.3353C168.357 44.137 170.833 53.9102 172.333 64.3841C173.654 73.6129 174.258 83.6915 174.128 94.3381C173.618 136.105 162.694 175.719 143.369 205.884C137.744 214.664 131.863 221.881 125.89 227.334C118.199 234.356 110.113 238.695 101.86 240.229C99.849 240.603 97.8639 240.79 95.9065 240.79L95.9079 240.789ZM126.051 0.128514C121.721 0.128514 117.289 1.00882 112.872 2.74595C98.7299 8.30972 86.1609 21.0085 74.4455 41.5707C65.0111 58.1294 57.8565 77.4146 53.1781 98.8917C46.4938 129.584 42.1114 173.96 59.1942 211.074C62.8697 219.06 76.8082 244.755 101.835 240.102C116.49 237.378 130.428 225.841 143.258 205.814C162.571 175.669 173.488 136.079 173.997 94.3353C174.276 71.3976 171.284 52.1137 164.849 35.3795C159.841 22.3546 148.172 0.453274 126.304 0.129896C126.219 0.129896 126.135 0.128514 126.051 0.128514Z" fill="white"/>
<path d="M120.683 201.595C112.477 201.595 104.366 201.146 96.381 200.246C75.3183 197.873 56.1232 192.435 39.3282 184.081C24.0313 176.472 4.99107 163.178 1.14817 143.054C-0.644633 133.662 1.29895 124.305 6.92497 115.24C11.5467 107.793 18.6432 100.667 27.4467 94.6352C42.7229 84.1669 61.2886 76.7085 82.6265 72.4686C92.1729 70.5712 102.281 69.3288 112.671 68.7746C122.364 68.2578 132.353 68.3352 142.36 69.0068C164.774 70.509 185.091 75.0957 202.745 82.6371C224.703 92.0178 239.023 104.167 245.305 118.746C247.398 123.603 248.462 128.638 248.469 133.713C248.415 142.954 244.961 151.88 238.202 160.241C232.704 167.042 225.203 173.299 215.907 178.842C199.518 188.614 179.321 195.366 155.878 198.911C144.041 200.701 132.27 201.598 120.682 201.598L120.683 201.595ZM125.705 68.5784C98.0756 68.5784 58.9826 73.1789 27.52 94.7403C18.0912 101.202 -3.34213 118.843 1.27543 143.029C5.10865 163.102 24.1157 176.37 39.3863 183.965C71.6262 200.001 112.991 205.263 155.86 198.781C179.287 195.239 199.467 188.492 215.841 178.729C227.924 171.525 248.21 156.095 248.342 133.71C248.336 128.654 247.275 123.636 245.189 118.795C238.92 104.247 224.623 92.1201 202.697 82.7532C185.057 75.2173 164.754 70.6347 142.353 69.1326C137.527 68.8092 131.902 68.577 125.706 68.577L125.705 68.5784Z" fill="white"/>
<path d="M96.8319 239.911C93.5396 239.911 90.2805 239.385 87.0974 238.336C80.9112 236.297 75.1413 232.378 69.9482 226.688C65.1467 221.426 61.005 214.744 57.9741 207.366C55.7193 201.879 53.8587 196.032 52.373 189.746C43.676 186.511 35.9113 182.692 28.9047 178.219C21.9037 173.748 15.7479 168.23 11.1012 162.26C6.09634 155.83 2.89669 149.062 1.59221 142.147C0.640478 137.097 0.735928 132.042 1.87856 127.12C3.10004 121.858 5.52779 116.709 9.09679 111.814C16.0978 102.214 26.2543 93.9719 39.2839 87.3205C49.6589 82.0235 62.1034 77.6178 76.2715 74.2223L76.6505 74.1311L76.3213 74.3384C46.4592 93.1579 34.1379 133.098 48.2659 165.262L48.8745 166.609C49.6174 174.922 50.8112 182.564 52.4809 189.646C58.1899 191.766 64.3015 193.636 70.8626 195.274L70.8848 195.285C86.3532 206.517 105.328 210.119 122.947 205.164C139.45 200.522 152.247 189.041 158.98 172.833L159.1 172.88C153.997 186.462 148.527 197.67 142.377 207.143C134.59 219.137 125.681 228.217 115.897 234.13C110.912 237.143 105.855 238.999 100.866 239.647C99.517 239.823 98.171 239.91 96.8292 239.91L96.8319 239.911ZM52.5182 189.8C53.9984 196.048 55.8521 201.862 58.0931 207.318C64.5339 222.993 75.1205 234.255 87.1375 238.214C96.482 241.293 106.136 239.883 115.832 234.023C132.919 223.695 146.748 204.453 158.064 175.242C154.68 182.515 150.022 188.772 144.192 193.864C138.073 199.21 130.938 203.053 122.984 205.29C114.528 207.669 105.373 208.073 96.511 206.461C87.2565 204.777 78.6148 201.054 70.8211 195.398C64.2904 193.767 58.2051 191.909 52.5182 189.8ZM75.9256 74.4393C44.185 82.1009 21.7349 94.7002 9.20054 111.892C2.24929 121.425 -0.266988 131.596 1.71809 142.124C4.25098 155.551 14.1847 168.668 28.9725 178.111C35.9487 182.565 43.6801 186.371 52.3356 189.595C50.6756 182.533 49.4874 174.917 48.7473 166.634L48.1483 165.316C34.0424 133.211 46.2462 93.3777 75.9242 74.4379L75.9256 74.4393Z" fill="white"/>
<path d="M108.25 207.821C106.034 207.821 103.798 207.693 101.549 207.439C90.5903 206.197 79.9608 202.031 70.8101 195.391L70.5445 195.198L70.864 195.276C88.8473 199.702 110.841 202.36 133.613 201.516C133.669 201.487 133.725 201.457 133.782 201.426C153.201 191.045 160.713 170.911 165.938 150.699C170.512 133.001 173.052 114.927 173.488 96.9777C174.055 73.5908 171.239 53.9075 164.878 36.8016C160.42 24.8117 150.602 5.49468 132.713 1.41237C132.508 1.38197 132.296 1.35157 132.092 1.32255C130.022 1.04201 128.106 0.819512 126.233 0.642621L126.24 0.514099C128.423 0.545884 130.556 0.798783 132.637 1.27141C159.562 5.2252 185.54 18.1341 205.844 37.6584C215.046 46.5071 223.003 56.5636 229.492 67.5488C236.048 78.6446 240.978 90.4755 244.149 102.714C247.332 115.001 250.237 129.199 247.637 141.34C246.337 147.415 243.496 153.352 239.191 158.988C235.521 163.793 230.765 168.413 225.057 172.72C215.045 180.274 203.353 186.493 190.305 191.202C178.151 195.59 164.838 198.669 150.736 200.357C145.085 201.032 139.342 201.481 133.533 201.704C125.85 205.745 117.224 207.821 108.25 207.821ZM71.1545 195.481C90.0979 209.086 114.359 211.513 133.234 201.716C125.503 202.001 117.659 201.885 109.773 201.364C96.5456 200.491 83.5547 198.512 71.1545 195.481ZM133.965 1.60308C140.085 3.28493 145.731 6.89875 150.821 12.4086C157.907 20.0799 162.442 29.8835 164.997 36.756C168.342 45.7526 170.749 55.74 172.152 66.4391C173.386 75.8599 173.878 86.1348 173.615 96.979C173.179 114.939 170.638 133.023 166.061 150.729C163.708 159.832 160.594 170.408 155.334 179.816C149.861 189.61 142.851 196.704 133.907 201.502C165.704 200.283 198.986 192.226 224.978 172.615C237.509 163.161 245.089 152.629 247.512 141.311C250.104 129.197 247.203 115.016 244.023 102.743C237.658 78.1775 224.425 55.7027 205.753 37.7482C185.807 18.568 160.38 5.77798 133.962 1.60032L133.965 1.60308ZM128.956 0.797401C129.326 0.840242 129.7 0.884464 130.079 0.931451C129.708 0.880319 129.333 0.836096 128.956 0.797401Z" fill="white"/>
<path d="M95.8844 240.31C92.9559 240.31 90.0647 239.894 87.2136 239.06C79.0271 236.663 71.8655 231.087 65.9283 222.489C61.337 215.84 57.4747 207.396 54.4508 197.394C49.2633 180.238 47.043 161.185 47.8536 140.764C48.584 122.373 51.7228 103.379 57.1856 84.3092C60.1183 74.0703 63.5988 64.4629 67.5302 55.7552C71.9015 46.0732 76.9645 37.2065 82.5767 29.4026C88.7602 20.804 95.2536 13.9979 101.877 9.17346C110.402 2.96017 119.127 0.0677232 127.808 0.572139C132.142 0.85544 136.344 2.04945 140.296 4.12239C147.776 8.04578 154.161 14.6875 159.274 23.8651C163.225 30.9559 166.499 39.73 169.007 49.9427C173.352 67.6359 174.686 87.6204 172.972 109.341C171.371 129.614 167.634 148.715 161.861 166.114C155.285 185.939 146.195 203.049 134.842 216.969C130.291 222.551 122.966 230.253 113.919 235.25C107.818 238.619 101.78 240.31 95.8844 240.31ZM125.881 0.644C107.376 0.644 92.2421 16.1828 82.6818 29.4758C72.0316 44.2849 63.495 62.7451 57.3101 84.3438C45.733 124.767 44.7605 164.904 54.5753 197.356C59.4211 213.379 69.0228 233.598 87.251 238.935C107.979 245.005 125.904 227.726 134.744 216.888C161.839 183.661 170.42 140.059 172.845 109.331C174.559 87.6245 173.225 67.6539 168.884 49.9731C163.139 26.5806 153.502 11.1925 140.238 4.23571C136.301 2.17107 132.117 0.981199 127.801 0.700661C127.157 0.663348 126.516 0.645382 125.881 0.645382V0.644Z" fill="white"/>
<path d="M248.827 135.429L248.762 132.237L248.621 129.047L248.404 125.862L248.111 122.682L247.741 119.508L247.297 116.344L246.778 113.189L246.185 110.048L245.518 106.921L244.777 103.81L243.962 100.716L243.075 97.6424L242.117 94.5882L241.086 91.5576L239.985 88.5518L238.815 85.5723L237.575 82.6205L236.268 79.6976L234.893 76.8052L233.451 73.9473L231.945 71.1226L230.375 68.3338L228.74 65.5823L227.044 62.8695L225.287 60.1968L223.471 57.5669L221.595 54.9785L219.662 52.4371L217.674 49.9399L215.631 47.4911L213.535 45.0906L211.387 42.7399L209.189 40.4403L206.941 38.1946L204.648 36.0014L202.307 33.8635L199.922 31.7809L197.494 29.7564L195.025 27.7898L192.517 25.8827L189.97 24.035L187.388 22.2495L184.77 20.5262L182.121 18.8651L179.44 17.269L176.729 15.7364L173.992 14.2701L171.228 12.8702L168.439 11.5366L165.629 10.2707L162.798 9.07256L159.948 7.9435L157.082 6.88354L154.199 5.89405L151.303 4.97505L148.397 4.12653L145.48 3.34848L142.555 2.64092L139.624 2.0066L136.689 1.44276L133.752 0.952164L130.812 0.53343L127.874 0.186558L127.889 0.0594177L130.829 0.40629L133.771 0.825024L136.712 1.317L139.65 1.88084L142.584 2.51654L145.511 3.22272L148.432 4.00215L151.341 4.85205L154.24 5.77244L157.125 6.76331L159.994 7.82327L162.846 8.95371L165.68 10.1519L168.493 11.4191L171.284 12.7541L174.051 14.1554L176.791 15.6244L179.504 17.157L182.188 18.756L184.841 20.4171L187.46 22.1431L190.045 23.93L192.593 25.7791L195.104 27.6889L197.575 29.6569L200.005 31.6828L202.393 33.7668L204.735 35.9075L207.031 38.102L209.282 40.3505L211.481 42.6514L213.631 45.0049L215.729 47.4067L217.774 49.8583L219.765 52.3569L221.699 54.9025L223.576 57.4923L225.393 60.1249L227.153 62.8004L228.85 65.5146L230.485 68.2688L232.058 71.0604L233.566 73.8879L235.009 76.7499L236.385 79.6437L237.694 82.5693L238.935 85.524L240.107 88.5062L241.208 91.5148L242.238 94.5482L243.198 97.6051L244.086 100.681L244.901 103.778L245.644 106.893L246.312 110.023L246.906 113.167L247.424 116.325L247.87 119.493L248.238 122.668L248.531 125.852L248.75 129.04L248.891 132.233L248.956 135.427L248.827 135.429Z" fill="white"/>
<path d="M248.342 133.712L248.235 130.532L248.054 127.356L247.797 124.186L247.465 121.021L247.056 117.863L246.574 114.717L246.016 111.582L245.385 108.46L244.681 105.352L243.902 102.264L243.053 99.1916L242.13 96.1402L241.137 93.1123L240.072 90.1066L238.938 87.1271L237.734 84.1738L236.463 81.2496L235.122 78.3544L233.717 75.4923L232.246 72.6648L230.71 69.8705L229.11 67.1135L227.449 64.3938L225.725 61.7142L223.942 59.076L222.101 56.4807L220.2 53.9282L218.244 51.4214L216.234 48.9615L214.169 46.5486L212.051 44.1868L209.883 41.8734L207.666 39.6139L205.401 37.4055L203.089 35.2524L200.733 33.1546L198.331 31.1135L195.89 29.1303L193.408 27.2053L190.888 25.3396L188.33 23.5334L185.736 21.7908L183.11 20.1089L180.452 18.492L177.764 16.9387L175.047 15.4489L172.302 14.0269L169.534 12.6698L166.743 11.3804L163.931 10.1574L161.097 9.00486L158.248 7.92002L155.382 6.90428L152.501 5.95764L149.609 5.08286L146.705 4.27718L143.792 3.54336L140.873 2.88001L137.949 2.28992L135.02 1.7703L132.09 1.32255L129.16 0.946653L126.233 0.642621L126.246 0.514099L129.176 0.81813L132.108 1.19402L135.041 1.64316L137.972 2.16278L140.901 2.75426L143.822 3.4176L146.737 4.1528L149.643 4.95848L152.54 5.83464L155.423 6.78267L158.292 7.79841L161.144 8.88463L163.98 10.0399L166.795 11.263L169.59 12.5537L172.361 13.9108L175.108 15.3356L177.826 16.8254L180.518 18.3815L183.178 19.9997L185.808 21.683L188.403 23.4284L190.962 25.2346L193.485 27.1016L195.97 29.0295L198.414 31.0153L200.817 33.0579L203.176 35.1571L205.49 37.3129L207.757 39.5227L209.978 41.785L212.147 44.0997L214.266 46.4643L216.333 48.8785L218.345 51.3412L220.304 53.8508L222.205 56.4047L224.049 59.0028L225.833 61.6437L227.558 64.3261L229.221 67.0472L230.822 69.807L232.36 72.604L233.832 75.4343L235.24 78.2991L236.58 81.1971L237.853 84.1241L239.058 87.0787L240.194 90.0623L241.259 93.0695L242.253 96.1015L243.176 99.1556L244.028 102.23L244.806 105.323L245.511 108.433L246.143 111.557L246.701 114.696L247.184 117.845L247.592 121.006L247.925 124.173L248.182 127.348L248.364 130.526L248.47 133.707L248.342 133.712Z" fill="white"/>
<path d="M206.575 184.381L206.46 184.323C211.732 173.994 215.204 162.973 216.778 151.565C219.604 131.089 216.346 109.902 207.356 90.2959C198.514 71.0148 184.581 54.1963 167.061 41.6619L167.136 41.5569C184.674 54.1051 198.622 70.9402 207.472 90.242C211.875 99.8438 214.928 109.942 216.547 120.253C218.2 130.783 218.32 141.323 216.904 151.583C215.327 163.005 211.853 174.04 206.575 184.381Z" fill="white"/>
<path d="M207.748 85.014C202.043 74.735 194.73 65.5422 186.011 57.6941C171.229 44.3872 152.381 35.2911 132.94 32.085C113.609 28.8968 93.4317 31.5377 76.1276 39.5227L76.0736 39.4052C84.8205 35.3699 94.1995 32.6861 103.953 31.4313C113.574 30.1931 123.334 30.3699 132.96 31.9578C142.739 33.5706 152.294 36.6109 161.356 40.9917C170.375 45.3518 178.7 50.939 186.097 57.5987C194.826 65.4579 202.148 74.6604 207.86 84.9518L207.746 85.014H207.748Z" fill="white"/>
<path d="M139.98 201.22L139.931 201.101C147.106 198.169 153.603 194.004 159.24 188.719C179.94 169.312 185.555 136.911 173.546 106.169L173.666 106.122C176.4 113.118 178.258 120.398 179.19 127.762C180.145 135.301 180.103 142.75 179.068 149.903C176.833 165.346 170.008 178.801 159.328 188.812C153.68 194.107 147.17 198.282 139.98 201.22Z" fill="white"/>
<path d="M52.7216 103.355L52.6068 103.296C58.8013 91.3116 68.0226 81.3477 79.2719 74.4807C85.158 70.8876 91.5518 68.1748 98.2789 66.417C105.024 64.6536 111.93 63.8963 118.803 64.1658C126.619 64.4726 134.329 66.0867 141.714 68.9653L141.667 69.0855C134.294 66.2124 126.6 64.6011 118.798 64.2943C105.108 63.7581 91.0939 67.4147 79.3383 74.5899C68.1084 81.4444 58.9051 91.3918 52.7216 103.355Z" fill="white"/>
<path d="M108.099 208.111C103.014 208.111 97.8625 207.447 92.7788 206.108C85.2617 204.129 78.0781 200.746 71.4256 196.055L71.5003 195.949C78.139 200.633 85.3088 204.009 92.812 205.984C106.366 209.553 120.405 208.311 132.343 202.488C144.477 196.57 154.182 185.829 159.671 172.246L159.79 172.294C154.287 185.907 144.56 196.671 132.399 202.604C124.911 206.256 116.6 208.111 108.099 208.111Z" fill="white"/>
<path d="M49.0212 169.43C42.8557 157.545 40.2868 143.834 41.5913 129.783C42.2221 122.983 43.7521 116.297 46.1383 109.911C48.5578 103.436 51.8114 97.3936 55.8106 91.9542C60.6979 85.3042 66.6089 79.5802 73.3789 74.9395L73.4522 75.046C66.6946 79.6783 60.7947 85.3927 55.9143 92.0316C39.4693 114.406 36.7455 145.487 49.136 169.372L49.0212 169.431V169.43Z" fill="white"/>
<path d="M95.9259 235.24C87.7517 235.24 79.5776 233.835 71.6027 231.054C62.6263 227.925 54.1174 223.214 46.3112 217.055C38.7804 211.112 32.1279 204.004 26.5379 195.927C20.0486 186.552 15.142 176.06 11.952 164.743L12.0765 164.709C15.2623 176.012 20.1635 186.491 26.6444 195.854C38.0527 212.335 54.0344 224.794 71.6456 230.932C89.1669 237.041 107.455 236.477 123.139 229.343L123.193 229.461C115.251 233.073 106.634 235.011 97.5817 235.221C97.0311 235.233 96.4764 235.24 95.9259 235.24Z" fill="white"/>
<path d="M69.9524 227.435C61.7368 224.953 53.8739 220.863 46.581 215.282C39.7252 210.033 33.5707 203.629 28.2906 196.245C22.5677 188.244 18.0331 179.338 14.8155 169.774C11.6435 160.347 9.82582 150.518 9.41497 140.556C8.94048 129.092 10.3446 117.602 13.5885 106.407L13.713 106.443C10.4732 117.624 9.0719 129.1 9.545 140.551C10.3736 160.58 17.0689 180.332 28.3971 196.169C39.3268 211.45 54.0994 222.509 69.9911 227.31L69.9538 227.433L69.9524 227.435Z" fill="white"/>
<path d="M68.706 226.746C60.5637 224.1 52.8046 219.886 45.6445 214.225C38.8966 208.887 32.8625 202.418 27.7082 194.995C22.0711 186.876 17.6486 177.864 14.5637 168.207C11.5218 158.688 9.85486 148.785 9.61001 138.774C9.33058 127.428 10.9048 116.046 14.2898 104.946L14.4129 104.983C11.0335 116.071 9.46061 127.437 9.73866 138.771C10.2339 158.906 16.6526 178.848 27.8147 194.923C38.4539 210.246 52.99 221.505 68.7461 226.625L68.706 226.746Z" fill="white"/>
<path d="M96.2758 234.071C88.6717 234.071 81.0495 232.835 73.5753 230.389C56.0195 224.642 39.9894 212.547 28.4386 196.332C21.941 187.211 16.9652 176.953 13.6493 165.842L13.7725 165.805C17.0842 176.903 22.0545 187.148 28.5437 196.258C40.0793 212.45 56.0859 224.528 73.6168 230.266C90.9929 235.954 109.018 235.049 124.37 227.717L124.425 227.833C116.647 231.547 108.186 233.624 99.2763 234.006C98.2775 234.049 97.2774 234.069 96.2786 234.069L96.2758 234.071Z" fill="white"/>
<path d="M48.4084 167.991C42.7754 156.366 40.4514 143.127 41.6867 129.705C42.3411 122.601 43.9941 115.619 46.6017 108.956C49.2287 102.246 52.7645 96.0034 57.1151 90.4051C62.0757 84.0204 68.0448 78.5202 74.8591 74.0565L74.9296 74.1643C68.1278 78.6197 62.1684 84.1116 57.216 90.4838C48.4665 101.745 43.1406 115.312 41.814 129.716C40.5801 143.114 42.8999 156.33 48.5232 167.933L48.407 167.99L48.4084 167.991Z" fill="white"/>
<path d="M107.928 207.007C103.569 207.007 99.1919 206.495 94.8455 205.473C87.2786 203.694 80.0729 200.514 73.4287 196.019L73.5006 195.912C80.1323 200.398 87.3243 203.572 94.8759 205.347C122.457 211.828 149.807 197.097 159.906 170.316L160.027 170.361C157.556 176.912 154.024 182.85 149.527 188.013C145.138 193.053 139.959 197.21 134.134 200.37C128.288 203.542 121.981 205.605 115.392 206.501C112.917 206.838 110.426 207.005 107.93 207.005L107.928 207.007Z" fill="white"/>
<path d="M52.6165 101.533L52.503 101.472C59.0102 89.4017 68.7973 79.4046 80.8033 72.5584C92.9157 65.6528 106.518 62.4093 120.14 63.1804C128.278 63.6406 136.171 65.4579 143.598 68.5811L143.548 68.7C136.135 65.5823 128.257 63.7678 120.133 63.309C92.4814 61.746 65.9781 76.7485 52.6165 101.533Z" fill="white"/>
<path d="M141.68 200.569L141.627 200.452C148.717 197.316 155.066 193.025 160.501 187.695C170.416 177.974 177.108 164.651 179.346 150.179C181.604 135.58 179.471 119.792 173.177 104.52L173.296 104.472C179.6 119.765 181.735 135.577 179.474 150.198C178.37 157.336 176.212 164.174 173.059 170.521C169.821 177.041 165.627 182.85 160.591 187.788C155.145 193.128 148.783 197.428 141.68 200.569Z" fill="white"/>
<path d="M209.755 85.4438C204.109 74.9893 196.879 65.6376 188.265 57.6471C173.305 43.7708 154.121 34.2077 134.246 30.7196C114.487 27.2522 94.62 29.6251 76.7874 37.5796L76.7349 37.4622C85.6214 33.4987 95.1249 30.902 104.983 29.7453C114.71 28.6038 124.562 28.8899 134.268 30.5924C144.269 32.3475 154.02 35.5744 163.249 40.1846C172.426 44.7686 180.871 50.6115 188.353 57.5517C196.977 65.5519 204.216 74.9147 209.87 85.3816L209.756 85.4424L209.755 85.4438Z" fill="white"/>
<path d="M207.767 183.255L207.651 183.198C212.837 172.709 216.18 161.461 217.591 149.769C220.047 129.412 216.522 108.413 207.398 89.0397C198.236 69.5858 183.986 52.8019 166.191 40.4997L166.264 40.3933C175.082 46.4878 183.097 53.7513 190.088 61.9809C197.099 70.2326 202.961 79.319 207.514 88.9844C211.983 98.4729 215.135 108.463 216.883 118.677C218.669 129.112 218.95 139.578 217.72 149.782C216.308 161.49 212.96 172.753 207.767 183.255Z" fill="white"/>
<path d="M100.109 202.203C76.8801 202.203 56.2906 198.56 38.8966 191.371C25.5294 185.846 8.38161 175.644 2.60758 158.414C-0.0816219 150.388 0.138328 141.908 3.26051 133.211C5.90268 125.855 10.6696 118.394 17.0454 111.636C23.4904 104.805 31.4003 98.5186 40.5538 92.9506C48.4927 88.1221 57.6006 83.6957 67.627 79.793C78.7241 75.473 90.4714 72.0361 102.541 69.5775C114.284 67.1854 126.437 65.6984 138.66 65.1553C162.712 64.0884 184.452 66.8717 203.279 73.4291C222.4 80.0874 235.634 89.627 242.619 101.78C245.204 106.28 246.816 111.057 247.411 115.98C248.419 123.976 246.724 132.198 242.375 140.418C238.767 147.235 233.449 153.892 226.566 160.205C219.417 166.761 210.922 172.728 201.316 177.943C192.867 182.528 183.321 186.659 172.944 190.216C161.5 194.141 149.516 197.149 137.328 199.158C125.29 201.143 112.975 202.167 100.727 202.2C100.523 202.2 100.314 202.2 100.11 202.2L100.109 202.203ZM148.535 65.0613C145.29 65.0613 142.002 65.1345 138.665 65.2838C113.642 66.3935 89.7576 71.3161 67.674 79.9132C46.1521 88.2921 29.151 98.9953 17.1395 111.725C3.05163 126.657 -2.19951 143.659 2.73069 158.373C8.48951 175.556 25.6027 185.737 38.9464 191.252C56.4787 198.498 77.2605 202.142 100.726 202.073C125.64 202.004 149.923 197.974 172.903 190.094C195.033 182.506 213.06 172.417 226.479 160.11C235.306 152.016 249.746 135.521 247.283 115.995C246.691 111.089 245.085 106.327 242.508 101.844C235.54 89.7182 222.328 80.1979 203.238 73.5493C187.038 67.9068 168.671 65.0613 148.535 65.0613Z" fill="white"/>
<path d="M100.646 201.708C94.833 201.708 89.0687 201.47 83.3901 200.995C72.9515 200.122 63.2142 198.494 54.4521 196.157C44.3732 193.469 35.2515 189.757 27.3388 185.126C19.3016 180.42 12.6824 174.495 8.19625 167.99C2.95756 160.393 0.659848 152.201 1.36673 143.638C2.00721 135.881 5.01181 128.123 10.2975 120.577C14.6191 114.407 20.4706 108.358 27.6902 102.599C42.6302 90.6828 61.7534 81.2579 84.5286 74.5871C96.15 71.1834 108.137 68.6958 120.155 67.1923C132.267 65.6776 144.497 65.1511 156.505 65.6307C179.454 66.5469 199.282 71.0493 215.435 79.0136C226.338 84.3894 244.936 96.4484 246.973 116.803C247.438 121.658 246.937 126.61 245.485 131.524C241.545 144.856 231.21 157.459 214.764 168.982C198.335 180.494 178.187 189.244 154.878 194.992C143.121 197.891 131.176 199.877 119.373 200.896C113.107 201.436 106.847 201.707 100.644 201.707L100.646 201.708ZM147.7 65.5837C126.471 65.5837 105.276 68.6447 84.5659 74.7101C61.806 81.3767 42.698 90.7934 27.7718 102.699C16.5917 111.617 2.95756 125.96 1.49676 143.648C0.185364 159.529 9.62938 174.606 27.4066 185.014C42.1723 193.66 61.0133 198.993 83.4025 200.866C106.745 202.819 130.783 200.802 154.85 194.866C178.144 189.121 198.279 180.378 214.693 168.875C231.115 157.369 241.433 144.789 245.365 131.487C246.812 126.589 247.311 121.653 246.848 116.816C244.817 96.523 226.261 84.493 215.381 79.1283C199.244 71.1709 179.435 66.6727 156.502 65.7578C153.569 65.6403 150.635 65.5823 147.701 65.5823L147.7 65.5837Z" fill="white"/>
<path d="M82.3692 205.112C67.9549 205.112 54.7413 203.3 42.8833 199.684C29.8841 195.72 12.9162 187.645 5.89576 171.686C2.91745 164.915 2.15246 157.445 3.62295 149.482C4.89008 142.624 7.87393 135.403 12.2508 128.602C17.4549 120.517 24.3826 112.776 32.8376 105.596C40.0682 99.4555 48.6435 93.5379 58.3255 88.0073C69.1694 81.812 80.8614 76.4859 93.0776 72.1742C104.959 67.9814 117.392 64.7269 130.036 62.5033C155.02 58.1073 177.796 58.2482 197.727 62.922C206.622 65.0074 214.446 67.9164 220.983 71.5662C228.94 76.0092 235.034 81.5854 239.097 88.1414C240.898 91.0477 242.303 94.2497 243.276 97.6603C245.217 104.889 244.927 112.617 242.415 120.629C240.273 127.461 236.579 134.364 231.436 141.144C225.386 149.119 217.727 156.671 208.668 163.592C200.796 169.607 191.646 175.311 181.47 180.549C170.18 186.36 158.183 191.251 145.81 195.089C133.553 198.89 120.894 201.665 108.188 203.339C99.2099 204.52 90.5917 205.112 82.3664 205.112H82.3692ZM164.73 59.4367C153.74 59.4367 142.161 60.5008 130.06 62.6304C104.121 67.195 80.0078 75.7701 58.3905 88.1193C37.4759 100.066 21.9895 113.71 12.3601 128.672C6.75896 137.372 -1.51199 154.525 6.01335 171.634C13.0144 187.549 29.9478 195.604 42.9207 199.559C61.5293 205.233 83.4842 206.462 108.174 203.21C133.659 199.855 158.985 191.978 181.413 180.434C203.249 169.195 220.045 155.95 231.335 141.066C239.241 130.644 247.709 114.658 243.153 97.6935C242.183 94.2953 240.782 91.1029 238.987 88.2077C231.541 76.1902 217.65 67.7243 197.698 63.0464C187.435 60.6404 176.415 59.4353 164.729 59.4353L164.73 59.4367Z" fill="white"/>
<path d="M82.2903 204.562C73.6016 204.562 65.4566 203.957 58.0101 202.756C47.2962 201.027 37.6405 198.006 29.3142 193.776C22.2827 190.205 16.2611 185.503 11.9008 180.181C6.92773 174.112 4.09605 167.333 3.48185 160.035C2.84828 152.49 4.47508 144.592 8.31936 136.561C11.4913 129.933 16.149 123.238 22.1624 116.661C35.5807 101.984 53.9956 89.381 76.8953 79.2015C88.5859 74.004 100.769 69.771 113.104 66.6201C125.629 63.4195 138.353 61.3259 150.923 60.393C162.11 59.5639 172.646 59.6703 182.233 60.7081C193.354 61.9132 203.56 64.4076 212.571 68.1237C220.225 71.2801 226.69 75.3375 231.786 80.1841C237.679 85.7879 241.515 92.2748 243.187 99.4638C243.929 102.897 244.204 106.374 244.003 109.798C243.172 124.031 235.131 138.584 220.104 153.058C205.117 167.491 185.509 179.541 161.829 188.874C149.973 193.546 137.799 197.239 125.648 199.849C113.081 202.55 100.458 204.106 88.1335 204.476C86.1623 204.536 84.2146 204.565 82.2945 204.565L82.2903 204.562ZM165.268 59.9743C160.633 59.9743 155.853 60.1567 150.931 60.5216C126.045 62.3665 100.462 68.8658 76.9465 79.319C54.0634 89.4902 35.6637 102.083 22.2564 116.747C12.9466 126.929 2.15523 142.703 3.6105 160.024C4.75728 173.668 14.146 185.929 29.3723 193.661C44.7287 201.459 64.4951 205.057 88.1252 204.345C112.609 203.61 137.39 198.364 161.778 188.752C185.443 179.427 205.036 167.386 220.011 152.962C235.014 138.512 243.042 123.987 243.871 109.788C244.07 106.375 243.796 102.91 243.057 99.4901C238.881 81.537 222.132 72.206 212.519 68.2412C199.183 62.741 183.335 59.9729 165.267 59.9729L165.268 59.9743Z" fill="white"/>
<path d="M71.196 209.788C67.4071 209.788 63.6818 209.635 60.0187 209.328C43.8116 207.971 22.2869 202.832 11.7708 186.052C7.30538 178.925 5.58036 170.597 6.64415 161.301C7.53501 153.518 10.4317 145.106 15.0216 136.974C25.2168 118.911 42.0575 102.185 65.0761 87.2597C79.3563 78.0006 94.9561 70.2478 111.443 64.2169C134.629 55.7358 156.924 51.6162 177.718 51.9714C188.42 52.1538 198.005 53.5081 206.209 55.997C216.49 59.1147 224.675 64.0442 230.538 70.6486C233.166 73.6087 235.288 76.9268 236.845 80.5102C240.151 88.3432 240.668 97.1283 238.384 106.625C236.496 114.471 232.772 122.612 227.313 130.823C221.086 140.193 213.08 149.194 203.52 157.578C195.126 164.94 185.332 172 174.411 178.566C160.249 187.077 144.918 194.128 128.845 199.52C108.492 206.349 89.1531 209.788 71.196 209.788ZM175.232 52.0792C155.169 52.0792 133.738 56.1988 111.487 64.3385C95.0087 70.3666 79.4185 78.1139 65.1453 87.3675C42.1446 102.282 25.3178 118.992 15.1323 137.038C4.91498 155.14 3.72947 172.98 11.8787 185.984C22.3657 202.718 43.8503 207.847 60.027 209.201C81.0315 210.959 104.171 207.662 128.802 199.399C144.867 194.009 160.189 186.964 174.343 178.457C197.718 164.406 215.503 148.356 227.204 130.753C234.218 120.201 244.779 99.649 236.724 80.5614C235.174 76.9904 233.058 73.6847 230.44 70.7342C219.832 58.7858 202.094 52.5173 177.714 52.0999C176.888 52.0861 176.061 52.0792 175.231 52.0792H175.232Z" fill="white"/>
<path d="M70.8543 209.392C60.9068 209.392 51.5748 208.253 43.03 205.989C34.2762 203.672 26.5088 199.865 20.566 194.981C13.612 189.266 9.23651 182.246 7.56268 174.115C5.81415 165.62 6.8973 156.401 10.7817 146.714C13.8942 138.956 18.7884 130.906 25.3288 122.787C38.5646 106.358 56.6959 91.7566 79.2193 79.3881C94.057 71.24 109.701 64.7407 125.719 60.0697C151.955 52.4177 175.654 50.4415 196.155 54.1949C205.433 55.8934 213.832 58.953 220.442 63.0423C228.467 68.0049 234.034 74.4835 236.99 82.2971C238.323 85.9386 239.087 89.7942 239.257 93.7577C239.946 109.835 231.855 127.196 215.205 145.36C201.267 160.566 183.311 173.903 161.836 185.003C145.87 193.256 129.378 199.543 112.819 203.69C100.488 206.779 88.7768 208.633 78.0103 209.201C75.5922 209.328 73.206 209.392 70.8543 209.392ZM174.974 52.4799C159.847 52.4799 143.377 55.0573 125.756 60.1954C109.748 64.8637 94.1109 71.3603 79.283 79.5042C56.7748 91.8644 38.6559 106.455 25.4298 122.871C15.1516 135.628 3.73223 154.868 7.68856 174.091C12.0917 195.481 33.893 203.438 43.0618 205.866C62.5889 211.038 86.0475 210.264 112.789 203.565C129.338 199.421 145.82 193.137 161.778 184.888C183.239 173.797 201.184 160.468 215.111 145.273C231.737 127.136 239.817 109.805 239.13 93.7632C238.96 89.8136 238.2 85.9704 236.871 82.3427C229.6 63.121 208.228 56.5374 196.133 54.3235C189.417 53.0935 182.355 52.4799 174.974 52.4799Z" fill="white"/>
<path d="M63.9432 215.548C48.8483 215.548 30.2175 212.369 19.1246 198.879C13.8928 192.518 11.1427 184.653 10.9491 175.506C10.7872 167.842 12.4777 159.297 15.8392 150.795C19.404 141.778 24.5555 132.729 31.1499 123.897C36.8893 116.21 43.8904 108.466 51.9594 100.879C68.2537 85.5585 87.0421 72.6455 107.805 62.5005C128.705 52.2865 149.017 46.1022 168.173 44.1191C178.496 43.0508 187.88 43.2429 196.065 44.6926C206.302 46.5057 214.751 50.3061 221.18 55.9901C224.017 58.4998 226.412 61.3729 228.294 64.5292C232.569 71.6795 234.22 80.1896 233.206 89.8246C232.374 97.7295 229.802 106.168 225.562 114.903C221.245 123.797 215.474 132.646 208.41 141.203C202.159 148.778 194.732 156.318 186.338 163.616C169.195 178.519 149.894 190.78 128.97 200.061C107.578 209.549 87.1555 214.732 68.2716 215.464C66.8703 215.518 65.422 215.548 63.9432 215.548ZM180.934 43.5539C176.891 43.5539 172.641 43.7846 168.186 44.2448C149.043 46.2266 128.747 52.4081 107.86 62.6138C87.1099 72.7533 68.3325 85.658 52.0465 100.97C34.7549 117.228 22.6133 134.006 15.9581 150.84C11.5716 161.933 6.16413 182.915 19.2228 198.795C31.3699 213.565 52.5957 215.941 68.2633 215.333C87.132 214.6 107.538 209.422 128.914 199.941C149.827 190.665 169.118 178.41 186.251 163.516C204.122 147.98 217.308 131.604 225.445 114.845C230.93 103.545 238.581 81.9889 228.182 64.5942C226.306 61.4489 223.922 58.5854 221.094 56.0855C211.668 47.7509 198.193 43.5539 180.934 43.5539Z" fill="white"/>
<path d="M64.6224 215.108C60.4724 215.108 56.4428 214.863 52.5514 214.372C43.7424 213.263 35.6941 210.618 29.2782 206.723C21.7363 202.145 16.4976 195.963 13.7074 188.35C10.79 180.386 10.5161 171.322 12.8954 161.41C14.803 153.463 18.3983 144.99 23.5831 136.228C33.2069 119.96 47.2228 104.414 65.238 90.0222C83.2656 75.6222 103.009 64.1478 123.92 55.9182C134.21 51.8691 144.211 48.8108 153.647 46.8305C164.419 44.5696 174.815 43.6326 184.548 44.0472C196.765 44.5682 218.72 48.1033 228.489 65.9305C230.223 69.1367 231.475 72.6469 232.209 76.3657C235.234 91.6792 230.003 109.476 216.659 129.263C205.899 145.218 191.135 160.223 172.778 173.859C154.114 187.723 134.031 198.478 113.089 205.826C102.652 209.489 92.6183 212.096 83.267 213.579C76.8442 214.598 70.6095 215.108 64.6224 215.108ZM180.041 44.0818C162.986 44.0818 144.15 48.095 123.967 56.0385C103.068 64.2639 83.3348 75.7314 65.3182 90.1231C47.3141 104.505 33.3093 120.04 23.6937 136.294C15.5459 150.067 7.221 170.27 13.8292 188.307C18.9696 202.338 33.0893 211.792 52.568 214.245C70.2111 216.467 90.5599 213.594 113.047 205.705C133.977 198.361 154.048 187.612 172.702 173.755C191.047 160.128 205.801 145.135 216.553 129.191C229.877 109.435 235.102 91.6695 232.083 76.3906C231.351 72.6842 230.104 69.1851 228.376 65.9913C218.637 48.2193 196.732 44.694 184.541 44.1743C183.056 44.1108 181.554 44.079 180.041 44.079V44.0818Z" fill="white"/>
<path d="M61.8627 221.688C50.013 221.688 37.48 219.089 28.2089 210.573C22.161 205.018 18.397 197.624 17.0219 188.596C15.8738 181.059 16.452 172.398 18.6916 163.549C20.9796 154.51 24.7423 145.223 29.8731 135.946C34.3246 127.898 39.9603 119.587 46.6239 111.244C61.1433 93.0626 78.8818 76.989 99.3441 63.4679C118.953 50.512 138.51 41.749 157.476 37.4235C179.606 32.3766 197.154 34.0335 209.633 42.3474C212.877 44.5088 215.667 47.0917 217.925 50.0242C223.007 56.489 225.671 64.6481 225.847 74.2762C225.99 82.1161 224.505 90.7257 221.437 99.866C218.403 108.904 214.009 118.094 208.376 127.18C203.389 135.225 197.294 143.407 190.26 151.5C182.48 160.452 173.875 168.906 164.684 176.626C155.538 184.309 145.73 191.335 135.533 197.508C115.828 209.439 96.5871 217.073 78.3451 220.202C73.3277 221.062 67.6768 221.688 61.8627 221.688ZM180.522 34.6996C173.518 34.6996 165.838 35.649 157.506 37.5492C138.556 41.872 119.012 50.6281 99.4174 63.5757C78.9662 77.0885 61.2388 93.1538 46.7262 111.324C32.2635 129.432 23.1349 146.526 18.8175 163.581C15.8876 175.154 13.2247 196.635 28.2961 210.478C42.0768 223.137 63.1077 222.684 78.323 220.074C96.5484 216.95 115.774 209.32 135.467 197.399C156.098 184.909 174.501 169.438 190.163 151.416C205.121 134.204 215.602 116.846 221.315 99.8245C225.294 87.9742 230.13 65.7564 217.824 50.1016C215.575 47.1801 212.795 44.6069 209.563 42.4538C201.809 37.2867 192.088 34.6983 180.521 34.6983L180.522 34.6996Z" fill="white"/>
<path d="M62.2666 221.187C53.9652 221.187 46.1881 219.765 39.6781 217.049C31.4556 213.618 25.3413 208.239 21.5053 201.064C17.643 193.841 16.1435 185.217 17.0454 175.434C17.7689 167.586 20.0293 158.999 23.7615 149.907C27.5159 140.761 32.5664 131.554 38.7721 122.541C44.3414 114.454 50.9883 106.307 58.5316 98.3278C66.6725 89.7154 75.5369 81.6683 84.8772 74.4102C94.3101 67.0803 104.307 60.4953 114.594 54.8362C123.922 49.7049 133.108 45.5231 141.902 42.4096C151.896 38.8718 161.713 36.5901 171.084 35.6297C183.321 34.3762 205.655 34.6623 217.739 50.6447C219.967 53.5648 221.74 56.905 223.011 60.5754C227.899 74.6839 225.438 92.2126 215.698 112.675C207.255 130.411 194.472 147.716 177.706 164.109C160.196 181.229 140.901 195.091 120.356 205.314C110.88 210.029 101.675 213.731 92.9987 216.321C82.935 219.323 73.17 220.955 63.975 221.167C63.4037 221.181 62.8338 221.187 62.2666 221.187ZM179.855 35.3035C176.62 35.3035 173.64 35.497 171.096 35.7582C153.515 37.5589 134.525 44.0154 114.655 54.9481C93.9947 66.3147 75.1441 80.94 58.6243 98.4149C42.6883 115.273 30.9991 132.614 23.8791 149.954C18.0234 164.218 12.8761 184.653 21.6173 201.002C31.6368 219.741 54.5739 221.257 63.9722 221.038C81.2611 220.635 99.6858 215.453 120.299 205.198C140.832 194.982 160.115 181.127 177.616 164.017C194.372 147.635 207.146 130.342 215.581 112.62C225.308 92.1891 227.766 74.6935 222.89 60.6183C221.622 56.9616 219.855 53.6325 217.637 50.7234C208.102 38.1089 192.148 35.3035 179.855 35.3035Z" fill="white"/>
<path d="M63.5005 227.58C62.6083 227.58 61.7271 227.56 60.8584 227.522C52.189 227.139 44.7093 224.83 38.6254 220.658C32.6896 216.586 28.3058 210.779 25.5972 203.395C23.2746 197.066 22.2371 189.561 22.5954 181.693C23.3977 164.073 29.6877 145.258 41.8251 124.173C48.057 113.347 55.4647 102.805 63.8464 92.8415C71.9568 83.1981 81.0246 74.0371 90.7992 65.6113C109.956 49.0969 129.473 37.4636 148.805 31.0319C168.274 24.5547 184.419 24.3764 196.792 30.5012C199.792 31.9868 202.579 33.905 205.074 36.2018C210.358 41.2073 213.966 47.7923 215.797 55.7745C217.348 62.5337 217.612 70.1372 216.58 78.3765C215.353 88.1842 212.537 98.4494 208.211 108.889C204.48 117.891 199.497 127.327 193.398 136.933C186.617 147.614 178.767 157.9 170.061 167.505C161.482 176.972 152.035 185.822 141.987 193.807C122.457 209.324 103.029 219.701 84.245 224.649C76.8511 226.596 69.886 227.578 63.4991 227.578L63.5005 227.58ZM176.134 26.166C167.957 26.166 158.843 27.8285 148.845 31.1549C129.528 37.581 110.026 49.2074 90.8822 65.7094C70.7879 83.0309 54.3207 102.722 41.9371 124.237C29.8108 145.303 23.5263 164.099 22.7254 181.699C22.2647 191.802 23.7283 210.286 38.6987 220.553C52.5971 230.084 71.1213 227.974 84.2132 224.526C102.981 219.582 122.392 209.214 141.908 193.708C162.1 177.665 179.869 158.008 193.29 136.865C206.566 115.952 214.143 96.816 216.453 78.3613C218.045 65.6362 217.348 48.0079 204.986 36.2972C202.501 34.0073 199.724 32.096 196.734 30.6173C190.74 27.6503 183.855 26.1674 176.133 26.1674L176.134 26.166Z" fill="white"/>
<path d="M64.1604 227.042C58.4223 227.042 52.9692 226.227 48.1552 224.633C40.8139 222.203 34.9596 218.041 30.7529 212.263C26.4217 206.316 23.8722 198.89 23.1764 190.196C22.6092 183.103 23.2663 175.184 25.131 166.662C27.3527 156.51 31.0849 146.044 36.2267 135.556C40.7599 126.31 46.5173 116.784 53.3399 107.243C60.7629 96.8629 69.0989 87.0234 78.1155 77.9978C87.2275 68.8783 97.074 60.5506 107.383 53.2455C116.551 46.7489 125.614 41.3731 134.318 37.2687C144.442 32.4926 154.446 29.2602 164.051 27.6585C172.132 26.3111 179.637 26.3028 186.356 27.6337C194.256 29.198 200.828 32.599 205.891 37.7413C208.211 40.168 210.17 42.8933 211.716 45.8424C218.114 58.0437 218.484 74.2665 212.818 94.0631C207.194 113.706 196.464 133.786 180.926 153.747C173.084 163.822 164.46 173.251 155.297 181.772C145.867 190.54 135.799 198.407 125.374 205.149C116.218 211.071 107.273 215.844 98.7894 219.336C88.7547 223.467 78.9621 225.975 69.6854 226.795C67.8235 226.959 65.9781 227.041 64.1618 227.041L64.1604 227.042ZM175.649 26.8031C171.248 26.8031 167.239 27.2592 164.073 27.7871C146.257 30.7569 127.209 39.3582 107.459 53.3519C87.0061 67.8432 68.3284 86.5052 53.4451 107.319C38.9145 127.639 29.4304 147.614 25.2569 166.691C22.3547 179.953 20.9713 198.613 30.8566 212.189C41.5166 226.828 59.7517 227.544 69.6744 226.669C86.9715 225.142 105.168 218.068 125.305 205.043C146.061 191.618 164.74 174.334 180.825 153.67C196.353 133.723 207.075 113.657 212.694 94.0299C218.352 74.2679 217.986 58.0755 211.603 45.9046C210.062 42.9665 208.11 40.251 205.799 37.8339C197.168 29.0654 185.444 26.8031 175.649 26.8031Z" fill="white"/>
<path d="M67.9051 232.815C61.6649 232.815 55.9517 231.626 50.8444 229.259C43.3149 225.768 37.5921 219.776 33.8363 211.45C30.7086 204.516 29.0182 195.994 28.949 186.804C28.8785 177.56 30.1802 167.68 32.8196 157.44C35.0924 148.623 38.4428 139.215 42.7796 129.479C51.9566 108.874 64.5187 89.3783 80.1158 71.5344C95.4389 54.0029 111.758 40.3007 128.617 30.8067C137.51 25.7984 145.973 22.2413 153.769 20.236C163.628 17.6988 172.694 17.562 180.719 19.8284C184.503 20.8966 187.998 22.5342 191.106 24.6929C197.949 29.4689 202.777 36.6219 205.457 45.9516C207.629 53.5136 208.359 62.2849 207.63 72.0236C206.94 81.2427 205.038 90.9399 201.981 100.846C199.28 109.594 195.591 118.777 191.018 128.141C180.767 149.125 167.278 168.569 150.929 185.933C135.213 202.624 118.788 215.258 102.109 223.485C93.1772 227.891 84.6974 230.773 76.905 232.053C73.7967 232.563 70.7949 232.817 67.9051 232.817V232.815ZM168.733 18.3524C156.946 18.3524 143.531 22.5536 128.68 30.9172C111.834 40.4044 95.5275 54.0982 80.2126 71.6187C64.6238 89.4529 52.0687 108.937 42.8972 129.53C33.4642 150.707 28.9435 169.441 29.0763 186.802C29.151 196.526 31.4252 220.116 50.8984 229.143C64.3914 235.398 81.6015 233.454 102.053 223.368C118.718 215.148 135.13 202.522 150.835 185.843C167.176 168.487 180.656 149.054 190.901 128.083C200.619 108.191 206.205 89.3258 207.501 72.0126C208.452 59.3358 207.573 36.3428 191.033 24.7965C187.937 22.6448 184.455 21.0155 180.684 19.95C176.913 18.8859 172.925 18.3538 168.733 18.3538V18.3524Z" fill="white"/>
<path d="M68.0116 232.121C66.1344 232.121 64.3042 232.02 62.5322 231.816C53.4506 230.769 46.018 227.111 40.439 220.945C34.9956 214.928 31.5206 206.943 30.1138 197.214C28.9988 189.503 29.1703 180.665 30.6256 170.943C32.0712 161.284 34.7147 151.244 38.4843 141.106C41.8638 132.015 46.2434 122.59 51.5001 113.091C62.9735 92.3619 77.3173 73.6654 94.1331 57.5213C101.613 50.3407 109.193 44.0514 116.666 38.8276C125.122 32.9169 133.737 28.1616 142.266 24.6956C151.143 21.0887 159.919 19.0641 167.645 18.843C177.305 18.5653 185.534 21.003 192.112 26.0845C195.062 28.3744 197.638 31.1881 199.771 34.4467C204.302 41.3704 206.879 50.0021 207.431 60.1015C207.867 68.0795 207.042 77.1604 204.981 87.0898C201.08 105.876 193.077 125.41 181.195 145.147C168.959 165.469 154.282 183.354 137.57 198.306C120.339 213.722 103.966 223.735 87.5152 228.918C80.7908 231.036 74.1494 232.121 68.0116 232.121ZM169.139 18.9799C158.881 18.9799 148.949 22.1197 142.317 24.8159C126.29 31.329 110.111 42.364 94.2244 57.6153C77.4182 73.7511 63.0828 92.4365 51.6149 113.155C40.5109 133.215 33.4933 152.665 30.7543 170.964C27.4232 193.217 30.7141 210.005 40.5344 220.861C54.975 236.822 78.1722 231.728 87.4765 228.797C103.91 223.619 120.267 213.615 137.484 198.212C154.186 183.269 168.855 165.393 181.084 145.082C192.96 125.358 200.957 105.837 204.855 87.0649C209.521 64.5914 207.774 46.912 199.663 34.5172C197.539 31.271 194.973 28.4684 192.033 26.1868C185.111 20.8386 177.028 18.9799 169.139 18.9799Z" fill="white"/>
<path d="M74.0803 236.919C70.265 236.919 66.6033 236.404 63.1104 235.371C54.412 232.801 47.5479 227.001 42.7076 218.133C37.729 209.012 36.0441 198.706 35.5074 191.668C34.8185 182.638 35.275 172.95 36.8644 162.872C38.2602 154.026 40.5759 144.592 43.7493 134.83C50.2689 114.769 59.7185 95.3829 71.8365 77.2087C83.5727 59.6067 96.6079 44.8916 110.581 33.4711C119.304 26.3415 127.754 20.8911 135.695 17.269C145.926 12.6035 155.679 10.7848 164.682 11.8627C168.8 12.3561 172.679 13.5252 176.212 15.3356C184.318 19.4442 190.318 26.6912 194.046 36.8762C196.937 44.7755 198.445 54.5819 198.406 65.2326C198.373 74.3011 197.31 83.8932 195.246 93.7397C193.4 102.552 190.697 111.827 187.213 121.307C179.916 141.164 169.847 160.151 157.286 177.738C145.428 194.341 132.375 208.062 118.488 218.524C109.456 225.327 100.696 230.319 92.4509 233.358C86.0157 235.729 79.8723 236.918 74.0789 236.918L74.0803 236.919ZM159.591 11.6914C144.879 11.6914 128.451 19.0323 110.663 33.5706C96.6992 44.9828 83.6723 59.6882 71.943 77.2806C59.8319 95.4451 50.3879 114.82 43.871 134.87C37.0208 155.946 34.3274 174.522 35.6347 191.66C36.4674 202.568 40.8139 228.651 63.1464 235.25C78.8403 239.886 97.4337 234.226 118.411 218.424C132.287 207.971 145.332 194.258 157.181 177.666C169.735 160.088 179.799 141.112 187.093 121.266C194.452 101.24 198.215 82.3883 198.277 65.234C198.328 50.8561 195.523 25.2705 176.154 15.4531C172.634 13.6482 168.769 12.4846 164.666 11.9926C163 11.7922 161.306 11.6927 159.591 11.6927V11.6914Z" fill="white"/>
<path d="M73.5546 236.267C65.238 236.267 58.0156 233.814 52.0341 228.949C44.9971 223.227 40.1623 214.764 37.6668 203.795C35.7426 195.339 35.2017 185.409 36.058 174.28C37.3873 157.006 42.0685 138.503 49.9701 119.285C58.053 99.6283 68.6548 81.2164 81.4839 64.5583C87.5691 56.6562 93.8937 49.4894 100.281 43.2567C107.39 36.3207 114.813 30.3105 122.345 25.3935C131.483 19.4276 140.353 15.3964 148.706 13.4147C159.356 10.8885 168.807 11.8379 176.798 16.2394C180.221 18.1286 183.297 20.6548 185.942 23.7476C191.835 30.6353 195.614 39.7866 197.175 50.9473C198.38 59.5652 198.281 69.6135 196.883 80.8115C194.688 98.3914 189.286 116.86 180.828 135.703C171.867 155.668 160.602 173.898 147.344 189.885C140.827 197.745 134.154 204.722 127.509 210.626C119.928 217.362 112.083 222.97 104.194 227.295C97.9331 230.728 88.3023 235.033 77.9743 236.044C76.4693 236.192 74.9946 236.267 73.5546 236.267ZM159.933 12.2013C145.48 12.2013 131.107 19.8284 122.414 25.5027C108.145 34.8185 94.4084 47.9858 81.5849 64.637C68.7641 81.2855 58.1678 99.6891 50.0891 119.335C42.1917 138.54 37.5146 157.031 36.1852 174.291C34.8102 192.153 36.4591 216.118 52.1143 228.85C69.9164 243.327 94.4222 232.508 104.132 227.185C119.081 218.988 133.183 206.761 147.245 189.805C160.496 173.827 171.755 155.607 180.71 135.652C189.163 116.82 194.56 98.3652 196.754 80.7977C199.953 55.1969 196.281 36.0318 185.843 23.8333C183.206 20.7529 180.142 18.2363 176.733 16.3541C171.351 13.3898 165.635 12.2013 159.933 12.2013Z" fill="white"/>
<path d="M80.8116 239.666C78.5733 239.666 76.3821 239.465 74.2435 239.061C67.396 237.768 61.3384 234.315 56.238 228.797C51.8556 224.056 48.2272 217.761 45.7455 210.591C40.1665 194.476 39.194 175.155 42.7727 151.524C44.618 139.337 47.6171 126.983 51.6869 114.802C55.6224 103.025 60.5886 91.3158 66.4484 80.0003C78.0878 57.5255 91.7911 39.2919 107.179 25.8067C114.046 19.7883 120.818 15.0965 127.305 11.86C135.45 7.797 143.38 5.9051 150.875 6.23677C154.297 6.38741 157.552 7.00791 160.547 8.07754C167.134 10.3799 172.778 14.8505 177.323 21.3651C181.118 26.8072 184.057 33.5001 186.053 41.257C188.454 50.5866 189.548 60.9458 189.305 72.0457C189.093 81.66 187.93 91.7455 185.747 102.876C183.33 115.197 179.811 127.547 175.288 139.579C170.831 151.435 165.369 163.06 159.057 174.131C153.28 184.264 147.093 193.441 140.666 201.41C133.371 210.455 125.528 218.243 117.352 224.56C110.465 229.883 103.675 233.859 97.1736 236.377C91.5158 238.569 86.0378 239.669 80.8102 239.669L80.8116 239.666ZM149.186 6.3266C136.188 6.3266 122.094 12.9047 107.265 25.9021C91.8893 39.3776 78.1943 57.5987 66.5632 80.0583C54.5227 103.308 46.5602 127.359 42.8986 151.543C39.324 175.152 40.2937 194.454 45.8658 210.55C49.0502 219.75 56.9754 235.671 74.2656 238.935C87.2095 241.379 101.679 236.509 117.273 224.457C132.623 212.594 146.643 195.64 158.945 174.065C171.799 151.521 180.773 127.562 185.62 102.85C190.32 78.8836 190.421 58.7457 185.927 41.2874C183.371 31.3539 176.667 13.8458 160.503 8.19639C157.52 7.1309 154.278 6.51316 150.868 6.36253C150.309 6.33766 149.747 6.32522 149.184 6.32522L149.186 6.3266Z" fill="white"/>
<path d="M80.5515 239.085C75.5383 239.085 70.3633 238.061 65.368 235.403C51.1515 227.84 45.3802 210.989 43.0438 198.186C41.2441 188.325 40.735 177.56 41.5304 166.189C42.2207 156.316 43.9222 145.653 46.5865 134.497C49.5247 122.192 53.5018 109.996 58.4043 98.2477C63.3235 86.4623 69.2026 75.0598 75.8814 64.3593C81.8947 54.7229 88.2152 46.134 94.6656 38.8303C102.138 30.3713 110.086 23.2902 118.287 17.7831C129.055 10.554 145.108 3.09007 160.432 8.59303C163.431 9.66405 166.277 11.2049 168.891 13.1728C179.356 21.0486 185.783 35.0258 187.992 54.7146C189.158 65.1138 189.057 76.2842 187.689 87.9162C186.477 98.2145 184.238 109.175 181.031 120.496C177.592 132.636 173.2 144.531 167.98 155.851C162.65 167.407 156.415 178.447 149.448 188.662C135.832 208.632 121.782 222.587 106.496 231.325C100.577 234.709 90.9113 239.085 80.5515 239.086V239.085ZM149.264 6.81722C137.679 6.81722 126.506 12.4197 118.359 17.8895C102.924 28.2528 89.0645 43.4751 75.9906 64.4284C62.5128 86.027 52.6621 109.612 46.7124 134.528C40.9315 158.733 39.7736 179.548 43.1711 198.163C45.5034 210.94 51.258 227.751 65.4289 235.291C70.402 237.936 75.559 238.957 80.5529 238.957C90.8864 238.957 100.525 234.59 106.432 231.213C121.702 222.485 135.737 208.543 149.342 188.589C163.264 168.172 173.884 145.25 180.907 120.46C187.72 96.4125 190.06 74.2969 187.865 54.7284C185.66 35.0755 179.251 21.1288 168.814 13.2751C166.209 11.3155 163.374 9.78014 160.388 8.71465C156.696 7.38935 152.958 6.8186 149.263 6.8186L149.264 6.81722Z" fill="white"/>
<path d="M88.2041 241C79.8723 241 72.3276 237.85 65.7595 231.623C58.468 224.712 54.1796 215.696 51.8667 209.349C46.3029 194.088 44.1685 176.292 45.3401 154.947C46.5589 132.761 51.276 110.227 59.363 87.9687C67.1096 66.6464 77.1195 48.1945 89.1116 33.127C95.1789 25.5041 101.057 19.4801 107.08 14.7123C114.547 8.8017 122.212 4.93498 129.862 3.22135C134.401 2.20422 138.883 2.04115 143.183 2.73352C151.49 4.17628 158.713 8.74919 164.65 16.3223C169.397 22.3781 173.336 30.4694 176.039 39.7217C180.802 56.0205 182.127 74.5554 180.092 96.3834C177.987 118.962 172.435 141.471 163.593 163.287C155.267 183.828 144.932 201.237 132.875 215.029C118.332 231.663 103.762 240.392 89.5695 240.97C89.1116 240.988 88.6551 240.997 88.2027 240.997L88.2041 241ZM137.877 2.44469C135.251 2.44469 132.58 2.74733 129.887 3.34987C116.038 6.45237 102.732 16.2201 89.2098 33.2099C77.226 48.2663 67.2245 66.7058 59.482 88.0156C51.3991 110.261 46.6834 132.784 45.466 154.956C44.2943 176.284 46.4274 194.062 51.9857 209.307C59.4239 229.711 73.4716 241.503 89.5639 240.845C103.72 240.269 118.258 231.556 132.776 214.947C144.824 201.166 155.152 183.77 163.473 163.243C172.311 141.439 177.858 118.943 179.962 96.3765C181.995 74.565 180.672 56.0468 175.913 39.7631C172.326 27.4858 163.297 6.36669 143.158 2.86618C141.424 2.58703 139.66 2.44745 137.875 2.44745L137.877 2.44469Z" fill="white"/>
<path d="M88.1446 240.486C83.8618 240.486 79.7492 239.646 75.8371 237.964C68.4418 234.785 62.232 228.871 57.3793 220.385C53.571 213.724 50.5982 205.499 48.5453 195.938C46.5713 186.746 45.5407 176.787 45.484 166.34C45.4328 157.031 46.1535 147.035 47.6268 136.629C50.8361 113.949 57.2396 91.9846 66.6587 71.345C70.9678 61.9021 75.6766 53.2276 80.6525 45.5604C86.273 36.9011 92.4412 29.2077 98.983 22.6945C105.854 15.8552 112.809 10.6894 119.657 7.34234C128.281 3.12598 136.673 1.84766 144.604 3.54056C148.782 4.47615 152.706 6.24644 156.27 8.80445C162.619 13.3622 167.814 20.1158 171.708 28.8747C174.768 35.7582 177.097 44.0638 178.631 53.562C181.574 71.7776 181.098 92.1629 177.217 114.153C173.16 137.146 166.008 158.988 155.961 179.07C151.501 187.985 146.693 196.107 141.669 203.213C135.948 211.302 129.73 218.388 123.186 224.276C116.049 230.696 108.437 235.467 101.171 238.072C96.6853 239.68 92.3334 240.485 88.1446 240.485V240.486ZM137.725 2.9477C122.467 2.9477 108.553 13.3525 99.0743 22.7871C86.605 35.1985 76.0404 51.1007 66.7763 71.4003C57.3627 92.0275 50.9634 113.98 47.7554 136.648C44.5987 158.953 44.8988 178.338 48.674 195.914C51.9372 211.11 59.3076 230.721 75.8897 237.848C94.7445 245.952 113.562 232.765 123.101 224.183C135.521 213.011 146.232 198.237 155.848 179.015C165.889 158.943 173.037 137.114 177.092 114.132C180.969 92.1574 181.445 71.7859 178.505 53.5855C175.03 32.0739 167.524 17.0437 156.195 8.91224C152.645 6.36529 148.737 4.60053 144.576 3.67047C142.27 3.17849 139.982 2.95047 137.725 2.95047V2.9477Z" fill="white"/>
<path d="M108.586 206.987C105.771 206.987 102.932 206.781 100.095 206.368C90.7633 205.008 81.5793 201.439 73.5366 196.046L73.2475 195.851L73.5878 195.929C92.7898 200.34 113.031 202.055 133.244 201.052C147.603 193.727 157.362 180.101 163.726 158.652C175.718 118.228 177.064 77.8016 167.513 44.8183C163.222 29.9968 152.893 5.05935 131.372 1.13597C130.181 0.971517 128.993 0.826411 127.796 0.697889L127.809 0.569366L129.354 0.704799C130.031 0.78357 130.701 0.883071 131.367 1.0033C142.698 2.55386 153.861 5.67433 164.604 10.297C176.115 15.2513 186.985 21.8585 196.915 29.9374C206.749 37.9376 215.475 47.2285 222.854 57.5531C230.326 68.0104 236.273 79.3342 240.531 91.2094C244.904 103.405 247.489 116.139 248.217 129.056C248.61 136.035 247.503 142.704 244.927 148.877C242.465 154.781 238.597 160.376 233.435 165.509C217.324 181.526 192.896 192.49 160.832 198.097C151.712 199.692 142.483 200.717 133.254 201.177C131.662 201.993 130.017 202.727 128.326 203.38C122.136 205.77 115.428 206.983 108.582 206.983L108.586 206.987ZM73.9004 196.133C90.6899 207.268 110.993 209.935 128.283 203.263C129.895 202.641 131.453 201.953 132.962 201.195C112.951 202.164 92.9226 200.468 73.9004 196.133ZM133.31 1.42204C141.377 3.41068 148.516 8.55157 154.576 16.748C161.293 25.8302 165.386 37.0089 167.638 44.7866C172.67 62.1689 174.723 81.3864 173.737 101.906C172.845 120.477 169.518 139.582 163.849 158.692C160.588 169.684 156.517 178.439 151.406 185.458C148.473 189.483 145.137 192.995 141.486 195.893C139.022 197.848 136.362 199.57 133.535 201.039C142.667 200.574 151.789 199.554 160.814 197.975C192.852 192.373 217.255 181.421 233.348 165.422C243.9 154.932 248.86 142.7 248.091 129.067C247.364 116.162 244.781 103.441 240.412 91.2563C223.563 44.2559 180.969 8.76854 133.31 1.42204Z" fill="white"/>
<path d="M120.361 201.488C117.459 201.488 114.575 201.436 111.718 201.332C101.336 200.952 91.246 199.877 81.7259 198.136C60.3438 194.226 41.785 187.004 26.5641 176.673C20.3156 172.431 11.6809 165.307 6.0258 155.455C0.676446 146.135 -0.777437 136.551 1.70426 126.969C3.93558 118.352 9.05253 110.258 16.9099 102.912C23.204 97.026 31.2647 91.6018 40.8678 86.7885C57.6684 78.3682 76.7598 72.7491 97.6135 70.0847C116.871 67.6248 136.834 67.7561 156.947 70.4758C167.186 71.8605 193.402 76.3837 215.693 88.4593C226.037 94.0631 234.061 100.544 239.545 107.725C245.885 116.028 248.873 125.348 248.426 135.425C248.166 140.464 246.856 145.483 244.533 150.345C237.711 164.627 223.244 176.679 201.536 186.169C183.888 193.885 163.608 198.742 141.263 200.609C134.251 201.195 127.251 201.49 120.36 201.49L120.361 201.488ZM125.265 68.4471C94.3516 68.4471 65.1799 74.7474 40.9273 86.9032C25.8752 94.4473 6.87378 107.528 1.83015 127.001C-2.68505 144.429 6.58881 162.958 26.6375 176.567C64.859 202.512 114.854 202.687 141.254 200.481C163.586 198.615 183.851 193.76 201.487 186.051C223.165 176.574 237.61 164.542 244.418 150.288C246.734 145.442 248.039 140.439 248.299 135.418C249.137 116.53 238.148 100.768 215.634 88.5712C193.362 76.5053 167.163 71.9863 156.932 70.6029C146.261 69.1602 135.663 68.4471 125.265 68.4471Z" fill="white"/>
<path d="M95.6575 240.319C90.0564 240.319 84.624 238.741 79.4877 235.619C66.4304 227.683 57.3129 212.315 52.2706 189.807C30.9728 182.061 15.806 171.237 7.05638 157.502C1.26298 148.407 -0.553341 138.812 1.65584 128.98C3.23561 121.951 6.81568 115.034 12.2992 108.422C17.228 102.478 23.6107 96.9569 30.757 92.4573C42.7256 84.9201 56.7097 79.1766 73.5103 74.8995L73.8631 74.8096L73.5615 75.0156C43.7756 95.3414 32.814 137.62 49.1249 169.264L49.1318 169.286C49.8982 176.642 50.9814 183.452 52.3799 189.71C58.8802 192.07 65.9532 194.145 73.5878 195.929L73.6086 195.938C88.9552 206.259 107.511 209.198 124.518 204.002C140.531 199.11 152.883 187.699 159.296 171.876L159.942 170.209L160.063 170.255C154.492 185.706 147.968 198.693 140.118 209.958C135.632 216.397 126.247 228.229 113.804 235.149C108.149 238.293 102.53 240.02 97.1058 240.283C96.6217 240.306 96.1361 240.317 95.6547 240.317L95.6575 240.319ZM52.4145 189.859C57.4526 212.288 66.5439 227.602 79.5541 235.509C90.1242 241.933 101.627 241.774 113.745 235.037C126.166 228.131 135.535 216.314 140.015 209.885C147.232 199.53 153.327 187.716 158.591 173.87C155.351 181.129 150.822 187.405 145.108 192.551C139.201 197.87 132.288 201.763 124.559 204.125C116.378 206.625 107.482 207.257 98.8309 205.951C89.7991 204.588 81.2943 201.258 73.5504 196.052C65.9449 194.275 58.8954 192.209 52.4145 189.859ZM73.1908 75.1151C56.5603 79.3798 42.7007 85.0887 30.8262 92.5665C15.3882 102.289 4.80154 115.571 1.78173 129.009C-0.419158 138.805 1.39163 148.369 7.16566 157.433C15.8903 171.129 31.006 181.924 52.2374 189.657C50.8472 183.419 49.7682 176.637 49.0046 169.311C41.0006 153.776 39.1649 135.427 43.8378 117.642C46.1023 109.023 49.7751 100.969 54.7523 93.7038C59.814 86.3172 66.0168 80.0639 73.1908 75.1151Z" fill="white"/>
<path d="M49.165 169.625L49.0101 169.323C41.002 153.786 39.1649 135.433 43.8378 117.643C46.0802 109.108 49.7018 101.129 54.6071 93.9194C55.5713 89.8647 56.635 85.8805 57.7943 81.9779C61.8723 68.2467 67.183 55.3862 73.5795 43.7542C80.9817 30.2939 89.0798 19.8284 97.6523 12.6477C108.893 3.22826 121.013 -0.576273 133.671 1.33636C147.041 3.43417 160.079 7.66988 172.423 13.9233C194.75 25.2346 213.693 42.6266 227.206 64.2169C239.662 84.1213 246.872 106.588 248.211 129.532C248.445 131.488 248.517 133.453 248.426 135.424L248.297 135.421C248.268 133.449 248.196 131.477 248.08 129.516C246.215 114.041 234.557 102.631 227.221 96.8795C184.159 63.11 117.531 63.9999 73.5504 75.0225C65.9919 80.1827 59.6466 86.7553 54.6513 94.2096C52.503 103.3 50.8513 112.758 49.7032 122.559C47.8163 138.658 47.624 154.38 49.1291 169.287L49.165 169.625ZM54.4743 94.4777C40.0032 116.271 37.0277 145.498 48.9686 168.961C47.4995 154.145 47.7029 138.53 49.5759 122.544C50.7033 112.921 52.3439 103.527 54.4729 94.4777H54.4743ZM130.055 67.9966C137.932 67.9966 145.707 68.4043 153.254 69.2279C167.443 70.7771 180.753 73.7607 192.817 78.0959C205.873 82.7877 217.475 89.0742 227.301 96.78C233.839 101.907 238.992 107.59 242.616 113.67C245.377 118.303 247.168 123.055 247.974 127.87C244.557 80.0017 215.497 35.8923 172.365 14.0393C160.034 7.79149 147.008 3.56131 133.652 1.46488C111.187 -1.93059 91.0109 12.3188 73.6902 43.8178C65.4455 58.8107 59.1223 75.4951 54.7828 93.661C59.9094 86.1915 66.2022 79.8828 73.4882 74.9119L73.5089 74.9022C91.6956 70.3431 111.158 67.9966 130.055 67.9966Z" fill="white"/>
<path d="M95.9632 240.279C88.8432 240.279 82.1036 237.784 75.862 232.826C67.6063 226.267 62.3122 217.062 59.3242 210.496C52.1212 194.664 48.2036 176.078 47.6807 155.254C47.2367 137.587 49.2121 118.569 53.553 98.73C58.1858 77.5556 65.2297 58.5136 74.4883 42.1332C86.1595 21.4853 98.7119 8.72846 112.862 3.13291C117.338 1.36262 121.841 0.482307 126.242 0.518238C135.291 0.652289 143.497 4.58535 150.63 12.2096C157.711 19.7786 162.246 29.4468 164.803 36.2239C168.065 44.8681 170.456 54.4561 171.91 64.72C173.191 73.7718 173.783 83.6473 173.669 94.0728C173.214 135.652 162.413 175.139 143.255 205.258C137.649 214.074 131.797 221.311 125.863 226.771C118.195 233.828 110.126 238.185 101.881 239.722C99.8822 240.095 97.9096 240.28 95.9646 240.28L95.9632 240.279ZM125.988 0.642615C121.684 0.642615 117.285 1.51878 112.908 3.24899C98.7866 8.83349 86.255 21.571 74.599 42.1926C65.3459 58.5619 58.3075 77.5915 53.6775 98.7549C47.0043 129.259 42.5873 173.397 59.4404 210.441C63.0869 218.455 76.9216 244.242 101.855 239.593C116.463 236.869 130.354 225.293 143.143 205.187C162.289 175.087 173.083 135.626 173.538 94.0686C173.783 71.6159 170.886 52.708 164.682 36.2668C159.714 23.1022 148.114 0.967375 126.239 0.643997C126.156 0.643997 126.071 0.642615 125.988 0.642615Z" fill="white"/>
<path d="M248.299 135.422L248.232 132.243L248.091 129.065L247.874 125.892L247.582 122.725L247.216 119.563L246.773 116.411L246.255 113.27L245.665 110.141L244.999 107.026L244.261 103.928L243.449 100.846L242.565 97.7834L241.61 94.7417L240.584 91.7235L239.487 88.7288L238.321 85.7617L237.085 82.8209L235.782 79.9091L234.413 77.0291L232.977 74.1822L231.476 71.3686L229.911 68.5908L228.283 65.849L226.594 63.1473L224.843 60.4856L223.033 57.8654L221.166 55.2881L219.24 52.755L217.259 50.2688L215.225 47.8283L213.136 45.4375L210.996 43.0964L208.806 40.8065L206.568 38.5678L204.281 36.3843L201.95 34.2547L199.574 32.1803L197.155 30.1627L194.696 28.2044L192.196 26.3042L189.661 24.4635L187.088 22.6849L184.48 20.9685L181.841 19.3129L179.169 17.7223L176.469 16.1966L173.741 14.7359L170.988 13.3401L168.211 12.012L165.411 10.7503L162.59 9.55765L159.75 8.43273L156.895 7.37553L154.023 6.3902L151.139 5.47396L148.244 4.62681L145.337 3.85153L142.424 3.14812L139.504 2.51518L136.579 1.95272L133.652 1.46351L130.724 1.04616L127.796 0.700666L127.812 0.572144L130.74 0.917634L133.671 1.33637L136.601 1.82696L139.529 2.38804L142.452 3.02236L145.369 3.72716L148.278 4.50382L151.176 5.35096L154.065 6.2672L156.938 7.2553L159.797 8.3125L162.638 9.43742L165.462 10.6328L168.265 11.8945L171.045 13.224L173.801 14.6212L176.531 16.0833L179.234 17.6117L181.907 19.2037L184.551 20.8593L187.159 22.5785L189.735 24.3584L192.274 26.2006L194.775 28.1022L197.237 30.0632L199.658 32.0822L202.036 34.1579L204.37 36.2903L206.658 38.4765L208.899 40.7167L211.09 43.008L213.233 45.3518L215.323 47.7453L217.359 50.1873L219.343 52.6762L221.27 55.2121L223.139 57.7908L224.951 60.4138L226.702 63.0782L228.394 65.7827L230.023 68.5259L231.589 71.3064L233.092 74.1228L234.529 76.9724L235.9 79.8552L237.204 82.7697L238.44 85.7119L239.607 88.6831L240.706 91.6806L241.732 94.7016L242.689 97.746L243.573 100.811L244.385 103.896L245.125 106.998L245.791 110.116L246.383 113.247L246.9 116.391L247.343 119.548L247.711 122.711L248.003 125.881L248.22 129.058L248.361 132.238L248.427 135.42L248.299 135.422Z" fill="white"/>
<path d="M206.171 184.031L206.056 183.973C211.292 173.694 214.735 162.715 216.288 151.337C219.069 130.984 215.806 109.925 206.853 90.4424C198.028 71.24 184.14 54.5072 166.688 42.053L166.762 41.948C184.232 54.4147 198.136 71.1654 206.97 90.3885C211.355 99.9309 214.4 109.964 216.021 120.211C217.677 130.678 217.81 141.156 216.417 151.354C214.861 162.745 211.412 173.739 206.171 184.031Z" fill="white"/>
<path d="M139.902 200.717L139.854 200.598C146.971 197.677 153.413 193.531 159.002 188.275C179.53 168.972 185.054 136.771 173.074 106.24L173.195 106.193C175.92 113.138 177.778 120.369 178.716 127.683C179.677 135.172 179.649 142.574 178.634 149.68C176.441 165.031 169.682 178.41 159.09 188.369C153.489 193.636 147.035 197.79 139.903 200.719L139.902 200.717Z" fill="white"/>
<path d="M108.127 207.593C103.068 207.593 97.9414 206.931 92.8811 205.594C85.4264 203.625 78.3008 200.264 71.7023 195.605L71.777 195.5C78.3631 200.151 85.4748 203.505 92.9143 205.47C106.381 209.027 120.328 207.797 132.187 202.008C144.222 196.133 153.849 185.467 159.296 171.977L159.415 172.025C153.955 185.545 144.307 196.234 132.243 202.123C124.813 205.75 116.564 207.593 108.127 207.593Z" fill="white"/>
<path d="M96.0255 234.701C87.5332 234.701 79.0271 233.178 70.7271 230.17C53.5668 223.951 37.978 211.596 26.8325 195.384C20.4401 186.088 15.6095 175.719 12.4721 164.567L12.5966 164.532C15.7299 175.671 20.5549 186.027 26.939 195.312C38.0707 211.503 53.6374 223.839 70.7713 230.049C88.5748 236.502 107.141 236.073 123.047 228.842L123.101 228.959C115.027 232.629 106.268 234.56 97.0657 234.694C96.7199 234.7 96.3713 234.701 96.0255 234.701Z" fill="white"/>
<path d="M68.9481 226.257C60.8418 223.632 53.1145 219.44 45.9848 213.8C39.2687 208.489 33.2622 202.047 28.1315 194.653C22.5373 186.591 18.1452 177.641 15.0811 168.052C12.0599 158.601 10.4013 148.768 10.1509 138.826C9.86593 127.518 11.4291 116.183 14.7961 105.138L14.9192 105.175C11.5564 116.208 9.99458 127.529 10.2795 138.823C10.7831 158.818 17.1602 178.62 28.238 194.581C38.8343 209.851 53.3054 221.057 68.9882 226.136L68.9481 226.259V226.257Z" fill="white"/>
<path d="M48.8593 167.751C43.2679 156.211 40.9619 143.069 42.193 129.745C42.8446 122.699 44.4852 115.774 47.0693 109.167C49.6727 102.51 53.1795 96.3185 57.4913 90.7616C62.416 84.4157 68.345 78.9472 75.1122 74.5111L75.1828 74.6189C68.4266 79.0481 62.5087 84.5055 57.5923 90.8404C48.9216 102.015 43.64 115.471 42.3203 129.756C41.0919 143.056 43.3924 156.175 48.9741 167.694L48.8593 167.751Z" fill="white"/>
<path d="M53.0633 101.638L52.9498 101.577C59.4418 89.609 69.1819 79.7045 81.1159 72.9343C93.1481 66.1088 106.659 62.9096 120.19 63.6835C128.263 64.1451 136.103 65.9623 143.493 69.0828L143.443 69.2016C136.067 66.0867 128.242 64.2736 120.183 63.812C92.7262 62.2393 66.3792 77.0885 53.0633 101.638Z" fill="white"/>
<path d="M209.327 85.7866C203.714 75.379 196.537 66.0743 187.998 58.1322C173.106 44.2835 154.002 34.7342 134.205 31.2461C114.561 27.7843 94.7957 30.1184 77.0461 37.997L76.9936 37.8795C85.8414 33.952 95.2978 31.3843 105.102 30.247C114.777 29.1248 124.576 29.4178 134.228 31.119C144.19 32.8741 153.903 36.0996 163.094 40.7043C172.231 45.2813 180.64 51.1132 188.085 58.0382C196.635 65.99 203.82 75.3044 209.441 85.7258L209.327 85.7866Z" fill="white"/>
<path d="M100.258 201.696C77.1941 201.696 56.7692 198.133 39.5343 191.103C26.1118 185.628 8.89898 175.491 3.12218 158.286C0.423293 150.247 0.673676 141.756 3.86641 133.05C6.55838 125.709 11.389 118.268 17.8353 111.531C24.2554 104.822 32.0947 98.6484 41.1376 93.18C48.9949 88.4288 57.9976 84.0701 67.8954 80.2255C78.9468 75.9318 90.6457 72.5156 102.664 70.0695C114.356 67.6898 126.456 66.2083 138.627 65.6638C162.416 64.5997 183.957 67.3153 202.649 73.7317C221.938 80.354 235.251 89.9075 242.216 102.127C244.731 106.539 246.302 111.226 246.883 116.053C247.891 124.043 246.174 132.256 241.78 140.464C238.146 147.252 232.794 153.88 225.873 160.165C218.709 166.671 210.218 172.586 200.637 177.749C192.184 182.304 182.657 186.392 172.32 189.899C161.002 193.74 149.186 196.69 137.199 198.668C125.306 200.63 113.169 201.649 101.123 201.696C100.834 201.696 100.543 201.697 100.256 201.697L100.258 201.696ZM148.553 65.5671C145.293 65.5671 141.987 65.6417 138.635 65.7923C113.718 66.9062 89.9346 71.8025 67.9438 80.3458C46.7276 88.5878 29.9007 99.11 17.9308 111.62C3.65753 126.536 -1.69597 143.53 3.24529 158.245C9.00688 175.404 26.1865 185.52 39.5841 190.984C57.0196 198.096 77.7309 201.658 101.127 201.566C125.564 201.472 149.505 197.504 172.283 189.776C194.313 182.301 212.315 172.307 225.792 160.07C234.677 152.002 249.217 135.555 246.76 116.069C246.181 111.259 244.615 106.589 242.108 102.192C235.158 90.0001 221.87 80.466 202.611 73.8547C186.569 68.3476 168.422 65.5698 148.555 65.5698L148.553 65.5671Z" fill="white"/>
<path d="M82.3291 204.616C68.0393 204.616 54.9419 202.829 43.1904 199.262C30.2521 195.336 13.3644 187.333 6.39377 171.504C3.43205 164.781 2.67813 157.362 4.15277 149.453C5.42128 142.649 8.39683 135.482 12.7585 128.731C17.9488 120.695 24.8544 113.003 33.2789 105.868C40.4777 99.772 49.017 93.8918 58.6603 88.3929C69.4613 82.2335 81.1062 76.9351 93.2713 72.6441C105.1 68.472 117.481 65.2313 130.069 63.0119C154.944 58.6255 177.616 58.7444 197.454 63.3656C206.305 65.4275 214.087 68.3048 220.586 71.9172C228.509 76.3201 234.575 81.8535 238.615 88.3625C240.405 91.2453 241.803 94.4238 242.768 97.8082C244.696 104.988 244.4 112.663 241.89 120.622C239.751 127.4 236.069 134.251 230.945 140.983C224.913 148.909 217.279 156.414 208.254 163.292C200.416 169.265 191.304 174.935 181.171 180.143C169.926 185.922 157.978 190.788 145.659 194.608C133.454 198.391 120.851 201.158 108.2 202.83C99.2016 204.02 90.5668 204.616 82.3291 204.616ZM164.762 59.9384C153.776 59.9384 142.196 61.0052 130.091 63.139C104.265 67.6926 80.2527 76.2275 58.7239 88.5049C37.6004 100.551 22.5995 113.731 12.865 128.8C7.28187 137.443 -0.966951 154.476 6.50997 171.451C13.4626 187.236 30.3144 195.22 43.2264 199.139C61.7368 204.757 83.5907 205.956 108.182 202.705C133.557 199.351 158.775 191.509 181.112 180.031C202.859 168.855 219.59 155.692 230.842 140.907C238.722 130.554 247.164 114.678 242.645 97.8455C241.684 94.4722 240.291 91.3047 238.506 88.4316C231.104 76.5095 217.282 68.1182 197.424 63.4928C187.254 61.1241 176.336 59.9384 164.761 59.9384H164.762Z" fill="white"/>
<path d="M71.2043 209.302C67.2079 209.302 63.2875 209.131 59.4363 208.787C43.5944 207.37 22.5456 202.233 12.2383 185.802C7.81444 178.75 6.10464 170.506 7.15874 161.302C8.03993 153.602 10.9076 145.274 15.4491 137.22C25.6027 119.215 42.4116 102.533 65.4081 87.6398C79.7243 78.3682 95.3393 70.6209 111.818 64.6135C133.986 56.5332 155.311 52.4426 175.248 52.4426C176.086 52.4426 176.919 52.4495 177.751 52.4647C188.359 52.6485 197.857 53.9877 205.978 56.4462C216.168 59.5293 224.281 64.4063 230.095 70.9415C232.707 73.8768 234.815 77.1687 236.361 80.7258C239.632 88.4786 240.144 97.1781 237.879 106.582C236.009 114.35 232.321 122.411 226.918 130.541C215.186 148.192 197.348 164.258 173.899 178.296C159.786 186.744 144.551 193.734 128.617 199.071C108.303 205.875 89.0452 209.303 71.2029 209.303L71.2043 209.302ZM175.248 52.5711C155.326 52.5711 134.016 56.659 111.862 64.7352C95.3919 70.7384 79.7865 78.4815 65.4773 87.7476C42.4988 102.63 25.7037 119.296 15.5597 137.283C5.44894 155.212 4.27726 172.871 12.3462 185.733C22.6258 202.119 43.6331 207.244 59.4474 208.658C80.4713 210.537 103.729 207.271 128.575 198.948C144.502 193.614 159.728 186.628 173.832 178.184C197.265 164.156 215.09 148.102 226.81 130.468C233.754 120.019 244.214 99.6683 236.242 80.7742C234.702 77.2295 232.601 73.9501 229.999 71.0245C219.491 59.2128 201.911 53.0106 177.749 52.5919C176.917 52.5781 176.083 52.5698 175.246 52.5698L175.248 52.5711Z" fill="white"/>
<path d="M63.9335 215.063C48.9202 215.063 30.5979 211.893 19.6157 198.642C14.4254 192.38 11.6822 184.628 11.4623 175.602C11.2783 168.046 12.9189 159.607 16.2071 151.196C19.7208 142.211 24.8336 133.181 31.4058 124.357C37.1079 116.701 44.0771 108.976 52.1212 101.396C68.3519 86.1017 87.0919 73.1983 107.82 63.0423C128.739 52.7936 149.053 46.59 168.199 44.6042C178.443 43.5414 187.75 43.7266 195.859 45.1542C206.016 46.9424 214.399 50.7027 220.776 56.3301C223.599 58.8218 225.977 61.6727 227.841 64.8015C232.086 71.9034 233.717 80.3596 232.69 89.9366C231.849 97.7834 229.278 106.162 225.049 114.841C220.761 123.641 215.035 132.403 208.031 140.878C201.852 148.358 194.498 155.831 186.175 163.092C177.693 170.49 168.505 177.346 158.865 183.472C149.287 189.558 139.18 194.977 128.827 199.573C107.72 208.945 87.547 214.118 68.8679 214.947C67.2756 215.018 65.6239 215.058 63.9321 215.058L63.9335 215.063ZM180.908 44.0445C176.883 44.0445 172.651 44.2739 168.213 44.7341C149.082 46.7185 128.781 52.918 107.876 63.1597C87.1597 73.3102 68.4307 86.2067 52.2098 101.491C34.9499 117.755 22.8762 134.494 16.3275 151.243C12.0378 162.213 6.77556 182.945 19.7153 198.559C30.6657 211.772 48.9506 214.933 63.9335 214.933C65.6253 214.933 67.2715 214.893 68.8637 214.823C87.5276 213.995 107.686 208.825 128.777 199.46C149.746 190.148 169.03 177.88 186.092 162.998C203.806 147.546 216.875 131.326 224.934 114.787C230.408 103.554 238.05 82.1313 227.731 64.8692C225.873 61.7515 223.505 58.9116 220.691 56.4282C211.358 48.1917 198.009 44.0445 180.908 44.0445Z" fill="white"/>
<path d="M61.9097 221.201C50.1652 221.201 37.765 218.626 28.5949 210.21C22.5857 204.696 18.8534 197.349 17.5033 188.374C16.3759 180.885 16.9666 172.283 19.209 163.496C21.5094 154.48 25.2804 145.219 30.4153 135.971C34.8711 127.947 40.5068 119.664 47.1689 111.347C61.6261 93.2989 79.2581 77.3386 99.5751 63.9087C119.091 51.0081 138.555 42.2686 157.425 37.932C179.432 32.8755 196.879 34.4923 209.283 42.7399C212.506 44.8833 215.276 47.4455 217.515 50.3545C222.584 56.8027 225.223 64.9494 225.359 74.5678C225.468 82.3814 223.953 90.9675 220.855 100.086C217.799 109.078 213.39 118.221 207.752 127.259C202.772 135.241 196.682 143.382 189.651 151.455C181.937 160.31 173.394 168.685 164.258 176.345C155.193 183.946 145.466 190.912 135.343 197.051C115.743 208.936 96.5982 216.555 78.4364 219.696C73.408 220.565 67.7405 221.199 61.9111 221.199L61.9097 221.201ZM180.47 35.1861C173.47 35.1861 165.788 36.1424 157.451 38.0592C138.596 42.3916 119.148 51.1256 99.6443 64.0179C79.3397 77.4395 61.7174 93.3915 47.2685 111.429C32.8127 129.476 23.6744 146.517 19.3335 163.529C14.3382 183.1 17.7468 200.08 28.682 210.116C42.3646 222.672 63.2778 222.187 78.4129 219.57C96.5594 216.432 115.69 208.818 135.275 196.942C155.785 184.504 174.047 169.171 189.551 151.372C204.498 134.212 214.988 116.943 220.73 100.046C224.752 88.2091 229.669 66.0259 217.412 50.4333C215.18 47.5353 212.421 44.9828 209.21 42.8477C201.532 37.7427 191.914 35.1847 180.471 35.1847L180.47 35.1861Z" fill="white"/>
<path d="M63.5669 227.091C62.7217 227.091 61.8862 227.073 61.0617 227.038C52.4408 226.673 45.0054 224.39 38.9602 220.248C33.063 216.209 28.7138 210.438 26.0357 203.097C23.7421 196.81 22.724 189.355 23.0934 181.537C23.9206 164.018 30.2051 145.302 42.3023 124.32C48.5149 113.545 55.8963 103.053 64.2434 93.133C72.3207 83.5326 81.3483 74.4103 91.0773 66.0176C110.16 49.5571 129.578 37.9583 148.791 31.5432C168.162 25.0757 184.209 24.8711 196.49 30.9352C199.47 32.407 202.236 34.3099 204.713 36.5902C209.961 41.5611 213.537 48.1074 215.343 56.0454C216.871 62.7576 217.118 70.3127 216.081 78.5009C214.844 88.2575 212.026 98.4715 207.709 108.857C203.988 117.809 199.019 127.196 192.942 136.755C186.183 147.386 178.361 157.625 169.695 167.188C161.151 176.614 151.748 185.429 141.745 193.385C132.652 200.615 123.512 206.784 114.576 211.72C104.417 217.331 94.2299 221.512 84.2989 224.143C76.9036 226.102 69.9427 227.092 63.5669 227.092V227.091ZM176.071 26.6622C167.917 26.6622 158.819 28.3288 148.831 31.6635C129.635 38.073 110.231 49.6635 91.1617 66.1143C71.1614 83.3654 54.7606 102.97 42.4144 124.383C30.3268 145.348 24.0479 164.044 23.222 181.543C22.7475 191.588 24.171 209.961 39.0335 220.143C52.8309 229.596 71.2472 227.468 84.2658 224.017C102.928 219.071 122.24 208.731 141.663 193.282C161.76 177.299 179.454 157.727 192.831 136.684C206.063 115.872 213.625 96.8339 215.952 78.4829C217.557 65.8297 216.891 48.305 204.624 36.6827C202.158 34.4108 199.401 32.5161 196.432 31.0499C190.51 28.1257 183.704 26.6635 176.071 26.6635V26.6622Z" fill="white"/>
<path d="M67.9881 232.319C61.817 232.319 56.1689 231.145 51.1155 228.807C43.6455 225.349 37.9711 219.404 34.2499 211.134C31.1499 204.247 29.483 195.789 29.4304 186.678C29.3308 169.347 33.8543 150.668 43.2624 129.573C52.4048 109.073 64.9157 89.6616 80.4505 71.8813C95.6824 54.4451 111.894 40.8038 128.635 31.3346C137.485 26.3291 145.902 22.7692 153.652 20.7557C163.47 18.2046 172.498 18.0498 180.484 20.2955C184.242 21.3527 187.711 22.9751 190.796 25.1171C197.53 29.8296 202.295 36.8638 204.956 46.0276C207.115 53.4653 207.862 62.0984 207.175 71.685C206.508 80.9829 204.601 90.7713 201.506 100.778C198.775 109.605 195.038 118.867 190.395 128.305C180.16 149.118 166.777 168.379 150.62 185.554C135.005 202.153 118.689 214.733 102.125 222.946C93.2367 227.353 84.8025 230.241 77.0572 231.534C73.9239 232.056 70.8972 232.317 67.9867 232.317L67.9881 232.319ZM168.655 18.8499C156.906 18.8499 143.524 23.0622 128.7 31.4479C111.973 40.9102 95.7723 54.5418 80.5487 71.967C65.0236 89.7376 52.5182 109.136 43.3813 129.625C33.9816 150.704 29.4608 169.366 29.5604 186.678C29.6158 196.328 31.8333 219.739 51.1695 228.689C64.5809 234.899 81.7052 232.927 102.068 222.831C118.619 214.625 134.923 202.055 150.527 185.467C166.676 168.301 180.052 149.05 190.28 128.25C200.154 108.172 205.796 89.1378 207.048 71.6767C207.941 59.2198 207.005 36.6178 190.724 25.2235C187.652 23.0884 184.195 21.4729 180.45 20.4199C176.728 19.3723 172.792 18.8499 168.655 18.8499Z" fill="white"/>
<path d="M74.166 236.417C70.3951 236.417 66.7749 235.909 63.3221 234.89C54.6804 232.342 47.8675 226.575 43.0742 217.747C38.1509 208.683 36.4937 198.437 35.9708 191.439C35.2985 182.452 35.7661 172.809 37.3611 162.778C38.7596 153.979 41.0725 144.589 44.2376 134.871C50.7407 114.902 60.1529 95.5999 72.2128 77.5003C83.8922 59.9702 96.8596 45.3103 110.752 33.9285C119.546 26.7244 127.707 21.4411 135.699 17.7789C145.87 13.119 155.564 11.2948 164.512 12.3561C168.601 12.8412 172.452 13.9993 175.957 15.7972C184.01 19.8781 189.961 27.0878 193.647 37.2259C196.501 45.0754 197.981 54.8237 197.929 65.4165C197.883 74.442 196.814 83.9886 194.75 93.7909C192.904 102.559 190.207 111.79 186.733 121.228C179.458 140.996 169.432 159.901 156.932 177.419C145.134 193.954 132.15 207.626 118.343 218.053C109.366 224.832 100.667 229.808 92.4841 232.842C86.0655 235.222 79.9387 236.415 74.166 236.415V236.417ZM159.515 12.1944C144.89 12.1944 128.545 19.5202 110.834 34.0294C96.9509 45.4029 83.9932 60.0531 72.3193 77.5722C60.2663 95.662 50.8596 114.954 44.3593 134.912C37.5271 155.893 34.824 174.381 36.0981 191.43C36.9087 202.283 41.1887 228.231 63.358 234.767C66.8537 235.798 70.4974 236.312 74.2795 236.312C87.3492 236.312 102.09 230.168 118.264 217.952C132.06 207.532 145.034 193.87 156.826 177.346C169.319 159.836 179.341 140.942 186.612 121.185C193.949 101.248 197.713 82.4851 197.799 65.4179C197.871 51.1118 195.121 25.6575 175.898 15.9147C172.406 14.1236 168.569 12.9711 164.495 12.4874C162.858 12.2925 161.197 12.1958 159.514 12.1958L159.515 12.1944Z" fill="white"/>
<path d="M80.8932 239.161C78.6826 239.161 76.5177 238.962 74.404 238.564C67.6035 237.283 61.5901 233.848 56.5313 228.355C52.1904 223.641 48.5979 217.381 46.1438 210.251C40.6243 194.217 39.6809 174.985 43.261 151.46C45.1063 139.328 48.0985 127.027 52.1544 114.899C56.0748 103.173 61.0188 91.5148 66.8496 80.2449C78.4295 57.8641 92.0553 39.701 107.348 26.2628C114.171 20.2665 120.894 15.5913 127.33 12.3658C135.423 8.31112 143.304 6.41784 150.749 6.74121C154.146 6.88908 157.376 7.50129 160.349 8.56402C166.892 10.8512 172.493 15.2997 176.997 21.7838C180.756 27.1942 183.661 33.8497 185.634 41.5652C188.009 50.8548 189.082 61.1656 188.828 72.2143C188.606 81.7803 187.439 91.8161 185.259 102.898C182.845 115.166 179.337 127.461 174.833 139.441C170.393 151.246 164.96 162.823 158.679 173.849C152.933 183.94 146.78 193.081 140.395 201.014C133.143 210.025 125.345 217.787 117.218 224.086C110.376 229.389 103.637 233.352 97.1847 235.865C91.5504 238.059 86.0945 239.161 80.8904 239.161H80.8932ZM149.111 6.83519C136.197 6.83519 122.186 13.3967 107.434 26.3595C92.1535 39.788 78.5374 57.9373 66.9644 80.3043C54.9833 103.46 47.0513 127.407 43.3896 151.479C39.8137 174.984 40.7544 194.194 46.267 210.21C49.4182 219.364 57.2672 235.204 74.4289 238.436C76.5661 238.839 78.7476 239.04 80.9679 239.04C92.0913 239.04 104.224 233.996 117.142 223.984C132.395 212.163 146.333 195.272 158.57 173.786C171.356 151.333 180.294 127.475 185.134 102.875C189.829 79.015 189.951 58.971 185.511 41.5984C182.983 31.7132 176.35 14.2936 160.309 8.68701C157.349 7.62843 154.131 7.01899 150.746 6.87112C150.204 6.84763 149.657 6.83519 149.111 6.83519Z" fill="white"/>
<path d="M88.276 240.49C80.0065 240.49 72.5212 237.354 66.0099 231.155C58.7847 224.278 54.5407 215.309 52.2526 208.998C46.7428 193.801 44.6388 176.085 45.8188 154.839C47.0458 132.751 51.7463 110.312 59.7918 88.1483C67.4984 66.9159 77.4473 48.54 89.3619 33.5319C102.816 16.5849 116.053 6.83933 129.831 3.73683C134.337 2.72247 138.786 2.55663 143.055 3.24485C163.101 6.69284 172.073 27.7857 175.636 40.052C180.351 56.2762 181.651 74.7295 179.613 96.4622C177.505 118.943 171.977 141.357 163.184 163.081C154.903 183.537 144.63 200.875 132.652 214.611C118.204 231.181 103.736 239.878 89.6497 240.461C89.189 240.48 88.7311 240.49 88.276 240.49ZM137.808 2.95602C135.196 2.95602 132.537 3.25867 129.859 3.8612C116.111 6.9568 102.896 16.6886 89.4615 33.6107C77.5552 48.6077 67.6132 66.9712 59.9122 88.1912C51.8722 110.344 47.173 132.769 45.9474 154.846C44.7688 176.076 46.8701 193.774 52.373 208.954C59.7365 229.263 73.6653 240.989 89.6441 240.334C103.695 239.752 118.131 231.071 132.555 214.529C144.524 200.802 154.788 183.477 163.063 163.034C171.853 141.321 177.378 118.919 179.485 96.4511C181.521 74.7336 180.222 56.2969 175.512 40.0879C171.957 27.8506 163.006 6.81031 143.033 3.37199C141.317 3.0956 139.573 2.9574 137.808 2.9574V2.95602Z" fill="white"/>
</g>
<defs>
<clipPath id="clip0_1_11">
<rect width="249" height="241" fill="white"/>
</clipPath>
</defs>
</svg>
