<svg width="327" height="258" viewBox="0 0 327 258" fill="none" xmlns="http://www.w3.org/2000/svg">
<g clip-path="url(#clip0_1_163)">
<path d="M279.512 258H279.467C274.707 257.9 269.412 256.491 264.939 254.131C261.382 252.256 256.757 248.941 254.916 243.801C253.096 237.954 255.712 231.881 258.243 226.008C261.04 219.516 263.682 213.383 260.824 207.566C243.304 186.612 213.504 191.982 191.735 206.599L191.695 206.617C177.766 210.716 166.963 212.771 158.668 212.902C150.992 213.02 145.606 211.48 142.203 208.191C138.581 204.689 137.229 199.286 137.949 191.189C138.588 183.98 140.797 175.463 143.135 166.448C146.449 153.665 149.877 140.448 149.806 128.09C149.724 113.995 144.915 103.687 135.105 96.5775C117.4 81.0462 95.1079 88.6984 75.4371 95.4501C74.2435 95.8604 73.0591 96.2671 71.8855 96.6647L71.8637 96.6701C62.7458 98.3149 52.4726 98.4275 42.1503 96.9969C32.2386 95.6226 22.2796 92.8395 13.3525 88.9453L13.3143 88.929L13.2907 88.8963C8.29308 81.7851 4.31095 73.2306 2.0819 64.8104C-0.417833 55.3736 -0.672167 46.3943 1.34615 38.842L1.62773 38.9164C-3.06653 56.4847 5.08848 76.7018 13.5051 88.6966C32.0079 96.7573 53.7951 99.633 71.8001 96.3869C72.97 95.9893 74.1509 95.5845 75.3408 95.176C95.0843 88.3988 117.464 80.7176 135.284 96.3524C145.164 103.513 150.011 113.897 150.093 128.09C150.164 140.486 146.732 153.723 143.413 166.522C138.692 184.729 134.615 200.453 142.403 207.984C145.748 211.217 151.069 212.737 158.66 212.613C166.926 212.484 177.697 210.435 191.589 206.346C203.009 198.683 215.696 194.097 227.321 193.436C233.878 193.062 239.98 193.947 245.455 196.062C251.467 198.384 256.715 202.196 261.059 207.394L261.077 207.423C264.007 213.363 261.211 219.85 258.51 226.122C256.001 231.946 253.405 237.968 255.193 243.709C256.998 248.754 261.564 252.022 265.075 253.873C269.495 256.205 274.724 257.599 279.427 257.706C286.127 253.247 291.575 246.71 296.843 240.386C300.099 236.481 303.463 232.442 307.08 228.949L307.282 229.158C303.676 232.64 300.315 236.672 297.067 240.571C291.775 246.922 286.301 253.49 279.55 257.973L279.512 257.998V258Z" fill="white"/>
<path d="M281.778 238.028C275.556 238.028 268.669 235.802 264.103 232.224C261.88 230.479 260.296 228.531 259.396 226.433C257.124 221.124 259.3 215.064 261.406 209.206C263.778 202.606 266.018 196.372 262.165 191.407C246.389 171.074 219.953 182.299 196.175 195.96C179.383 205.607 167.399 210.317 159.418 210.317C156.5 210.317 154.121 209.689 152.233 208.441C144.103 203.073 146.047 186.776 148.3 167.904C149.846 154.95 151.599 140.267 150.207 127.264C148.614 112.367 143.132 101.968 133.451 95.4719C116.608 84.1724 99.0883 90.8207 82.1442 97.2493C79.1867 98.3712 76.1274 99.5331 73.1554 100.561C62.9911 104.075 51.1682 103.64 42.0013 102.868C33.3286 102.138 24.5668 100.243 16.6625 97.3909L16.6261 97.3782L16.6007 97.3491C12.3788 92.4419 8.69094 86.5707 5.93687 80.369C2.9866 73.7262 1.20809 66.8674 0.790253 60.5368C0.572253 57.2363 0.741203 54.0175 1.29347 50.9693L1.5805 51.0201C1.03369 54.0429 0.866553 57.2381 1.08274 60.5169C1.89115 72.764 7.91159 86.7903 16.7969 97.1294C24.6667 99.967 33.3903 101.851 42.025 102.578C51.161 103.347 62.9457 103.781 73.0591 100.285C76.0275 99.259 79.0831 98.0989 82.0407 96.9769C99.0538 90.5211 116.646 83.8456 133.612 95.2286C143.37 101.775 148.892 112.243 150.496 127.232C151.892 140.267 150.137 154.967 148.589 167.936C146.347 186.712 144.412 202.928 152.393 208.196C155.754 210.417 160.681 210.611 167.451 208.792C174.782 206.822 184.13 202.541 196.031 195.704C206.499 189.691 218.81 183.23 230.769 180.906C237.159 179.664 242.927 179.751 247.913 181.166C253.594 182.776 258.466 186.16 262.396 191.225C266.347 196.316 264.08 202.623 261.68 209.3C259.593 215.106 257.436 221.111 259.663 226.315C260.543 228.368 262.096 230.278 264.281 231.992C269.261 235.897 277.036 238.173 283.647 237.663C286.643 235.408 289.508 232.549 292.403 228.923C294.732 226.02 296.947 222.88 299.089 219.842C301.896 215.863 304.797 211.749 307.98 208.134L308.198 208.327C305.024 211.927 302.128 216.035 299.327 220.009C297.183 223.05 294.965 226.195 292.63 229.105C289.707 232.763 286.815 235.646 283.787 237.921L283.752 237.946L283.711 237.95C283.075 238.001 282.428 238.024 281.774 238.024L281.778 238.028Z" fill="white"/>
<path d="M283.502 218.316C278.382 218.316 272.912 216.836 268.876 214.222C266.61 212.755 264.93 211.021 263.88 209.069C261.246 204.171 262.81 198.177 264.321 192.378C266.024 185.846 267.633 179.675 263.511 175.249C246.631 157.118 222.256 170.16 200.64 185.31C184.288 196.77 172.736 202.321 165.055 202.321C162.944 202.321 161.126 201.902 159.58 201.07C151.317 196.623 151.775 180.828 152.304 162.537C152.667 149.983 153.08 135.755 150.622 123.408C147.806 109.264 141.653 99.7673 131.81 94.3754C114.746 85.0293 98.5778 92.8649 82.9417 100.444C80.1477 101.799 77.2592 103.199 74.4434 104.458C64.6515 108.834 52.8977 109.266 44.908 109.211C35.9627 109.15 27.5752 108.015 19.9815 105.842L19.9488 105.833L19.9234 105.809C10.504 97.0405 3.47892 84.2087 1.58777 72.3138C1.09364 69.2039 0.979186 66.1049 1.24987 63.1003L1.54054 63.1257C1.27167 66.1049 1.38612 69.1821 1.87662 72.2666C3.75687 84.0889 10.7365 96.8444 20.096 105.566C27.6569 107.726 36.0045 108.854 44.9116 108.915C52.8741 108.972 64.5861 108.541 74.3253 104.188C77.1375 102.932 80.0242 101.532 82.8164 100.179C98.5197 92.5672 114.755 84.6971 131.952 94.1158C141.874 99.5513 148.077 109.113 150.909 123.348C153.372 135.728 152.96 149.974 152.596 162.543C152.07 180.737 151.615 196.448 159.72 200.811C163.133 202.648 167.871 202.41 174.204 200.083C181.062 197.563 189.655 192.652 200.475 185.069C209.99 178.399 221.239 171.142 232.506 167.882C238.527 166.141 244.064 165.725 248.969 166.651C254.555 167.706 259.522 170.531 263.727 175.048C267.958 179.592 266.331 185.837 264.607 192.449C263.11 198.193 261.562 204.133 264.142 208.93C265.168 210.838 266.816 212.537 269.039 213.977C274.215 217.33 281.78 218.795 287.876 217.628C290.707 215.215 293.279 212.239 295.735 208.536C297.684 205.598 299.514 202.45 301.285 199.406C303.661 195.319 306.119 191.093 308.89 187.327L309.124 187.5C306.363 191.252 303.908 195.472 301.536 199.551C299.763 202.599 297.932 205.751 295.977 208.695C293.495 212.435 290.897 215.438 288.034 217.873L288.005 217.898L287.967 217.905C286.543 218.181 285.04 218.314 283.505 218.314L283.502 218.316Z" fill="white"/>
<path d="M285.231 198.896C281.204 198.896 277.038 197.975 273.65 196.218C271.346 195.021 269.568 193.504 268.367 191.703C265.371 187.217 266.32 181.284 267.239 175.547C268.273 169.082 269.25 162.977 264.857 159.086C246.872 143.157 224.558 158.017 205.102 174.654C186.337 190.701 174.206 196.752 166.926 193.692C158.531 190.167 157.501 174.873 156.306 157.165C155.487 145.012 154.557 131.237 151.034 119.547C146.997 106.154 140.172 97.5597 130.168 93.2716C112.875 85.859 98.0382 94.8855 83.692 103.616C81.0778 105.206 78.3746 106.851 75.7278 108.347C67.4619 113.018 57.4267 114.567 47.8165 115.544C39.6142 116.377 31.134 115.941 23.2969 114.284L23.2661 114.277L23.2406 114.258C13.3707 107.115 5.37915 95.5554 2.38165 84.0907C1.61684 81.166 1.2208 78.185 1.20264 75.2312H1.4933C1.51147 78.1578 1.90387 81.1152 2.66324 84.0163C5.64075 95.4084 13.5796 106.895 23.386 114.004C31.1867 115.653 39.6233 116.083 47.7856 115.253C57.3649 114.278 67.3638 112.737 75.5842 108.093C78.2275 106.599 80.9289 104.956 83.5412 103.366C97.951 94.5969 112.851 85.5304 130.284 93.0029C140.372 97.3273 147.252 105.982 151.314 119.462C154.847 131.184 155.777 144.976 156.597 157.145C157.785 174.757 158.811 189.969 167.039 193.424C170.503 194.88 175.054 194.208 180.951 191.372C187.336 188.3 195.174 182.76 204.913 174.432C213.478 167.107 223.661 159.053 234.236 154.856C239.885 152.614 245.195 151.697 250.017 152.135C255.511 152.632 260.568 154.898 265.052 158.868C269.562 162.864 268.574 169.046 267.528 175.592C266.619 181.275 265.678 187.151 268.611 191.541C269.784 193.298 271.526 194.785 273.786 195.958C279.158 198.747 286.512 199.4 292.095 197.59C294.738 195.032 297.081 191.855 299.058 188.146C300.647 185.163 302.11 181.994 303.525 178.927C305.454 174.746 307.449 170.424 309.791 166.52L310.04 166.669C307.707 170.56 305.716 174.875 303.788 179.049C302.371 182.119 300.907 185.292 299.314 188.282C297.317 192.029 294.949 195.239 292.273 197.823L292.249 197.846L292.216 197.857C290.078 198.556 287.68 198.896 285.233 198.896H285.231Z" fill="white"/>
<path d="M177.1 186.725C176.1 186.725 175.159 186.589 174.273 186.318C165.747 183.715 163.228 168.924 160.31 151.799C158.308 140.045 156.037 126.725 151.448 115.689C146.191 103.048 138.693 95.3557 128.527 92.1696C110.995 86.676 97.4696 96.8989 84.3914 106.784C81.9734 108.612 79.4719 110.502 77.0121 112.238C69.5765 117.481 59.9827 119.97 50.7213 121.88C42.7988 123.514 34.4603 123.808 26.6087 122.729L26.5833 122.726L26.5597 122.713C16.2592 117.172 7.29936 106.888 3.17553 95.8713C2.14548 93.1209 1.46605 90.2597 1.1554 87.3677L1.44425 87.3368C1.75308 90.2052 2.42706 93.0428 3.44621 95.7696C7.5428 106.715 16.4408 116.934 26.6723 122.446C34.484 123.515 42.777 123.221 50.6596 121.597C59.8882 119.692 69.4475 117.212 76.8414 112.002C79.2993 110.27 81.7972 108.38 84.2134 106.554C97.3515 96.6229 110.937 86.3546 128.611 91.8936C138.864 95.1052 146.42 102.854 151.713 115.578C156.315 126.644 158.588 139.982 160.593 151.75C163.495 168.781 166.002 183.491 174.355 186.04C177.873 187.115 182.237 186.009 187.696 182.665C193.609 179.042 200.693 172.871 209.349 163.799C216.964 155.818 226.082 146.968 235.963 141.834C241.242 139.09 246.324 137.672 251.062 137.622C256.459 137.562 261.611 139.268 266.371 142.69C271.161 146.136 270.812 152.256 270.442 158.734C270.12 164.354 269.788 170.168 273.076 174.154C274.397 175.756 276.231 177.03 278.53 177.943C284.094 180.153 291.235 179.997 296.311 177.557C298.8 174.813 300.842 171.518 302.377 167.758C303.614 164.73 304.717 161.537 305.783 158.447C307.258 154.173 308.782 149.756 310.686 145.713L310.95 145.837C309.053 149.865 307.531 154.277 306.057 158.541C304.989 161.635 303.887 164.832 302.646 167.867C301.092 171.667 299.027 175 296.505 177.771L296.487 177.793L296.462 177.805C291.315 180.289 284.063 180.452 278.421 178.212C276.075 177.281 274.2 175.977 272.849 174.338C269.49 170.264 269.826 164.394 270.149 158.716C270.514 152.32 270.86 146.276 266.198 142.925C247.108 129.194 226.854 145.873 209.558 163.999C194.876 179.385 184.428 186.725 177.096 186.725H177.1Z" fill="white"/>
<path d="M183.371 179.107C182.771 179.107 182.188 179.052 181.621 178.942C172.967 177.262 168.957 162.975 164.316 146.43C161.129 135.078 157.52 122.21 151.864 111.831C145.386 99.9416 137.216 93.1499 126.889 91.0676C109.098 87.4802 96.8683 98.9104 85.04 109.965C82.8346 112.025 80.5546 114.157 78.2965 116.128C71.3005 122.237 61.8957 125.571 53.628 128.216C46.365 130.54 37.9429 132.876 29.9042 131.173C24.8847 130.109 19.7363 127.192 15.0166 122.733C10.6675 118.625 6.84883 113.409 3.97305 107.652C2.67958 105.065 1.71857 102.323 1.1118 99.5041L1.39702 99.4423C1.99833 102.238 2.95208 104.956 4.23283 107.521C9.07243 117.209 18.3738 128.434 29.9641 130.888C37.9338 132.576 46.3123 130.251 53.539 127.938C61.7776 125.302 71.1498 121.981 78.104 115.909C80.3584 113.941 82.6365 111.811 84.8402 109.752C96.7212 98.6472 109.007 87.1661 126.945 90.7826C137.362 92.8831 145.597 99.7219 152.119 111.693C157.79 122.101 161.405 134.986 164.595 146.354C169.212 162.806 173.197 177.014 181.678 178.659C185.249 179.35 189.426 177.814 194.449 173.962C199.89 169.788 206.217 162.986 213.794 153.169C220.46 144.533 228.511 134.886 237.698 128.815C242.609 125.571 247.457 123.652 252.113 123.111C257.418 122.493 262.661 123.641 267.695 126.515C272.765 129.41 273.054 135.465 273.361 141.877C273.626 147.438 273.902 153.189 277.545 156.769C279.009 158.209 280.938 159.273 283.278 159.93C288.865 161.501 296.367 161.368 300.537 157.526C303.336 154.948 304.626 151.098 305.707 147.374C306.599 144.301 307.347 141.08 308.072 137.965C309.086 133.602 310.134 129.091 311.595 124.912L311.869 125.008C310.414 129.172 309.367 133.677 308.356 138.032C307.631 141.151 306.88 144.375 305.987 147.458C304.895 151.221 303.589 155.114 300.735 157.743C296.482 161.658 288.863 161.806 283.2 160.212C280.811 159.54 278.84 158.452 277.341 156.978C273.617 153.316 273.339 147.509 273.07 141.892C272.767 135.563 272.482 129.585 267.551 126.769C247.357 115.237 229.16 133.733 214.025 153.347C200.529 170.837 190.708 179.111 183.373 179.111L183.371 179.107Z" fill="white"/>
<path d="M189.736 171.595C189.478 171.595 189.224 171.584 188.972 171.562C180.188 170.807 174.689 157.022 168.323 141.06C163.954 130.107 159.004 117.693 152.282 107.97C144.583 96.8317 135.741 90.9405 125.25 89.9601C107.182 88.2718 96.2288 100.929 85.6377 113.169C83.6611 115.453 81.6192 117.813 79.5809 120.013C73.337 126.756 64.4117 131.05 56.5365 134.544C49.635 137.607 41.8524 138.562 34.3259 139.484L33.2595 139.615C28.2583 140.232 22.9372 138.333 17.4436 133.973C11.7956 129.49 7.43744 123.586 4.77421 119.423C3.21732 116.989 1.97291 114.367 1.07184 111.631L1.34797 111.541C2.23996 114.255 3.47529 116.855 5.01764 119.267C8.28946 124.385 19.9961 140.955 33.2214 139.325L34.2878 139.194C41.7942 138.273 49.555 137.322 56.4166 134.278C64.2664 130.794 73.159 126.515 79.3665 119.814C81.4012 117.617 83.4431 115.259 85.416 112.977C96.0563 100.682 107.058 87.9668 125.276 89.6697C135.856 90.6573 144.768 96.5902 152.52 107.803C159.26 117.553 164.218 129.984 168.592 140.951C174.923 156.822 180.39 170.531 188.995 171.27C192.619 171.582 196.611 169.612 201.198 165.249C206.166 160.524 211.74 153.091 218.234 142.529C223.948 133.237 230.935 122.793 239.429 115.785C243.969 112.042 248.589 109.62 253.16 108.59C258.37 107.418 263.704 108.002 269.014 110.33C274.362 112.673 275.29 118.665 276.273 125.006C277.125 130.507 278.008 136.197 282.008 139.374C283.611 140.646 285.635 141.498 288.022 141.908C294.691 143.05 301.416 141.273 304.757 137.484C307.433 134.45 308.446 130.276 309.031 126.979C309.585 123.855 309.987 120.6 310.374 117.454C310.921 113.008 311.487 108.409 312.498 104.097L312.781 104.164C311.775 108.462 311.21 113.051 310.663 117.49C310.276 120.642 309.874 123.899 309.318 127.032C308.726 130.367 307.698 134.59 304.975 137.678C302.255 140.762 297.347 142.542 292.033 142.542C290.696 142.542 289.331 142.429 287.971 142.195C285.535 141.777 283.465 140.906 281.825 139.602C277.734 136.354 276.844 130.608 275.983 125.051C275.012 118.79 274.095 112.875 268.894 110.597C247.592 101.261 231.454 121.577 218.478 142.68C206.377 162.359 197.21 171.589 189.731 171.591L189.736 171.595Z" fill="white"/>
<path d="M196.603 163.463C187.682 163.463 180.729 150.03 172.685 134.486C167.088 123.673 160.746 111.415 152.911 102.44C143.949 92.1714 134.368 87.7271 123.624 88.8545C104.675 90.8425 94.761 104.64 85.1726 117.982C83.7701 119.935 82.3186 121.954 80.8635 123.9C75.3226 131.318 66.9006 136.552 59.4413 140.877C52.2292 145.058 43.8325 146.853 36.5677 148.059C31.3865 148.919 25.7712 147.574 19.878 144.063C14.8185 141.047 9.86994 136.6 5.57171 131.204C3.74596 128.913 2.21814 126.411 1.03004 123.768L1.29528 123.648C2.47429 126.27 3.98939 128.749 5.79879 131.022C13.2308 140.352 25.2044 149.651 36.5204 147.774C43.758 146.572 52.1238 144.784 59.296 140.626C66.7298 136.316 75.121 131.102 80.6309 123.728C82.0843 121.784 83.534 119.765 84.9364 117.815C89.7379 111.134 94.7028 104.224 100.76 98.8614C107.567 92.8322 115.037 89.4663 123.595 88.5677C134.441 87.4294 144.102 91.9063 153.13 102.251C160.988 111.254 167.34 123.526 172.945 134.356C180.985 149.892 187.932 163.312 196.738 163.174C200.377 163.118 204.133 160.774 208.223 156.012C212.657 150.847 217.386 142.961 222.68 131.905C227.443 121.958 233.364 110.716 241.164 102.774C245.332 98.5292 249.723 95.6081 254.21 94.0903C259.324 92.3602 264.75 92.3856 270.336 94.1648C275.961 95.9548 277.527 101.882 279.185 108.157C280.624 113.599 282.114 119.229 286.474 122C288.209 123.102 290.327 123.744 292.769 123.906C299.394 124.347 305.907 121.758 308.982 117.461C310.939 114.729 312.045 111.176 312.363 106.603C312.585 103.418 312.641 100.123 312.696 96.937C312.772 92.4147 312.852 87.738 313.406 83.301L313.695 83.3373C313.141 87.758 313.063 92.4274 312.986 96.9424C312.932 100.132 312.877 103.431 312.654 106.623C312.33 111.25 311.208 114.85 309.218 117.63C307.636 119.839 305.205 121.626 302.186 122.797C299.265 123.929 296 124.412 292.749 124.196C290.258 124.031 288.094 123.374 286.316 122.245C281.858 119.413 280.355 113.728 278.902 108.229C277.263 102.035 275.717 96.1836 270.246 94.4407C247.837 87.3041 233.756 109.438 222.94 132.03C217.633 143.112 212.892 151.018 208.441 156.203C204.293 161.034 200.466 163.409 196.74 163.467C196.694 163.467 196.647 163.467 196.601 163.467L196.603 163.463Z" fill="white"/>
<path d="M202.586 156.866C193.947 156.866 185.763 144.524 176.342 130.322C169.608 120.17 161.974 108.661 153.12 100.248C142.977 90.6101 132.787 86.5217 121.971 87.7471C103.281 89.8639 94.8681 105.041 86.7313 119.719C85.2453 122.401 83.7084 125.173 82.146 127.787C77.5063 135.55 69.889 141.708 62.348 147.207C54.9523 152.601 47.3877 155.729 39.8667 156.506C34.1987 157.093 28.0857 156.129 22.1924 153.723C16.3827 151.352 10.9127 147.638 6.37468 142.981C4.2728 140.826 2.4634 138.442 0.991898 135.901L1.24441 135.755C2.7032 138.277 4.49806 140.639 6.5836 142.778C15.7995 152.234 28.5417 157.383 39.8377 156.218C47.2024 155.457 54.9269 152.26 62.1791 146.973C69.6946 141.492 77.2846 135.358 81.899 127.638C83.4595 125.028 84.9946 122.257 86.4806 119.578C94.6538 104.836 103.105 89.5934 121.944 87.4584C132.851 86.2221 143.115 90.3378 153.325 100.038C162.203 108.474 169.846 119.995 176.589 130.16C186.348 144.873 194.778 157.581 203.639 156.51C207.371 156.06 210.991 153.224 214.708 147.843C218.734 142.013 222.798 133.321 227.131 121.268C230.942 110.666 235.798 98.629 242.905 89.7496C246.702 85.0057 250.862 81.5818 255.265 79.5757C260.285 77.29 265.8 76.7544 271.663 77.9853C277.561 79.2235 279.767 85.0856 282.101 91.2891C284.127 96.6756 286.223 102.245 290.946 104.609C292.809 105.541 295.023 105.973 297.523 105.889C304.208 105.668 310.367 102.345 313.215 97.4235C314.985 94.3663 315.844 90.4884 315.702 86.213C315.593 82.9633 315.306 79.6192 315.026 76.3859C314.63 71.7946 314.222 67.0471 314.321 62.4939L314.612 62.5012C314.512 67.0398 314.921 71.7782 315.315 76.3623C315.595 79.5993 315.882 82.947 315.991 86.2058C316.135 90.5375 315.263 94.468 313.466 97.5724C310.568 102.579 304.313 105.96 297.532 106.183C294.979 106.267 292.721 105.827 290.816 104.872C285.991 102.458 283.874 96.8335 281.829 91.3944C279.523 85.2672 277.345 79.4794 271.603 78.2722C248.084 73.3323 236.061 97.2856 227.403 121.37C219.052 144.597 211.511 155.856 203.672 156.802C203.31 156.846 202.949 156.867 202.589 156.867L202.586 156.866Z" fill="white"/>
<path d="M35.8301 165.66C25.7912 165.66 15.4889 161.811 7.17583 154.752C4.79055 152.726 2.69593 150.464 0.953751 148.03L1.18992 147.861C2.91938 150.277 4.99583 152.521 7.36295 154.531C17.6616 163.276 31.0305 167.063 43.1277 164.661C50.9048 163.116 58.4876 159.195 65.0566 153.318C72.1017 147.017 79.1703 140.018 83.1616 131.549C84.4768 128.759 85.7539 125.81 86.9893 122.96C93.9235 106.962 101.094 90.4213 120.271 86.3546C131.34 84.0072 142.281 87.2133 153.719 96.1582C163.665 103.936 172.651 115.005 180.578 124.768C192.053 138.903 201.962 151.111 210.953 149.134C214.739 148.302 218.176 145.032 221.457 139.141C225.011 132.762 228.319 123.437 231.572 110.638C233.44 103.288 236.414 92.4292 240.657 83.0269C245.339 72.6515 250.785 65.7672 256.844 62.5629C261.764 59.9613 267.203 59.7126 273.012 61.824C278.56 63.8392 281.509 69.311 284.357 74.6031C287.157 79.799 290.051 85.1728 295.405 87.2315C297.388 87.994 299.696 88.2137 302.264 87.8851C309.024 87.0191 314.837 82.9996 317.435 77.3953C319.023 73.9713 319.574 69.9718 319.028 65.8307C318.591 62.5066 317.957 59.1062 317.344 55.8166C316.478 51.1654 315.582 46.3562 315.226 41.6923L315.517 41.6705C315.871 46.3181 316.767 51.12 317.631 55.764C318.245 59.0554 318.88 62.4612 319.317 65.7926C319.871 69.9882 319.312 74.0439 317.7 77.5187C315.061 83.212 309.16 87.295 302.302 88.1737C299.686 88.5096 297.33 88.2845 295.301 87.5038C289.847 85.407 286.928 79.986 284.103 74.7429C281.278 69.4998 278.359 64.0788 272.914 62.1C267.184 60.0176 261.825 60.2609 256.98 62.8225C250.98 65.9959 245.577 72.8348 240.923 83.1485C236.69 92.5308 233.72 103.373 231.854 110.713C225.586 135.374 218.965 147.674 211.015 149.422C210.348 149.569 209.676 149.64 209 149.64C200.389 149.64 191.046 138.132 180.351 124.955C172.434 115.202 163.46 104.148 153.539 96.3905C142.174 87.5038 131.31 84.314 120.331 86.6433C101.301 90.6791 94.1615 107.151 87.2563 123.08C86.0192 125.932 84.7402 128.882 83.4232 131.678C79.4101 140.196 72.316 147.22 65.2492 153.542C58.6402 159.453 51.0102 163.398 43.1822 164.954C40.7696 165.433 38.3062 165.667 35.8283 165.667L35.8301 165.66Z" fill="white"/>
<path d="M34.4985 175.064C31.9497 175.064 29.39 174.846 26.8594 174.407C20.1432 173.243 13.6141 170.518 7.97699 166.524C5.2974 164.627 2.92302 162.485 0.915604 160.157L1.13542 159.966C3.12649 162.276 5.48452 164.402 8.14412 166.284C19.3729 174.238 33.681 176.789 46.4195 173.105C54.5127 170.765 61.9538 166.117 67.9397 159.663C74.1999 152.913 81.056 144.758 84.4296 135.456C85.5014 132.5 86.5242 129.394 87.5143 126.388C93.2004 109.117 99.0792 91.2582 118.605 85.2454C129.837 81.7869 141.453 84.0853 154.119 92.2731C165.133 99.3933 175.461 110.007 184.573 119.371C197.764 132.927 209.155 144.635 218.276 141.752C222.118 140.537 225.368 136.836 228.215 130.432C231.296 123.501 233.85 113.547 236.023 100.002C237.271 92.224 239.335 80.7121 242.848 70.5891C246.725 59.4203 251.715 51.7917 257.683 47.9139C262.528 44.7658 268.133 44.0015 274.338 45.6445C280.263 47.2131 283.82 52.5978 287.26 57.8046C290.641 62.9242 294.138 68.2181 299.874 69.8429C301.972 70.4384 304.375 70.4457 307.017 69.8683C313.769 68.3906 319.385 63.5941 321.668 57.3543C323.043 53.5963 323.285 49.4752 322.366 45.4339C321.594 42.0063 320.605 38.5206 319.65 35.1511C318.322 30.4672 316.947 25.6235 316.142 20.8779L316.429 20.8289C317.232 25.56 318.603 30.3946 319.93 35.0712C320.887 38.4444 321.877 41.9337 322.649 45.3686C323.581 49.4643 323.336 53.6435 321.941 57.4523C319.623 63.7847 313.927 68.652 307.077 70.1516C304.388 70.7398 301.937 70.7307 299.792 70.1225C293.953 68.4668 290.427 63.1275 287.015 57.9643C283.605 52.8011 280.079 47.4636 274.262 45.9241C268.14 44.3029 262.616 45.0545 257.841 48.1571C251.928 51.9987 246.976 59.5783 243.123 70.6835C239.617 80.7848 237.556 92.2785 236.31 100.045C232.126 126.141 226.424 139.481 218.363 142.028C209.073 144.963 197.622 133.197 184.364 119.572C175.263 110.219 164.948 99.6184 153.961 92.5163C141.373 84.3794 129.835 82.0919 118.692 85.5231C99.3099 91.4924 93.4548 109.279 87.7922 126.478C86.8021 129.485 85.7775 132.595 84.7057 135.554C81.314 144.904 74.4361 153.088 68.1559 159.859C62.1336 166.351 54.6472 171.028 46.503 173.383C42.6481 174.497 38.5896 175.06 34.5003 175.06L34.4985 175.064Z" fill="white"/>
<path d="M32.9053 184.909C24.4487 184.909 16.1193 182.656 8.77632 178.295C5.79517 176.525 3.13739 174.503 0.877457 172.286L1.08092 172.079C3.32451 174.28 5.96412 176.288 8.92529 178.047C29.3991 190.205 56.0097 185.033 70.8246 166.014C77.4118 157.557 82.5548 148.346 85.6994 139.37C85.9302 138.157 86.1591 136.932 86.3898 135.695C90.2157 115.186 94.5521 91.9408 116.946 84.1452C128.048 79.08 139.48 79.9805 151.881 86.9029C162.71 92.9484 172.545 102.454 182.055 111.646C195.584 124.721 207.267 136.013 217.662 132.952C222.126 131.638 226.064 127.758 229.703 121.095C233.663 113.843 237.184 103.467 240.47 89.3719C239.422 75.6651 241.682 62.3723 246.832 51.9388C249.737 46.053 253.512 41.1821 258.054 37.4622C263.037 33.3792 268.945 30.6923 275.61 29.4778L275.626 29.4741H275.645C282.261 29.8536 286.532 35.4797 290.663 40.9207C294.498 45.9731 298.464 51.1962 304.343 52.4707C306.65 52.8701 309.149 52.6668 311.767 51.8661C317.161 50.2177 321.588 46.5359 324.233 41.5016C326.92 36.3875 327.443 30.5453 325.701 25.048C324.595 21.5569 323.261 18.0258 321.97 14.6109C320.173 9.85618 318.313 4.93989 317.054 0.0744346L317.335 0.0018158C318.591 4.85275 320.447 9.76178 322.24 14.5092C323.532 17.9278 324.869 21.4607 325.977 24.9609C327.741 30.5326 327.213 36.4546 324.489 41.6378C321.806 46.7411 317.317 50.4719 311.851 52.1439C309.189 52.9572 306.642 53.1642 304.286 52.7557C298.297 51.4577 294.298 46.191 290.43 41.0968C286.156 35.4652 282.117 30.1459 275.645 29.7664C248.767 34.6791 238.759 63.2401 240.763 89.3737V89.3955L240.759 89.4173C237.466 103.549 233.934 113.957 229.959 121.235C226.282 127.971 222.287 131.896 217.746 133.232C212.912 134.657 207.54 133.17 200.843 128.555C194.881 124.447 188.554 118.33 181.854 111.855C172.356 102.676 162.535 93.1826 151.739 87.1552C139.426 80.2819 128.08 79.385 117.055 84.4139C94.8082 92.1569 90.4882 115.315 86.6768 135.748C86.4461 136.988 86.2154 138.219 85.9847 139.435L85.9792 139.457C82.8255 148.465 77.6643 157.71 71.0553 166.194C63.8595 175.431 53.5899 181.759 42.1412 184.011C39.0747 184.613 35.9827 184.911 32.9071 184.911L32.9053 184.909Z" fill="white"/>
</g>
<defs>
<clipPath id="clip0_1_163">
<rect width="327" height="258" fill="white"/>
</clipPath>
</defs>
</svg>
