<svg width="227" height="212" viewBox="0 0 227 212" fill="none" xmlns="http://www.w3.org/2000/svg">
<g clip-path="url(#clip0_1_97)">
<path d="M115.735 190.583C111.103 190.583 106.787 190.467 102.487 189.915C96.344 189.127 91.2857 187.531 87.0206 185.035C83.3343 182.878 80.1072 179.947 76.9859 177.112C73.7423 174.165 70.389 171.119 66.525 168.952C57.7136 164.01 47.2149 164.049 39.0517 164.636C38.4892 164.677 37.923 164.72 37.3555 164.764C31.7196 165.197 25.892 165.644 20.7668 163.324C17.1575 161.69 14.3163 158.886 11.2404 155.661C8.52272 152.811 5.4456 149.395 3.22605 145.662C0.78706 141.559 -0.252096 137.712 0.0505708 133.9C0.58276 127.193 5.24509 121.732 10.3904 116.268L23.173 102.694C25.322 100.413 27.7572 97.827 28.7673 94.6191C31.0525 87.3712 25.4443 80.2508 21.8981 76.6501C20.8829 75.6196 19.8021 74.5915 18.7566 73.5989C14.8825 69.9162 10.8772 66.1084 9.03599 61.0781C7.09262 55.7662 7.40663 49.8254 9.99443 42.9134C12.2556 36.8765 15.8321 31.0708 19.2901 25.4571C21.159 22.4235 22.9246 19.5579 24.3484 16.8552C26.1694 13.3986 28.5819 10.4484 31.5191 8.08793C34.1737 5.95483 37.3479 4.23093 40.9534 2.96421C46.7899 0.916988 53.8042 -0.0251611 63.0292 9.75876e-05C68.3486 0.0152528 73.0966 0.189538 77.3378 2.18119C81.3418 4.06043 84.5198 7.47288 87.3232 10.4825L110.37 35.2221C113.51 38.5928 117.07 42.4132 121.565 44.4516C125.477 46.226 130.196 46.7527 135.991 46.0631C139.002 45.7044 142.055 45.0641 145.008 44.4453C150.943 43.2013 157.079 41.9144 163.127 42.8755C167.367 43.5486 171.534 45.2902 175.863 48.1987C180.092 51.0391 183.841 54.5829 186.634 57.3525C191.139 61.8182 195.318 66.7752 195.402 72.7514C195.456 76.6754 193.682 80.444 191.964 84.0875C189.791 88.6998 187.739 93.0556 189.142 97.6376C190.096 100.756 192.542 103.174 194.701 105.309L213.931 124.323C217.223 127.577 220.611 131.119 223.102 134.97C225.951 139.374 227.216 143.538 226.97 147.698C226.516 155.359 220.842 162.434 210.106 168.726C205.926 171.176 201.395 173.398 196.586 173.074C191.948 172.762 187.744 170.111 183.68 167.549C178.614 164.355 173.829 161.337 168.366 162.583C165.275 163.287 162.695 165.349 160.792 167.066C158.215 169.391 155.812 172.055 153.489 174.631C148.741 179.894 143.831 185.336 137.247 188.07C131.467 190.471 124.87 190.521 119.05 190.567C117.925 190.576 116.821 190.582 115.734 190.582L115.735 190.583ZM45.7583 164.179C48.4583 164.179 50.92 164.326 53.2644 164.621C58.4236 165.272 62.7934 166.632 66.6221 168.78C70.5051 170.957 73.8672 174.012 77.1183 176.966C80.232 179.795 83.4516 182.719 87.1202 184.866C96.8245 190.544 109.148 190.448 119.05 190.372C124.853 190.328 131.428 190.276 137.172 187.891C143.715 185.173 148.609 179.749 153.344 174.501C155.67 171.921 158.077 169.254 160.662 166.922C162.583 165.189 165.189 163.108 168.324 162.393C173.867 161.129 178.684 164.168 183.786 167.384C187.83 169.934 192.012 172.571 196.601 172.881C201.358 173.201 205.856 170.993 210.009 168.559C220.686 162.302 226.327 155.282 226.776 147.689C227.312 138.634 220.357 130.954 213.795 124.466L194.564 105.451C192.39 103.302 189.925 100.864 188.956 97.6982C187.531 93.0443 189.599 88.6543 191.789 84.0067C193.496 80.3821 195.262 76.635 195.208 72.7565C195.126 66.851 190.973 61.9319 186.498 57.4952C180.141 51.1919 172.39 44.5489 163.098 43.0725C157.084 42.1164 150.966 43.3996 145.049 44.641C142.093 45.2612 139.036 45.9015 136.016 46.2614C130.183 46.956 125.43 46.423 121.485 44.6335C116.956 42.5787 113.382 38.7431 110.229 35.3585L87.182 10.6189C84.3899 7.62191 81.2258 4.22461 77.2558 2.36179C73.05 0.387819 68.3246 0.214796 63.0292 0.199641C62.893 0.199641 62.7555 0.199641 62.6193 0.199641C48.8997 0.199641 32.3085 2.1774 24.525 16.9499C23.0986 19.6577 21.3318 22.5258 19.4603 25.5632C12.6352 36.6416 4.9008 49.1977 9.22263 61.0125C11.0475 65.9998 15.0364 69.7911 18.8941 73.4587C19.9408 74.4526 21.0216 75.4819 22.0406 76.515C24.7293 79.2442 26.8088 82.1654 28.0561 84.9628C29.5971 88.4207 29.8998 91.6904 28.9578 94.681C27.9337 97.9318 25.4821 100.535 23.3193 102.831L10.5367 116.405C5.4166 121.842 0.776971 127.274 0.249826 133.918C-0.389557 141.978 5.22365 149.068 11.3854 155.528C14.4474 158.74 17.2736 161.529 20.8513 163.149C25.9311 165.448 31.7335 165.003 37.3442 164.571C37.9116 164.528 38.4779 164.483 39.0403 164.443C41.4579 164.269 43.68 164.182 45.7595 164.182L45.7583 164.179Z" fill="white"/>
<path d="M117.273 192.529C112.737 192.529 108.51 192.416 104.299 191.875C98.2834 191.103 93.3285 189.54 89.1517 187.096C85.5412 184.983 82.3808 182.113 79.3239 179.335C76.1472 176.45 72.8632 173.467 69.0799 171.344C60.4514 166.504 50.1683 166.543 42.1741 167.118C41.623 167.157 41.0693 167.2 40.5132 167.243C34.9933 167.667 29.2855 168.105 24.2663 165.832C20.7314 164.232 17.9494 161.486 14.9353 158.327C12.2744 155.535 9.26034 152.19 7.08619 148.534C4.69764 144.515 3.67993 140.746 3.97629 137.013C4.49713 130.443 9.06361 125.095 14.103 119.744L26.6221 106.45C28.7256 104.216 31.1104 101.684 32.1003 98.543C34.3375 91.4453 28.8454 84.4727 25.3736 80.9465C24.3785 79.9362 23.3205 78.9309 22.2977 77.9584C18.5043 74.3515 14.581 70.6221 12.7776 65.6953C10.8746 60.4933 11.181 54.6737 13.7171 47.9044C15.9316 41.9913 19.4337 36.3069 22.8211 30.808C24.6509 27.8364 26.3799 25.0301 27.7747 22.3843C29.5592 18.9983 31.9212 16.1087 34.7978 13.7976C37.3983 11.7074 40.5069 10.0201 44.038 8.77994C49.7521 6.77313 56.6188 5.85372 65.6572 5.87645C70.8669 5.8916 75.5166 6.0621 79.672 8.01207C83.5928 9.85343 86.7064 13.1939 89.4519 16.1428L112.023 40.3722C115.099 43.6736 118.585 47.4156 122.986 49.4111C126.816 51.1489 131.438 51.6641 137.113 50.9885C140.063 50.6374 143.053 50.011 145.943 49.4048C151.756 48.186 157.765 46.9256 163.69 47.8678C167.843 48.527 171.922 50.2332 176.163 53.0812C180.305 55.8634 183.977 59.3339 186.713 62.0467C191.124 66.4215 195.217 71.2763 195.299 77.1287C195.352 80.9718 193.615 84.6634 191.932 88.2324C189.805 92.7487 187.795 97.0149 189.168 101.501C190.102 104.555 192.499 106.923 194.611 109.013L213.446 127.635C216.669 130.821 219.987 134.29 222.427 138.063C225.218 142.377 226.456 146.454 226.216 150.529C225.772 158.034 220.214 164.963 209.699 171.125C205.604 173.525 201.165 175.699 196.456 175.384C191.912 175.078 187.796 172.483 183.815 169.972C178.853 166.844 174.17 163.89 168.819 165.11C165.792 165.799 163.265 167.819 161.402 169.5C158.879 171.777 156.525 174.386 154.249 176.908C149.599 182.062 144.791 187.393 138.343 190.07C132.682 192.422 126.221 192.471 120.521 192.515C119.418 192.524 118.336 192.531 117.272 192.531L117.273 192.529ZM48.7407 166.666C51.3852 166.666 53.7965 166.81 56.0917 167.099C61.145 167.735 65.4239 169.068 69.1745 171.172C72.9767 173.305 76.2707 176.296 79.455 179.189C82.5044 181.959 85.6572 184.823 89.2501 186.926C98.7538 192.486 110.823 192.393 120.521 192.318C126.203 192.274 132.642 192.225 138.268 189.889C144.676 187.228 149.469 181.914 154.104 176.775C156.383 174.25 158.74 171.637 161.271 169.352C163.152 167.655 165.705 165.616 168.776 164.917C174.205 163.679 178.924 166.654 183.919 169.804C187.879 172.301 191.975 174.884 196.469 175.187C201.127 175.501 205.532 173.338 209.599 170.955C220.054 164.828 225.579 157.951 226.019 150.517C226.543 141.649 219.732 134.127 213.307 127.774L194.472 109.152C192.342 107.046 189.928 104.659 188.979 101.558C187.583 96.9997 189.609 92.6994 191.753 88.1478C193.425 84.5989 195.154 80.9289 195.101 77.1312C195.021 71.3482 190.955 66.5314 186.573 62.1856C180.346 56.0124 172.756 49.507 163.657 48.061C157.768 47.1252 151.776 48.3818 145.981 49.5967C143.086 50.2042 140.092 50.8319 137.133 51.1842C135.523 51.3762 133.996 51.4722 132.548 51.4722C128.859 51.4722 125.677 50.8483 122.903 49.5904C118.466 47.5785 114.965 43.8213 111.878 40.5061L89.3069 16.2767C86.5728 13.3417 83.4742 10.0151 79.5862 8.19015C75.4687 6.25659 70.8404 6.08736 65.6547 6.0722C65.5223 6.0722 65.3861 6.0722 65.2537 6.0722C51.8178 6.0722 35.5696 8.00828 27.9475 22.4765C26.5502 25.1286 24.8199 27.9374 22.9875 30.9116C16.3036 41.7615 8.72815 54.0587 12.9617 65.6271C14.7487 70.5109 18.6544 74.2239 22.4326 77.8157C23.4567 78.7895 24.5173 79.7973 25.5135 80.8089C28.1467 83.4825 30.1847 86.3431 31.4055 89.0824C32.915 92.4696 33.2114 95.6724 32.2882 98.6011C31.2844 101.785 28.8832 104.335 26.7646 106.584L14.2455 119.878C9.23133 125.202 4.68755 130.521 4.17176 137.027C3.54625 144.921 9.04343 151.863 15.0766 158.19C18.0755 161.335 20.8436 164.067 24.347 165.653C29.3221 167.905 35.0034 167.468 40.4993 167.046C41.0555 167.003 41.6091 166.96 42.1615 166.921C44.5286 166.75 46.7053 166.666 48.7432 166.666H48.7407Z" fill="white"/>
<path d="M118.812 194.477C114.371 194.477 110.232 194.366 106.111 193.836C100.222 193.08 95.3715 191.551 91.2817 189.157C87.7469 187.089 84.6533 184.279 81.6607 181.559C78.5508 178.734 75.3363 175.814 71.6324 173.737C63.1854 169 53.1205 169.038 45.2953 169.601C44.7556 169.64 44.2133 169.682 43.6698 169.723C38.2659 170.139 32.6792 170.568 27.7634 168.343C24.3029 166.776 21.5789 164.088 18.6279 160.995C16.0224 158.263 13.0727 154.987 10.9439 151.408C8.60456 147.473 7.60954 143.784 7.89834 140.129C8.40909 133.697 12.8797 128.461 17.8132 123.222L30.0687 110.209C32.1281 108.021 34.4624 105.543 35.4309 102.469C37.6202 95.5233 32.2453 88.6972 28.8454 85.2468C27.8718 84.258 26.8352 83.2741 25.8339 82.3219C22.1199 78.7907 18.2785 75.1396 16.5142 70.3164C14.6503 65.223 14.9517 59.5259 17.4336 52.8993C19.6014 47.1113 23.0304 41.5455 26.3459 36.1629C28.1379 33.2543 29.8303 30.5075 31.1948 27.9172C32.9415 24.602 35.2544 21.7743 38.0704 19.5111C40.6153 17.4651 43.6597 15.812 47.1176 14.5983C52.7119 12.6344 59.4374 11.7314 68.2816 11.7554C73.3815 11.7693 77.9342 11.9373 82.0012 13.8468C85.84 15.649 88.8882 18.92 91.5756 21.8058L113.672 45.5238C116.682 48.7556 120.094 52.4181 124.402 54.3719C128.152 56.0718 132.675 56.577 138.23 55.9164C141.117 55.5729 144.044 54.9591 146.874 54.3656C152.564 53.1721 158.447 51.9395 164.247 52.8601C168.313 53.5055 172.307 55.1751 176.458 57.9637C180.513 60.6866 184.107 64.0851 186.786 66.7411C191.105 71.0237 195.112 75.7761 195.192 81.5073C195.244 85.2696 193.543 88.8828 191.896 92.3774C189.812 96.7989 187.845 100.974 189.189 105.365C190.105 108.355 192.449 110.672 194.518 112.718L212.955 130.949C216.11 134.068 219.359 137.464 221.749 141.157C224.48 145.38 225.693 149.372 225.458 153.362C225.023 160.708 219.582 167.493 209.288 173.525C205.279 175.874 200.934 178.004 196.322 177.694C191.874 177.394 187.844 174.853 183.947 172.396C179.092 169.334 174.505 166.442 169.269 167.636C166.307 168.311 163.833 170.287 162.009 171.933C159.538 174.162 157.234 176.716 155.007 179.186C150.454 184.232 145.748 189.45 139.435 192.072C133.892 194.373 127.568 194.423 121.989 194.465C120.909 194.474 119.851 194.479 118.808 194.479L118.812 194.477ZM51.7232 169.154C54.3123 169.154 56.6718 169.295 58.9191 169.578C63.8665 170.202 68.0559 171.507 71.727 173.565C75.4498 175.653 78.6732 178.582 81.7906 181.414C84.7757 184.126 87.8616 186.93 91.3789 188.988C100.682 194.431 112.496 194.34 121.989 194.266C127.55 194.223 133.854 194.174 139.362 191.887C145.633 189.282 150.326 184.08 154.863 179.051C157.094 176.578 159.402 174.021 161.879 171.784C163.72 170.122 166.219 168.127 169.226 167.441C174.542 166.229 179.161 169.142 184.053 172.226C187.93 174.671 191.939 177.199 196.337 177.494C200.896 177.801 205.208 175.684 209.191 173.352C219.425 167.354 224.832 160.624 225.263 153.347C225.778 144.667 219.109 137.305 212.82 131.085L194.383 112.855C192.298 110.793 189.935 108.456 189.005 105.42C187.639 100.956 189.622 96.7471 191.722 92.2902C193.359 88.8159 195.051 85.2241 194.999 81.506C194.92 75.8468 190.941 71.1298 186.651 66.8775C180.557 60.8343 173.125 54.4666 164.219 53.0508C158.455 52.1352 152.589 53.3653 146.917 54.5537C144.083 55.1486 141.151 55.7624 138.256 56.1071C132.663 56.7727 128.106 56.2625 124.323 54.5462C119.978 52.576 116.552 48.8983 113.529 45.6526L91.4331 21.9347C88.757 19.0615 85.7228 15.8056 81.918 14.0186C77.8875 12.1267 73.3576 11.96 68.2803 11.9461C55.05 11.9082 38.904 13.7003 31.3689 28.0031C30.0006 30.5997 28.3069 33.3491 26.5136 36.2601C19.971 46.8801 12.5556 58.9184 16.6996 70.2432C18.4488 75.0234 22.2725 78.6581 25.9701 82.1741C26.9726 83.1276 28.0105 84.114 28.9866 85.1041C31.5644 87.7209 33.5594 90.5221 34.755 93.2046C36.233 96.5211 36.523 99.6569 35.6188 102.525C34.6364 105.642 32.2857 108.139 30.2112 110.34L17.9557 123.353C13.0475 128.565 8.59952 133.771 8.09381 140.14C7.48091 147.866 12.8621 154.662 18.7691 160.855C21.705 163.933 24.4138 166.608 27.8428 168.16C32.712 170.364 38.2735 169.937 43.6534 169.524C44.1982 169.482 44.7404 169.44 45.2802 169.401C47.5981 169.235 49.7281 169.151 51.722 169.151L51.7232 169.154Z" fill="white"/>
<path d="M120.349 196.423C116.005 196.423 111.955 196.314 107.922 195.797C102.159 195.056 97.4133 193.559 93.4118 191.218C89.9526 189.195 86.9246 186.445 83.9976 183.785C80.9558 181.021 77.8093 178.163 74.1861 176.131C65.9221 171.496 56.0741 171.533 48.4166 172.084C47.8882 172.122 47.3585 172.162 46.8263 172.204C41.5385 172.61 36.0716 173.03 31.2617 170.852C27.8744 169.319 25.2096 166.688 22.3229 163.661C16.513 157.569 11.2189 150.878 11.8242 143.242C12.3236 136.948 16.6984 131.824 21.5259 126.698L33.5178 113.965C35.5331 111.825 37.817 109.399 38.7653 106.392C40.9079 99.5963 35.6478 92.9179 32.3223 89.5421C31.3689 88.5747 30.3562 87.611 29.3751 86.679C25.7406 83.2236 21.9824 79.652 20.2547 74.9312C18.4312 69.9476 18.725 64.3718 21.1539 57.8879C23.2751 52.2236 26.6296 46.7778 29.8745 41.5114C31.6274 38.666 33.2833 35.9772 34.6188 33.4425C36.3276 30.198 38.5913 27.4309 41.3468 25.217C43.8375 23.2153 46.8162 21.5974 50.1998 20.4103C55.673 18.4881 62.2522 17.6028 70.9085 17.6293C75.8987 17.6432 80.3542 17.8074 84.3343 19.6753C88.0912 21.4396 91.0724 24.6399 93.7044 27.4638L115.325 50.6715C118.271 53.8338 121.609 57.4168 125.824 59.3289C129.492 60.9922 133.917 61.4872 139.353 60.8393C142.178 60.5034 145.042 59.9022 147.811 59.3226C153.379 58.1556 159.136 56.9482 164.812 57.85C168.791 58.4827 172.699 60.1157 176.762 62.8449C180.73 65.5097 184.247 68.835 186.868 71.4328C191.094 75.6233 195.016 80.2746 195.094 85.8821C195.146 89.5648 193.48 93.0997 191.869 96.5198C189.831 100.845 187.907 104.931 189.222 109.226C190.118 112.15 192.412 114.418 194.434 116.419L212.475 134.256C215.562 137.309 218.741 140.632 221.079 144.245C223.753 148.377 224.939 152.285 224.709 156.188C224.282 163.378 218.959 170.016 208.885 175.919C205.221 178.067 201.267 180.029 197.081 180.029C196.788 180.029 196.494 180.019 196.197 180C191.844 179.707 187.901 177.22 184.087 174.815C179.336 171.82 174.849 168.991 169.725 170.158C166.827 170.818 164.407 172.752 162.623 174.362C160.205 176.543 157.952 179.042 155.771 181.458C151.317 186.396 146.711 191.501 140.533 194.068C135.109 196.319 128.921 196.367 123.462 196.41C122.405 196.418 121.368 196.423 120.349 196.423ZM54.7058 171.642C57.2393 171.642 59.5484 171.779 61.7478 172.057C66.5879 172.667 70.6878 173.944 74.2807 175.958C77.9241 178.002 81.0781 180.867 84.1287 183.638C87.0495 186.292 90.0686 189.035 93.5101 191.048C102.613 196.374 114.172 196.284 123.46 196.212C128.902 196.17 135.07 196.122 140.459 193.884C146.595 191.336 151.186 186.247 155.626 181.326C157.809 178.906 160.067 176.403 162.492 174.216C164.294 172.589 166.739 170.636 169.683 169.966C174.885 168.78 179.406 171.63 184.192 174.649C187.985 177.041 191.907 179.514 196.21 179.803C200.671 180.103 204.889 178.032 208.785 175.749C218.798 169.881 224.088 163.296 224.511 156.176C225.014 147.684 218.49 140.48 212.336 134.395L194.296 116.557C192.255 114.541 189.942 112.253 189.033 109.282C187.696 104.913 189.636 100.795 191.691 96.4339C193.293 93.0353 194.949 89.5206 194.898 85.8833C194.822 80.3466 190.927 75.7319 186.73 71.5705C180.768 65.6574 173.497 59.4274 164.783 58.0419C159.142 57.1453 153.404 58.3488 147.854 59.5133C145.081 60.0942 142.213 60.6966 139.379 61.0338C133.907 61.6855 129.447 61.1854 125.745 59.507C121.494 57.5784 118.141 53.9803 115.184 50.8053L93.5631 27.5976C90.9438 24.7864 87.9764 21.6012 84.2536 19.8533C80.3101 18.0019 75.8773 17.8402 70.911 17.8251C57.9733 17.7884 42.169 19.5414 34.7953 33.5347C33.4573 36.0757 31.7989 38.7658 30.0447 41.615C23.6433 52.0064 16.3882 63.7845 20.4414 74.8642C22.1527 79.5409 25.8944 83.0973 29.5125 86.5375C30.4937 87.4708 31.5089 88.4345 32.4635 89.4044C34.9858 91.9656 36.938 94.7062 38.1083 97.3306C39.5548 100.576 39.8385 103.644 38.9545 106.451C37.9922 109.501 35.6932 111.944 33.6629 114.1L21.6709 126.833C16.8686 131.932 12.5165 137.026 12.0222 143.257C11.4232 150.816 16.6883 157.465 22.4667 163.525C25.3395 166.537 27.9904 169.154 31.3449 170.672C36.1094 172.829 41.5511 172.41 46.8137 172.005C47.3459 171.965 47.8768 171.923 48.4052 171.885C50.6727 171.722 52.7573 171.64 54.7095 171.64L54.7058 171.642Z" fill="white"/>
<path d="M121.889 198.37C117.64 198.37 113.68 198.263 109.736 197.758C104.1 197.034 99.4563 195.569 95.543 193.279C92.1595 191.3 89.1984 188.61 86.3357 186.009C83.3607 183.306 80.2836 180.511 76.7399 178.523C68.6574 173.991 59.0263 174.027 51.5391 174.565C51.022 174.602 50.5037 174.642 49.9829 174.683C44.8111 175.081 39.464 175.491 34.76 173.362C31.4471 171.863 28.8404 169.29 26.0167 166.328C20.3342 160.37 15.156 153.825 15.7488 146.358C16.2368 140.201 20.5158 135.19 25.2374 130.177L36.9644 117.723C38.9356 115.631 41.169 113.259 42.0959 110.319C44.1906 103.673 39.0478 97.1424 35.7954 93.8411C34.8634 92.8951 33.8722 91.953 32.9137 91.0412C29.3587 87.6615 25.6838 84.1683 23.9939 79.551C22.2107 74.6761 22.4982 69.2227 24.8742 62.8802C26.9487 57.341 30.2301 52.014 33.4031 46.8637C35.1182 44.0802 36.7374 41.452 38.0427 38.9729C39.7149 35.8004 41.9282 33.0927 44.6232 30.9267C47.0596 28.9692 49.9728 27.3867 53.282 26.2248C58.6354 24.3456 65.0683 23.4792 73.5367 23.5045C78.4172 23.5184 82.7743 23.6788 86.6673 25.5062C90.3422 27.2314 93.2579 30.3622 95.8318 33.1242L116.977 55.8217C119.857 58.9134 123.122 62.418 127.245 64.2884C130.831 65.9151 135.16 66.3988 140.475 65.7661C143.238 65.4377 146.039 64.8504 148.747 64.2821C154.192 63.1404 159.823 61.9596 165.375 62.8424C169.266 63.4612 173.089 65.0588 177.063 67.7274C180.943 70.3341 184.382 73.5849 186.946 76.1272C191.08 80.2267 194.915 84.7757 194.992 90.2607C195.042 93.8626 193.413 97.3205 191.838 100.665C189.845 104.894 187.962 108.89 189.249 113.089C190.124 115.949 192.367 118.166 194.346 120.123L211.989 137.568C215.009 140.553 218.118 143.804 220.404 147.338C223.019 151.38 224.18 155.201 223.954 159.02C223.538 166.052 218.331 172.545 208.479 178.319C204.643 180.567 200.485 182.606 196.07 182.31C191.812 182.023 187.955 179.591 184.226 177.239C179.58 174.309 175.192 171.542 170.182 172.685C167.348 173.331 164.981 175.221 163.237 176.796C160.874 178.929 158.669 181.373 156.537 183.736C152.181 188.565 147.675 193.559 141.633 196.067C136.329 198.269 130.275 198.316 124.936 198.358C123.903 198.365 122.889 198.372 121.891 198.372L121.889 198.37ZM57.6895 174.13C60.1664 174.13 62.4263 174.265 64.5765 174.535C69.3107 175.132 73.321 176.38 76.8345 178.352C80.3971 180.35 83.4818 183.152 86.4656 185.862C89.322 188.456 92.2755 191.14 95.6401 193.109C104.541 198.317 115.847 198.23 124.931 198.159C130.253 198.118 136.285 198.072 141.555 195.884C147.556 193.392 152.046 188.415 156.388 183.602C158.523 181.235 160.731 178.787 163.102 176.647C164.865 175.055 167.257 173.146 170.135 172.489C175.224 171.33 179.645 174.117 184.327 177.068C188.035 179.407 191.872 181.826 196.08 182.109C200.441 182.403 204.567 180.377 208.377 178.145C218.17 172.406 223.344 165.966 223.756 159.003C224.248 150.7 217.868 143.655 211.849 137.703L194.205 120.258C192.21 118.285 189.947 116.049 189.057 113.141C187.749 108.869 189.647 104.84 191.656 100.575C193.222 97.251 194.842 93.8133 194.792 90.2569C194.717 84.8427 190.91 80.3302 186.805 76.261C180.973 70.4793 173.863 64.3844 165.34 63.0305C159.824 62.1541 154.212 63.3311 148.785 64.469C146.072 65.0373 143.267 65.6259 140.495 65.9555C135.143 66.592 130.781 66.1033 127.16 64.4614C123.002 62.5759 119.724 59.0561 116.831 55.9505L95.6855 33.2531C93.1242 30.5037 90.2224 27.388 86.5816 25.6792C82.7251 23.8682 78.3907 23.7103 73.5329 23.6964C60.8764 23.6586 45.424 25.3749 38.2142 39.06C36.9052 41.5442 35.2834 44.1762 33.567 46.9622C27.3068 57.1251 20.2106 68.643 24.1755 79.4777C25.849 84.0521 29.5075 87.5289 33.0462 90.8934C34.0059 91.8052 34.9984 92.7499 35.9328 93.6971C38.4008 96.2015 40.3089 98.8827 41.4527 101.45C42.8677 104.624 43.1451 107.626 42.28 110.372C41.3392 113.356 39.0894 115.744 37.1044 117.852L25.3773 130.306C20.681 135.293 16.4247 140.274 15.9417 146.368C15.3553 153.76 20.5044 160.261 26.1554 166.188C28.9639 169.133 31.5568 171.692 34.8369 173.177C39.4955 175.286 44.8174 174.877 49.964 174.482C50.4848 174.442 51.0044 174.402 51.5214 174.365C53.7397 174.205 55.7777 174.125 57.687 174.125L57.6895 174.13Z" fill="white"/>
<path d="M123.43 200.317C119.276 200.317 115.404 200.212 111.548 199.717C106.038 199.009 101.499 197.577 97.6731 195.339C94.3664 193.405 91.4709 190.775 88.6725 188.232C85.7644 185.589 82.7566 182.858 79.2936 180.915C71.394 176.485 61.9798 176.52 54.6604 177.047C54.1559 177.084 53.6477 177.123 53.1395 177.162C48.0837 177.55 42.8564 177.951 38.2583 175.87C35.0198 174.404 32.4711 171.889 29.7118 168.995C24.1566 163.169 19.0945 156.772 19.6746 149.471C20.1526 143.452 24.3344 138.554 28.9501 133.653L40.4136 121.479C42.3393 119.434 44.5223 117.116 45.429 114.241C47.4758 107.746 42.449 101.363 39.271 98.1363C38.3605 97.2119 37.3907 96.2912 36.4537 95.3996C32.9793 92.0957 29.3852 88.6807 27.7344 84.167C25.9903 79.4007 26.2715 74.0698 28.5944 67.8701C30.6236 62.4546 33.8306 57.2488 36.9317 52.2135C38.6077 49.4931 40.1904 46.9231 41.4679 44.5008C43.1023 41.399 45.2663 38.7531 47.9008 36.6352C50.2818 34.7206 53.1306 33.1748 56.3654 32.0381C61.599 30.2006 67.8894 29.3519 76.1648 29.3784C80.9369 29.3923 85.1956 29.5489 89.0017 31.3347C92.5946 33.0219 95.4447 36.082 97.9606 38.7822L118.629 60.9694C121.445 63.9916 124.636 67.418 128.665 69.2442C132.171 70.8342 136.402 71.3065 141.598 70.6877C144.298 70.3669 147.035 69.7923 149.683 69.2379C155.006 68.1214 160.509 66.9671 165.937 67.8297C169.741 68.4346 173.478 69.9956 177.363 72.6048C181.156 75.1522 184.518 78.331 187.024 80.8152C191.065 84.8225 194.815 89.2693 194.89 94.6317C194.939 98.1527 193.346 101.534 191.806 104.803C189.859 108.938 188.019 112.843 189.275 116.948C190.13 119.741 192.323 121.91 194.258 123.822L211.505 140.875C214.457 143.794 217.496 146.971 219.731 150.426C222.287 154.377 223.422 158.113 223.202 161.846C222.794 168.72 217.704 175.068 208.073 180.712C204.323 182.91 200.258 184.902 195.941 184.613C191.778 184.333 188.009 181.956 184.362 179.656C179.821 176.793 175.532 174.088 170.636 175.204C167.867 175.836 165.554 177.684 163.847 179.223C161.537 181.308 159.382 183.696 157.298 186.006C153.04 190.727 148.636 195.608 142.729 198.061C137.543 200.214 131.626 200.26 126.406 200.3C125.397 200.308 124.407 200.314 123.433 200.314L123.43 200.317ZM60.6733 176.616C63.0947 176.616 65.3029 176.748 67.4051 177.013C72.0334 177.596 75.953 178.816 79.3882 180.744C82.8714 182.697 85.8867 185.437 88.8037 188.086C91.5958 190.622 94.4825 193.245 97.7714 195.17C106.472 200.261 117.522 200.175 126.401 200.107C131.603 200.067 137.5 200.021 142.651 197.883C148.516 195.447 152.905 190.582 157.15 185.877C159.237 183.564 161.394 181.172 163.712 179.079C165.435 177.524 167.774 175.657 170.588 175.015C175.562 173.881 179.885 176.606 184.461 179.492C188.087 181.778 191.836 184.142 195.949 184.419C200.21 184.707 204.245 182.726 207.969 180.544C217.54 174.935 222.597 168.641 223 161.836C223.48 153.719 217.244 146.834 211.361 141.017L194.114 123.963C192.163 122.035 189.952 119.847 189.082 117.006C187.803 112.828 189.659 108.89 191.623 104.72C193.154 101.47 194.737 98.1111 194.688 94.6355C194.615 89.3438 190.892 84.9336 186.88 80.9554C181.18 75.3037 174.23 69.3465 165.9 68.0229C160.509 67.1666 155.022 68.3172 149.718 69.4286C147.067 69.9843 144.324 70.5589 141.615 70.8822C136.383 71.5048 132.119 71.0274 128.579 69.4222C124.515 67.5784 121.309 64.1381 118.48 61.102L97.8118 38.9148C95.3085 36.2273 92.471 33.1823 88.9134 31.5115C85.1439 29.7421 80.9079 29.5868 76.1598 29.5729C76.0374 29.5729 75.9139 29.5729 75.7915 29.5729C63.4907 29.5729 48.6158 31.346 41.6369 44.5892C40.3568 47.0178 38.7729 49.5904 37.0943 52.3145C30.9754 62.2475 24.0393 73.5066 27.9147 84.0975C29.5504 88.5683 33.1269 91.9682 36.5849 95.2556C37.5231 96.1472 38.4929 97.0692 39.406 97.9961C42.6155 101.255 47.6902 107.704 45.6119 114.298C44.6925 117.215 42.4932 119.551 40.5523 121.612L29.0888 133.785C24.4984 138.66 20.338 143.529 19.8663 149.485C19.2938 156.709 24.3256 163.065 29.8505 168.857C32.596 171.736 35.1295 174.237 38.3365 175.688C42.8891 177.749 48.0912 177.35 53.1218 176.964C53.6313 176.924 54.1383 176.885 54.644 176.849C56.8118 176.693 58.8056 176.615 60.6708 176.615L60.6733 176.616Z" fill="white"/>
<path d="M124.969 202.264C120.909 202.264 117.127 202.162 113.36 201.678C107.976 200.987 103.542 199.588 99.8043 197.4C96.5734 195.51 93.7447 192.941 91.0106 190.456C88.1693 187.874 85.2309 185.206 81.8474 183.307C74.1294 178.979 64.9321 179.015 57.7829 179.527C57.2898 179.563 56.7942 179.601 56.2973 179.64C51.3575 180.019 46.25 180.411 41.7567 178.377C38.5925 176.945 36.1018 174.487 33.4056 171.659C27.9778 165.967 23.0329 159.717 23.5979 152.583C24.0645 146.701 28.1505 141.916 32.6615 137.127L43.8615 125.234C45.743 123.236 47.8756 120.971 48.7609 118.164C50.761 111.82 45.8502 105.584 42.7454 102.433C41.855 101.53 40.9092 100.629 39.9936 99.7592C36.5987 96.5324 33.0878 93.1945 31.4736 88.7843C29.7698 84.1279 30.0447 78.9183 32.3135 72.8612C34.2959 67.5708 37.4285 62.4837 40.459 57.5646C42.0959 54.9061 43.6433 52.3954 44.8905 50.0286C46.4871 46.9976 48.602 44.4124 51.1759 42.3437C53.5027 40.4733 56.2847 38.9628 59.4463 37.8527C64.5588 36.058 70.7055 35.2346 78.7905 35.2548C83.4528 35.2674 87.6144 35.4215 91.3322 37.1669C94.8419 38.815 97.6277 41.8044 100.086 44.4427L120.278 66.1184C123.029 69.0712 126.146 72.4179 130.082 74.2025C133.508 75.7559 137.64 76.2168 142.716 75.6132C145.354 75.2987 148.029 74.7379 150.616 74.1961C155.817 73.1062 161.194 71.9784 166.497 72.8208C170.213 73.4119 173.866 74.9375 177.66 77.4861C181.367 79.9753 184.652 83.0809 187.1 85.5082C191.048 89.4233 194.712 93.7691 194.785 99.009C194.833 102.451 193.277 105.753 191.772 108.947C189.869 112.986 188.072 116.801 189.299 120.81C190.135 123.539 192.277 125.657 194.166 127.525L211.015 144.185C213.9 147.037 216.87 150.141 219.052 153.516C221.551 157.377 222.659 161.027 222.444 164.675C222.046 171.393 217.073 177.595 207.662 183.109C203.997 185.256 200.026 187.205 195.809 186.921C191.742 186.647 188.058 184.324 184.496 182.077C180.059 179.28 175.87 176.638 171.087 177.728C168.382 178.344 166.122 180.15 164.456 181.653C162.199 183.69 160.094 186.024 158.058 188.281C153.897 192.893 149.594 197.662 143.823 200.059C138.756 202.163 132.975 202.207 127.875 202.248C126.889 202.255 125.922 202.26 124.97 202.26L124.969 202.264ZM63.6559 179.104C66.0217 179.104 68.1795 179.233 70.2338 179.492C74.7562 180.062 78.5862 181.254 81.942 183.137C85.3444 185.045 88.2917 187.723 91.1405 190.31C93.8683 192.788 96.6881 195.351 99.9015 197.23C108.401 202.203 119.198 202.12 127.872 202.053C132.954 202.014 138.715 201.97 143.745 199.88C149.476 197.5 153.764 192.748 157.909 188.151C159.948 185.89 162.057 183.552 164.322 181.509C166.005 179.99 168.29 178.165 171.041 177.538C175.902 176.429 180.126 179.093 184.596 181.913C188.139 184.146 191.801 186.456 195.819 186.726C199.983 187.008 203.923 185.073 207.56 182.941C216.91 177.461 221.851 171.313 222.244 164.665C222.714 156.736 216.621 150.009 210.874 144.327L194.024 127.666C192.118 125.782 189.957 123.645 189.107 120.868C187.858 116.786 189.671 112.938 191.591 108.864C193.086 105.69 194.632 102.408 194.584 99.0115C194.513 93.8424 190.877 89.5332 186.957 85.6484C181.388 80.1269 174.6 74.3073 166.462 73.0153C161.194 72.178 155.836 73.302 150.652 74.3894C148.062 74.9324 145.383 75.4944 142.736 75.8089C137.624 76.4176 133.457 75.9504 129.999 74.3818C126.028 72.5808 122.895 69.2189 120.132 66.2523L99.9393 44.5765C97.494 41.9509 94.7221 38.9767 91.2464 37.345C87.564 35.616 83.425 35.4645 78.7867 35.4518C66.6964 35.4165 51.9452 37.0545 45.0608 50.1208C43.811 52.4939 42.2624 55.0071 40.6229 57.6681C34.6453 67.3725 27.8693 78.3714 31.6539 88.7174C33.2517 93.0846 36.745 96.4061 40.1248 99.6177C41.0416 100.489 41.9887 101.39 42.8816 102.295C46.018 105.479 50.9754 111.781 48.945 118.225C48.0458 121.075 45.8969 123.357 44.0014 125.37L32.8015 137.263C28.317 142.026 24.2524 146.782 23.7909 152.6C23.2309 159.658 28.148 165.866 33.5443 171.525C36.2267 174.338 38.7023 176.782 41.8349 178.2C46.2828 180.213 51.3651 179.823 56.2796 179.445C56.7765 179.407 57.2734 179.37 57.7665 179.334C59.8851 179.181 61.8323 179.106 63.6546 179.106L63.6559 179.104Z" fill="white"/>
<path d="M126.506 204.21C122.542 204.21 118.85 204.11 115.171 203.638C109.915 202.964 105.584 201.597 101.933 199.462C98.7778 197.615 96.0159 195.107 93.3462 192.681C90.5717 190.16 87.7027 187.555 84.3999 185.702C76.8647 181.476 67.8843 181.51 60.9028 182.012C60.4211 182.046 59.9368 182.084 59.4513 182.12C54.6275 182.49 49.6411 182.874 45.2524 180.888C42.1615 179.488 39.7313 177.089 37.0968 174.328C31.7964 168.77 26.9676 162.666 27.52 155.7C27.9752 149.956 31.9666 145.283 36.3704 140.606L47.3068 128.994C49.1442 127.042 51.2263 124.832 52.0902 122.09C54.0424 115.897 49.2476 109.81 46.2159 106.732C45.347 105.85 44.4226 104.971 43.5285 104.121C40.213 100.97 36.7853 97.7107 35.209 93.4041C33.5455 88.8563 33.8129 83.7704 36.0299 77.8536C37.9657 72.6869 41.0252 67.7198 43.9838 62.9169C45.5829 60.3215 47.0924 57.8702 48.3106 55.559C55.0815 42.7074 69.5566 41.0984 81.4148 41.1313C85.9674 41.1439 90.0307 41.2929 93.6627 42.9979C97.0904 44.6068 99.8106 47.5268 102.211 50.1031L121.928 71.2687C124.614 74.1519 127.658 77.4192 131.501 79.162C134.846 80.6788 138.88 81.1297 143.836 80.5399C146.412 80.233 149.023 79.6861 151.549 79.1557C156.627 78.091 161.879 76.9897 167.057 77.8119C175.057 79.0824 181.717 84.7884 187.175 90.2013C191.031 94.0242 194.608 98.2677 194.68 103.385C194.727 106.746 193.207 109.971 191.738 113.091C189.88 117.034 188.126 120.759 189.324 124.673C190.14 127.338 192.231 129.405 194.076 131.229L210.529 147.497C213.345 150.282 216.245 153.313 218.377 156.609C220.816 160.38 221.899 163.944 221.688 167.507C221.3 174.066 216.443 180.124 207.254 185.509C203.91 187.467 200.304 189.257 196.485 189.257C196.216 189.257 195.949 189.248 195.678 189.231C191.705 188.963 188.109 186.695 184.629 184.501C180.299 181.77 176.207 179.19 171.539 180.255C168.898 180.857 166.691 182.619 165.066 184.087C162.861 186.076 160.806 188.354 158.818 190.558C154.755 195.061 150.554 199.719 144.918 202.059C139.969 204.114 134.325 204.157 129.345 204.196C128.381 204.204 127.437 204.209 126.506 204.209V204.21ZM66.6384 181.592C68.9487 181.592 71.056 181.719 73.0612 181.971C77.4776 182.528 81.2168 183.693 84.4944 185.53C87.8175 187.394 90.6941 190.007 93.4773 192.536C96.1408 194.955 98.8938 197.457 102.031 199.292C110.331 204.148 120.872 204.068 129.342 204.001C134.305 203.963 139.929 203.918 144.841 201.879C150.435 199.555 154.622 194.915 158.67 190.428C160.662 188.22 162.721 185.938 164.932 183.943C166.576 182.459 168.807 180.677 171.493 180.064C176.24 178.982 180.365 181.582 184.733 184.335C188.191 186.516 191.767 188.771 195.69 189.035C199.754 189.309 203.603 187.421 207.154 185.339C216.283 179.99 221.107 173.986 221.491 167.495C221.949 159.754 216.002 153.186 210.39 147.638L193.937 131.37C192.076 129.529 189.966 127.444 189.136 124.731C187.916 120.744 189.686 116.987 191.56 113.007C193.021 109.908 194.53 106.704 194.484 103.389C194.413 98.3422 190.863 94.1353 187.037 90.3415C181.6 84.95 174.97 79.2681 167.025 78.0064C161.884 77.1893 156.65 78.2868 151.589 79.3476C149.06 79.8781 146.444 80.4262 143.86 80.7344C138.867 81.3279 134.799 80.872 131.422 79.3413C127.544 77.5821 124.484 74.2997 121.787 71.4025L102.069 50.237C99.682 47.6745 96.9757 44.7685 93.582 43.1759C89.9866 41.4887 85.946 41.3396 81.4173 41.327C69.6196 41.2929 55.2102 42.8918 48.4872 55.6499C47.2664 57.9674 45.7544 60.4213 44.154 63.0192C38.3163 72.495 31.7005 83.2337 35.3969 93.3346C36.9569 97.5983 40.3682 100.842 43.6672 103.977C44.5626 104.829 45.4883 105.708 46.3584 106.593C49.4217 109.702 54.2631 115.857 52.2794 122.149C51.4016 124.932 49.3031 127.161 47.4518 129.127L36.5155 140.74C32.1369 145.39 28.1682 150.034 27.718 155.715C27.1719 162.605 31.9717 168.667 37.2406 174.193C39.8599 176.938 42.2762 179.325 45.3344 180.71C49.6764 182.675 54.6389 182.294 59.4374 181.926C59.9229 181.888 60.4072 181.851 60.889 181.817C62.9572 181.668 64.8589 181.594 66.6396 181.594L66.6384 181.592Z" fill="white"/>
<path d="M128.047 206.158C124.179 206.158 120.575 206.06 116.983 205.599C111.853 204.941 107.627 203.608 104.064 201.523C100.985 199.72 98.2897 197.273 95.6843 194.905C92.9767 192.446 90.1783 189.902 86.9536 188.094C79.6001 183.969 70.8379 184.003 64.0254 184.493C63.555 184.527 63.0833 184.563 62.6091 184.599C57.9014 184.961 53.0348 185.334 48.7508 183.396C45.7342 182.031 43.362 179.689 40.7919 176.994C35.6188 171.57 30.9061 165.612 31.4458 158.813C31.891 153.207 35.7853 148.646 40.0832 144.082L50.7559 132.75C52.548 130.846 54.5809 128.688 55.4233 126.014C57.3289 119.971 52.6501 114.032 49.6916 111.028C48.8441 110.167 47.9411 109.311 47.0697 108.481C43.8337 105.406 40.488 102.224 38.9507 98.0214C37.3264 93.5835 37.5887 88.6189 39.7515 82.8447C41.6406 77.8031 44.6257 72.9559 47.5136 68.2679C49.0736 65.7357 50.5479 63.3425 51.7358 61.0869C58.344 48.5447 72.4723 46.9711 84.043 47.0064C88.4859 47.0191 92.4521 47.1643 95.9958 48.8288C99.3415 50.3999 101.996 53.2491 104.338 55.7636L123.58 76.4189C126.201 79.2327 129.172 82.4204 132.921 84.1216C136.185 85.6017 140.122 86.0412 144.957 85.4653C147.471 85.166 150.019 84.6318 152.483 84.1152C157.44 83.0758 162.564 82.0023 167.618 82.8043C175.426 84.0445 181.925 89.6128 187.254 94.8956C191.017 98.6276 194.509 102.769 194.578 107.764C194.624 111.044 193.14 114.192 191.707 117.236C189.894 121.084 188.182 124.717 189.351 128.536C190.147 131.136 192.187 133.154 193.988 134.933L210.044 150.81C212.792 153.527 215.622 156.485 217.703 159.702C220.084 163.382 221.141 166.861 220.935 170.338C220.556 176.741 215.816 182.652 206.847 187.908C203.584 189.82 200.064 191.567 196.337 191.567C196.075 191.567 195.814 191.558 195.55 191.54C191.674 191.279 188.163 189.065 184.768 186.924C180.542 184.26 176.549 181.743 171.995 182.781C169.419 183.368 167.266 185.088 165.678 186.52C163.528 188.461 161.522 190.685 159.582 192.835C155.617 197.23 151.517 201.775 146.016 204.06C141.188 206.065 135.679 206.108 130.819 206.145C129.879 206.153 128.957 206.158 128.051 206.158H128.047ZM69.6222 184.08C71.877 184.08 73.9326 184.203 75.8899 184.45C80.1991 184.993 83.85 186.13 87.0482 187.925C90.2918 189.743 93.099 192.294 95.8142 194.761C98.4133 197.121 101.101 199.563 104.161 201.355C112.26 206.093 122.547 206.014 130.811 205.949C135.654 205.911 141.142 205.87 145.936 203.878C151.395 201.611 155.48 197.082 159.431 192.704C161.374 190.549 163.383 188.322 165.542 186.374C167.148 184.925 169.326 183.186 171.946 182.589C176.58 181.532 180.606 184.07 184.868 186.758C188.242 188.886 191.732 191.086 195.559 191.343C199.525 191.611 203.28 189.769 206.745 187.738C215.654 182.518 220.362 176.659 220.736 170.327C221.184 162.773 215.379 156.364 209.903 150.95L193.847 135.073C192.029 133.277 189.97 131.24 189.16 128.593C187.969 124.702 189.698 121.035 191.526 117.151C192.951 114.126 194.424 111.001 194.379 107.765C194.311 102.841 190.846 98.7362 187.112 95.0346C181.807 89.7732 175.337 84.2289 167.585 82.9975C162.567 82.2006 157.461 83.2716 152.521 84.3072C150.053 84.825 147.5 85.3605 144.977 85.6598C140.104 86.2395 136.134 85.7949 132.838 84.2996C129.052 82.5833 126.068 79.3792 123.434 76.5515L104.192 55.8962C101.862 53.3956 99.2217 50.5603 95.91 49.0057C92.4016 47.3588 88.4581 47.2148 84.0392 47.2022C72.524 47.1668 58.4651 48.7291 51.9061 61.1778C50.7143 63.4397 49.2388 65.8343 47.6776 68.3702C41.9811 77.6162 35.5255 88.096 39.1323 97.9532C40.6544 102.113 43.9838 105.278 47.2021 108.338C48.0761 109.168 48.979 110.027 49.829 110.891C52.8179 113.926 57.5432 119.932 55.6074 126.074C54.7511 128.79 52.7031 130.966 50.8959 132.885L40.2231 144.217C35.9505 148.755 32.0776 153.286 31.6388 158.829C31.1053 165.552 35.7903 171.467 40.9319 176.859C43.4882 179.539 45.8464 181.866 48.8302 183.218C53.0676 185.136 57.9102 184.764 62.5927 184.404C63.0669 184.367 63.5386 184.33 64.009 184.298C66.028 184.152 67.8831 184.079 69.6209 184.079L69.6222 184.08Z" fill="white"/>
<path d="M129.347 208.106C121.855 208.106 113.202 207.683 106.194 203.584C103.19 201.827 100.562 199.439 98.0199 197.129C95.3791 194.731 92.65 192.25 89.5061 190.487C82.3354 186.465 73.7889 186.498 67.1453 186.975C66.6876 187.008 66.2272 187.043 65.7657 187.079C61.174 187.431 56.4272 187.796 52.2491 185.905C49.3069 184.573 46.9928 182.289 44.4857 179.661C39.44 174.371 34.8432 168.56 35.3691 161.927C35.8029 156.459 39.6014 152.011 43.7933 147.559L54.2026 136.507C55.9505 134.65 57.9317 132.546 58.7539 129.938C60.6115 124.045 56.0488 118.254 53.1647 115.325C52.3374 114.485 51.4584 113.649 50.6071 112.841C47.4518 109.841 44.1881 106.738 42.6873 102.639C39.1373 92.9381 45.4605 82.6742 51.0384 73.619C52.5606 71.1487 53.997 68.816 55.156 66.616C61.6015 54.382 75.3829 52.8462 86.6673 52.8816C91.0005 52.8942 94.8696 53.0357 98.3263 54.6585C101.59 56.1905 104.179 58.9702 106.463 61.4216L125.23 81.5666C127.786 84.3097 130.683 87.4203 134.339 89.0786C137.52 90.5221 141.359 90.9502 146.076 90.3895C148.527 90.0978 151.013 89.5762 153.415 89.0723C158.249 88.0594 163.247 87.0099 168.177 87.7942C175.793 89.0041 182.131 94.4347 187.328 99.5874C190.998 103.227 194.404 107.266 194.472 112.138C194.516 115.338 193.07 118.408 191.671 121.378C189.903 125.13 188.233 128.674 189.373 132.398C190.149 134.933 192.139 136.901 193.895 138.636L209.554 154.12C214.925 159.43 220.618 165.72 220.176 173.167C219.807 179.413 215.183 185.178 206.435 190.304C203.252 192.169 199.819 193.873 196.183 193.873C195.929 193.873 195.673 193.864 195.415 193.848C191.633 193.593 188.209 191.434 184.898 189.345C180.777 186.746 176.883 184.292 172.442 185.304C169.93 185.877 167.83 187.553 166.283 188.95C164.185 190.843 162.229 193.012 160.336 195.108C156.469 199.395 152.47 203.829 147.105 206.057C142.395 208.013 137.022 208.055 132.282 208.091C131.328 208.099 130.345 208.106 129.343 208.106H129.347ZM72.6047 186.567C74.8041 186.567 76.8092 186.687 78.7185 186.927C82.9218 187.457 86.482 188.565 89.6019 190.315C92.7648 192.09 95.5039 194.578 98.1523 196.984C100.687 199.286 103.308 201.667 106.294 203.415C114.191 208.036 124.223 207.959 132.284 207.895C137.007 207.859 142.359 207.817 147.034 205.876C152.359 203.665 156.342 199.248 160.195 194.978C162.091 192.878 164.05 190.706 166.155 188.805C167.72 187.392 169.845 185.696 172.403 185.113C176.923 184.082 180.85 186.558 185.006 189.18C188.298 191.255 191.7 193.401 195.433 193.652C199.301 193.912 202.962 192.116 206.34 190.135C215.028 185.044 219.619 179.332 219.984 173.156C220.421 165.79 214.76 159.54 209.42 154.26L193.761 138.776C191.989 137.025 189.98 135.038 189.189 132.455C188.027 128.659 189.713 125.081 191.497 121.294C192.887 118.345 194.323 115.295 194.279 112.141C194.212 107.339 190.834 103.337 187.193 99.7264C182.019 94.5951 175.711 89.1884 168.149 87.9874C163.256 87.2094 158.274 88.2539 153.458 89.2642C151.051 89.7694 148.561 90.291 146.101 90.584C141.348 91.1498 137.475 90.7153 134.259 89.2579C130.567 87.5833 127.656 84.4588 125.087 81.7018L106.32 61.5567C104.048 59.118 101.473 56.3534 98.2443 54.8366C94.8242 53.2302 90.9778 53.09 86.6686 53.0773C75.4371 53.042 61.7289 54.5663 55.3312 66.7069C54.1698 68.912 52.7308 71.2485 51.2074 73.7213C45.6522 82.7386 39.3567 92.9596 42.8727 102.57C44.3571 106.627 47.6032 109.714 50.7433 112.698C51.5958 113.508 52.4761 114.345 53.3059 115.187C56.2216 118.148 60.831 124.006 58.9431 129.998C58.107 132.649 56.1094 134.77 54.3476 136.642L43.9384 147.694C39.7717 152.119 35.9959 156.538 35.5671 161.942C35.0475 168.498 39.6153 174.267 44.6295 179.525C47.1214 182.138 49.4217 184.409 52.3311 185.726C56.4637 187.596 61.1853 187.234 65.7518 186.883C66.2134 186.847 66.6749 186.812 67.1327 186.779C69.1013 186.638 70.911 186.567 72.6059 186.567H72.6047Z" fill="white"/>
<path d="M130.892 210.054C123.589 210.054 115.156 209.641 108.326 205.645C105.399 203.932 102.836 201.605 100.358 199.354C97.7853 197.017 95.1244 194.599 92.0599 192.88C85.0708 188.96 76.7424 188.993 70.2679 189.458C69.8214 189.489 69.3725 189.525 68.9223 189.559C64.4466 189.902 59.8196 190.259 55.7474 188.415C52.8797 187.116 50.6235 184.89 48.1808 182.329C43.2624 177.172 38.7817 171.508 39.295 165.043C39.7174 159.712 43.4201 155.376 47.5061 151.037L57.6504 140.264C59.3542 138.456 61.285 136.405 62.0858 133.864C63.8955 128.122 59.45 122.477 56.639 119.623C55.8332 118.804 54.9756 117.99 54.1471 117.202C51.0712 114.278 47.8907 111.253 46.4278 107.257C42.9673 97.8004 49.1304 87.7967 54.5683 78.97C56.0513 76.5629 57.4524 74.2883 58.5811 72.1451C64.8022 60.338 78.0312 58.7568 88.9689 58.7568C89.0786 58.7568 89.187 58.7568 89.2955 58.7568C93.519 58.7681 97.2897 58.9071 100.659 60.4895C103.84 61.9836 106.365 64.6926 108.59 67.082L126.882 86.7156C129.372 89.3893 132.196 92.4203 135.76 94.0369C138.861 95.4438 142.603 95.8605 147.198 95.3137C149.588 95.0295 152.009 94.5218 154.352 94.0305C159.064 93.0429 163.936 92.0212 168.74 92.784C176.163 93.9636 182.343 99.2566 187.407 104.279C190.985 107.827 194.306 111.765 194.371 116.515C194.414 119.634 193.004 122.626 191.641 125.521C189.918 129.177 188.291 132.631 189.401 136.259C190.158 138.73 192.096 140.647 193.808 142.338L209.07 157.429C214.304 162.605 219.853 168.736 219.423 175.995C219.063 182.082 214.557 187.702 206.03 192.7C202.928 194.518 199.581 196.178 196.037 196.178C195.789 196.178 195.539 196.17 195.288 196.153C191.602 195.905 188.264 193.8 185.035 191.764C181.019 189.232 177.225 186.84 172.897 187.826C170.449 188.384 168.404 190.019 166.895 191.38C164.851 193.225 162.944 195.338 161.101 197.383C157.331 201.562 153.433 205.882 148.205 208.053C143.614 209.96 138.377 210.001 133.756 210.036C132.827 210.044 131.868 210.051 130.892 210.051V210.054ZM75.5885 189.055C77.7324 189.055 79.6871 189.171 81.5472 189.406C85.6446 189.923 89.1152 191.002 92.1557 192.709C95.2391 194.438 97.9076 196.862 100.489 199.208C102.96 201.452 105.513 203.772 108.424 205.474C116.121 209.978 125.898 209.902 133.755 209.842C138.358 209.806 143.574 209.766 148.13 207.874C153.318 205.719 157.201 201.415 160.957 197.253C162.804 195.205 164.714 193.088 166.766 191.236C168.292 189.859 170.362 188.205 172.855 187.637C177.263 186.631 181.089 189.045 185.141 191.6C188.348 193.622 191.665 195.713 195.302 195.958C199.071 196.212 202.638 194.462 205.932 192.531C214.399 187.569 218.872 182.002 219.229 175.984C219.654 168.805 214.137 162.714 208.933 157.569L193.671 142.478C191.944 140.77 189.986 138.834 189.216 136.316C188.083 132.616 189.725 129.127 191.466 125.436C192.82 122.561 194.22 119.59 194.177 116.517C194.111 111.838 190.82 107.938 187.271 104.419C182.228 99.4195 176.08 94.1493 168.711 92.9785C163.942 92.2208 159.089 93.2387 154.394 94.2225C152.047 94.7151 149.621 95.2228 147.223 95.5082C142.591 96.0601 138.816 95.637 135.68 94.2149C132.081 92.5832 129.244 89.537 126.74 86.8495L108.449 67.2159C106.235 64.8391 103.725 62.1452 100.579 60.6676C97.2455 59.1028 93.4975 58.9652 89.2968 58.9538C78.3541 58.9247 64.9901 60.4049 58.7564 72.2361C57.624 74.3856 56.2216 76.6627 54.736 79.0723C49.3221 87.8611 43.1855 97.8219 46.6132 107.188C48.0597 111.141 51.2238 114.149 54.2833 117.058C55.1131 117.847 55.9719 118.663 56.7803 119.484C59.6228 122.368 64.1162 128.081 62.2749 133.922C61.4603 136.506 59.5131 138.573 57.7955 140.398L47.6511 151.171C43.5903 155.484 39.9104 159.79 39.4917 165.057C38.9847 171.446 43.4377 177.067 48.3233 182.192C50.7522 184.74 52.9932 186.952 55.8294 188.235C59.8561 190.058 64.4579 189.704 68.9084 189.363C69.3586 189.329 69.8076 189.294 70.2552 189.262C72.1747 189.124 73.9364 189.055 75.5885 189.055Z" fill="white"/>
<path d="M132.436 212C125.323 212 117.108 211.598 110.456 207.706C107.604 206.038 105.109 203.771 102.695 201.578C100.189 199.301 97.5974 196.947 94.6136 195.274C87.8074 191.457 79.6959 191.487 73.3891 191.941C72.954 191.972 72.5164 192.005 72.0775 192.039C67.7179 192.374 63.2107 192.72 59.2445 190.924C56.4511 189.66 54.253 187.49 51.8733 184.995C47.0823 179.971 42.7189 174.454 43.2183 168.156C43.6307 162.963 47.2374 158.74 51.2175 154.512L61.0983 144.02C62.7579 142.258 64.6383 140.262 65.4176 137.787C67.1807 132.196 62.8513 126.699 60.1134 123.92C59.329 123.123 58.4929 122.329 57.6858 121.562C54.6894 118.715 51.5908 115.769 50.167 111.876C46.7961 102.664 52.7989 92.9191 58.0956 84.3223C59.5396 81.9771 60.9041 79.7632 62.0051 77.6743C68.1252 66.0591 81.208 64.6054 91.9237 64.6332C96.0387 64.6446 99.711 64.7797 102.994 66.3205C106.092 67.7754 108.55 70.4137 110.719 72.7425L128.535 91.8659C130.961 94.47 133.711 97.4215 137.181 98.9951C140.202 100.364 143.845 100.771 148.321 100.239C150.647 99.9625 153.007 99.4675 155.288 98.9888C159.877 98.0264 164.622 97.0313 169.303 97.7751C176.534 98.9244 182.552 104.08 187.486 108.972C190.971 112.428 194.205 116.264 194.269 120.891C194.312 123.929 192.937 126.844 191.609 129.663C189.932 133.224 188.347 136.588 189.429 140.121C190.165 142.526 192.053 144.394 193.721 146.041L208.587 160.739C213.685 165.78 219.09 171.752 218.672 178.825C218.321 184.756 213.931 190.231 205.625 195.098C202.391 196.994 198.885 198.711 195.161 198.463C191.569 198.221 188.318 196.17 185.174 194.188C181.262 191.721 177.567 189.392 173.354 190.352C170.969 190.895 168.978 192.486 167.508 193.812C165.517 195.61 163.661 197.668 161.865 199.659C158.193 203.729 154.397 207.937 149.303 210.053C144.831 211.91 139.73 211.949 135.229 211.984C134.323 211.991 133.39 211.997 132.438 211.997L132.436 212ZM78.571 191.542C80.6594 191.542 82.5624 191.655 84.3759 191.884C88.3673 192.387 91.7471 193.44 94.7094 195.101C97.7134 196.785 100.313 199.147 102.827 201.43C105.233 203.617 107.72 205.876 110.555 207.534C118.051 211.92 127.574 211.846 135.225 211.788C139.708 211.754 144.789 211.713 149.226 209.872C154.279 207.773 158.06 203.581 161.717 199.527C163.517 197.533 165.377 195.471 167.376 193.667C168.863 192.326 170.881 190.714 173.308 190.161C177.601 189.183 181.33 191.533 185.277 194.022C188.401 195.992 191.631 198.028 195.173 198.267C198.844 198.514 202.318 196.808 205.526 194.929C213.771 190.097 218.128 184.675 218.476 178.814C218.89 171.824 213.517 165.892 208.449 160.88L193.583 146.182C191.901 144.519 189.993 142.632 189.242 140.179C188.139 136.574 189.739 133.176 191.433 129.581C192.752 126.782 194.115 123.888 194.074 120.894C194.011 116.338 190.804 112.539 187.348 109.112C182.436 104.243 176.448 99.11 169.273 97.9696C164.628 97.2321 159.9 98.2235 155.329 99.182C153.043 99.6607 150.679 100.157 148.343 100.435C143.831 100.972 140.152 100.56 137.099 99.1757C133.593 97.5857 130.829 94.6191 128.39 92.001L110.574 72.8776C108.418 70.5627 105.974 67.9383 102.909 66.4998C99.6631 64.9755 96.0122 64.8416 91.9224 64.8302C81.2673 64.7999 68.2501 66.2434 62.1778 77.7665C61.0744 79.8604 59.7086 82.0781 58.2621 84.4259C52.9894 92.9848 47.013 102.687 50.3511 111.809C51.7598 115.66 54.8407 118.588 57.8207 121.421C58.6291 122.19 59.4652 122.985 60.2534 123.784C63.0215 126.594 67.3988 132.159 65.6055 137.848C64.8123 140.365 62.9156 142.379 61.2421 144.156L51.3613 154.649C47.4064 158.849 43.8224 163.044 43.415 168.172C42.9219 174.394 47.2576 179.87 52.0171 184.86C54.3829 187.34 56.5659 189.494 59.3277 190.745C63.2498 192.519 67.7305 192.176 72.0649 191.842C72.5038 191.808 72.9414 191.775 73.3765 191.744C75.2455 191.61 76.9631 191.542 78.571 191.542Z" fill="white"/>
</g>
<defs>
<clipPath id="clip0_1_97">
<rect width="227" height="212" fill="white"/>
</clipPath>
</defs>
</svg>
